<svg width="301" height="301" fill="none" xmlns="http://www.w3.org/2000/svg"><path d="M298.522 127.443v-.005c-4.661-30.212-18.332-57.452-38.179-78.887a151.388 151.388 0 0 0-7.484-7.528 150.181 150.181 0 0 0-30.106-21.932 144.872 144.872 0 0 0-5.858-3.079 149.015 149.015 0 0 0-37.229-12.705h-.005A149.483 149.483 0 0 0 152.967.441a150.236 150.236 0 0 0-38.339 4.213 149.186 149.186 0 0 0-50.976 23.211 150.499 150.499 0 0 0-27.511 25.069c-.256.294-.507.59-.758.888a148.99 148.99 0 0 0-7.373 9.497C10.44 87.895.1 117.992.1 150.506c0 82.892 67.2 150.092 150.091 150.092 4.555 0 9.062-.203 13.511-.598a149.78 149.78 0 0 0 19.891-3.137c54.924-12.479 98.401-55.083 112.134-109.524a148.234 148.234 0 0 0 3.059-15.577 151.452 151.452 0 0 0 1.496-21.256 151.177 151.177 0 0 0-1.76-23.063z" fill="#0E52A3"/><path d="M106.936 52.412c-.362.762-1.573 1.896-2.379 2.644.487-1.92.98-4.256 1.047-5.076.044-.497.111-1.969.106-3.856.883.734 1.718 1.699 2.152 2.355.812 1.226-.347 2.717-.926 3.933zM112.027 59.187c-1.235-.41-2.254-.796-2.485-.926-.521-.29-7.991 1.621-9.207 1.97-1.216.347-3.706 1.273-3.706 3.763s.405 3.416.637 4.69c.232 1.274-4.459 2.664-4.459-.289 0-2.953-.232-6.254 2.722-7.47 2.953-1.216 7.701-2.432 8.165-3.127.149-.222.391-.975.651-1.93.526.014 1.448.044 2.823.193 2.142.232 3.301.463 4.372 1.216.844.593.342 1.432.487 1.91z" fill="#1A8ED1"/><path d="M234.271 190.459c-2.085-.174-10.896 1.737-13.96-1.911s-15.919-11.987-18.872-12.508c-2.953-.521-18.067-1.216-21.367-1.737-3.301-.521-14.419-1.911-27.447-1.216-13.029.695-27.795 2.432-28.663 2.779-.869.347-5.906 4.69-7.644 3.474-1.737-1.216-13.724-8.512-15.808-10.857-2.085-2.345-5.569-4.936.869-5.602 1.757-.183 3.499-.618 5.13-1.177a4.852 4.852 0 0 0-.352-.106c-1.216-.323-3.301-.845-4.603-.845-1.303 0-1.737-.955-1.737-.955s-2.519.261-3.214.955c-.695.695-4.256 1.467-2.606 0 1.206-1.071 3.735-3.127 7.209-2.953 3.474.174 6.167.782 8.599 1.911.227.106.454.208.69.309 2.447-1.226 4.28-2.495 4.956-3.088 1.39-1.216.348-14.766 2.78-18.588 2.432-3.822 6.915-12.102 8.406-16.3 1.496-4.198 15.393-17.922 18.173-19.833 2.78-1.911 9.381-19.283 9.207-20.499-.174-1.216-6.775-5.733-11.292-8.338-4.517-2.606-10.553-4.517-11.793-7.644-1.235-3.127-5.347-6.949-8.068-6.485-2.721.463-4.227 1.448-6.312 1.158-.844-.116-2.06-.444-3.252-.806-.42-.01-.777-.048-.975-.12-.174-.059-.261-.165-.294-.291-1.235-.41-2.254-.796-2.485-.926-.521-.29-7.991 1.621-9.207 1.97-1.216.347-3.706 1.273-3.706 3.763s.405 3.416.637 4.69c.232 1.274-4.459 2.664-4.459-.289 0-2.953-.232-6.254 2.722-7.47 2.953-1.216 7.701-2.432 8.165-3.127.149-.222.391-.975.651-1.93-.299-.01-.473-.019-.536-.039-.063-.019.27-.333.748-.772.487-1.92.98-4.256 1.047-5.076.044-.497.111-1.969.106-3.856-.767-.632-1.573-1.09-2.191-1.008-1.332.174-3.938 1.39-4.575 1.39s-1.679.521-2.2-1.216c-.521-1.737-1.506-3.532.521-4.517 2.027-.984 3.417-1.737 2.142-.232-1.274 1.505 1.969 1.042 2.837.347.869-.695.521-1.245.984-1.694.555-.536 1.448-.159 2.143 1.057l.048.077c-.13-1.216-.318-2.403-.579-3.45-.7.68-1.814 1.317-2.365 1.317-.84 0-1.361-.796-2.142-1.35-.782-.56-2.432.655-2.432.655h-2.519c-.782 0-2.78.955-4.604.955-1.824 0-2.866-.695-3.822-.869-.956-.174-2.345-1.129-2.432-2.345-.058-.84.13-1.433.656-1.718-2.176.318-5.158.125-5.984.125-1.042 0-2.75 1.737-4.097 2.432-1.346.695-6.326 1.274-7.137-1.39-.56-1.843-2.345-4.632-4.314-6.828a150.5 150.5 0 0 0-27.511 25.069c1.428.685 4.049.883 4.522-1.274.608-2.779 6.167-8.946 6.514-9.207.121-.087.618-.27 1.288-.492h.005c1.284-.43 3.18-1.018 4.092-1.419.888-.39 2.171-2.379 3.156-3.759.56-.782 1.023-1.366 1.274-1.366.695 0 1.563.955 1.911.434.347-.52 3.561-2.78 5.559-3.648 1.998-.869 3.301 1.39 1.477 2.258-1.824.87-1.042 6.862-.869 7.73.174.869 5.212.087 5.038.782-.174.695.608 2.258 1.477 2.432.869.174 2.953 1.737 3.474 2.345.521.608.608 2.345 1.216 2.606.608.261 8.425.695 9.902.695 1.477 0 2.172-1.216 3.388-2.432 1.216-1.216.521-2.693.521-2.693s.782-1.91 2.258-4.864c1.477-2.953 3.04-1.303 3.735 0 .695 1.303-3.301 2.779-3.214 3.127.087.347.174 4.82.434 6.427.261 1.607 2.475 1.346 2.91 1.173.435-.173.043-1.998 1.042-3.561s2.302-.999 3.04.391c.738 1.39.087 4.04-.347 4.647-.434.608-2.866.347-4.517 1.086-1.65.738-1.52 1.65-2.215 2.78-.695 1.128-4.343 3.647-6.949 6.08-2.606 2.431-3.909 5.211-3.648 6.774.26 1.563 1.216 1.39 3.735 3.388s6.688 5.038 10.597 5.038 5.906-1.216 6.949-3.04c1.042-1.824-.029-4.777-1.071-5.646-1.042-.869-.463-1.91-.058-3.417.405-1.505-.116-5.21 0-5.617.116-.405 3.938.521 5.269.521 1.332 0 1.563-.81 2.895-.927 1.332-.116 3.185 2.432 3.532 3.764.347 1.332.579 1.621 1.448 2.085.868.463 3.243-1.39 3.243-2.49 0-1.1-.232-1.91 1.216 0 1.448 1.911 4.459 4.46 6.254 5.327 1.795.87 9.67 4.517 11.755 5.617 2.085 1.1.579 2.664.174 2.606-.405-.058-2.316-.232-2.432.695-.116.926 2.2 2.374 3.532 2.606 1.332.232 4.922-.579 4.864-.405-.058.174-1.332.87-.463 1.506.869.637 5.154 3.185 4.748 4.227-.405 1.042-5.617 1.274-6.312.695-.695-.579-1.737-.695-3.358-.058-1.621.637-3.938 1.158-4.575.811-.637-.347.347-2.837.927-4.575.579-1.737.174-2.606-.463-2.895-.637-.289-2.548 1.564-3.764 2.548-1.216.984-4.111.811-6.37 1.332-2.258.521-3.88 1.158-4.574 2.143-.695.984-3.532 5.096-2.953 4.98.579-.116 3.243-2.606 4.169-3.301.926-.695 3.474-1.505 4.285-.463.811 1.042.463 2.201-.463 1.911-.926-.289-.116 1.274.984 2.143 1.1.869 2.2 1.563 4.053.984 1.853-.579 2.2-.984 3.069-2.084.869-1.1 1.158-.637 1.621.637.463 1.274-.579 1.795-1.621 2.664-1.042.87-1.679 2.027-2.529 2.895-.844.869-3.378 1.737-3.783 2.548-.405.811-2.49 2.49-2.316-.463.174-2.953-4.285 1.39-6.254 2.837-1.969 1.448-2.085 3.474-.289 5.675 1.795 2.2-1.737 1.448-2.316 1.158-.579-.289-3.532 1.39-3.417 2.49.116 1.1.116 3.822-.29 6.775-.405 2.953-2.722 6.254-4.401 8.628-1.679 2.374-8.628 9.786-8.918 11.002-.289 1.216 1.795 5.443 2.432 7.296.637 1.853 1.506 3.822 1.332 6.833-.174 3.011-2.915-.236-4.69-1.621-1.699-1.327-1.332-3.416-1.911-5.211-.579-1.795-2.606-4.111-3.301-3.243-.695.869-2.432 1.216-2.953.579-.521-.637-2.085-.869-3.996-1.1-1.911-.232-3.358-.232-4.227.811-.869 1.042.869 1.795.579 2.606-.289.811-1.737 1.274-4.748.232-1.694-.584-3.807-.439-5.549-.024-1.356.323-2.49.811-3.021 1.24-1.216.984-2.49 5.327-2.432 6.428.058 1.1.405 1.679.116 2.142-.289.463-1.274 1.216-1.1 4.632.174 3.416.405 5.675 2.027 9.612 1.621 3.938 4.806 4.517 8.917 3.822 4.111-.695 4.98-3.764 4.864-5.211-.116-1.448.348-1.969 1.332-2.316.984-.348 4.401-1.737 5.385-1.424.984.314.695 3.334.405 4.493-.29 1.158-1.274 3.474-1.448 5.38-.174 1.911-.232 5.622.232 5.622.463 0 8.165-.927 9.612-.637 1.448.29 2.779 2.722 3.127 3.532.347.811-.058 5.733-.058 6.37 0 .019 0 .044.005.068.126.728 2.128 3.214 3.296 4.449 1.066 1.129 3.383 1.621 4.333 1.679.125.005.227.005.299 0 .637-.058 2.664-1.1 4.748-1.563 2.084-.463 3.88.405 4.401.695.521.29 1.679 2.085 1.679 1.506s2.201-5.211 2.837-5.906c.637-.695 4.285-5.906 6.428-6.775 2.142-.868 7.436-.729 7.262.314-.174 1.042 1.076 1.655 2.582 1.771 1.506.116 3.648-.695 6.775-1.39 3.127-.695 13.434-1.042 14.187-.637.753.405 5.385 3.069 8.802 3.995 3.417.927 7.398 1.448 8.917.622 1.52-.825 5.429-.825 7.209-.087 1.781.738 5.516 3.388 5.646 4.299.13.912.478 1.216 1.39 1.26.912.043 1.998 1.78 2.606 2.736.608.955 1.563.261 3.909.261s9.12-.782 10.944 0c1.824.782 5.125.869 5.993-.174.869-1.042 3.561-3.127 5.038-2.085 1.477 1.042 4.43 1.564 6.254 1.564 1.824 0 3.648-1.303 4.43-1.303.782 0 2.258 1.39 2.519 5.733.261 4.343-4.517 12.073-5.631 13.55-1.11 1.477-.97 2.258-.275 6.601s-.087 6.775-.521 8.338c-.434 1.563-2.519 7.557-3.648 8.425-1.129.869-5.819 3.648-9.294 6.862-3.474 3.214-4.69 5.819-4.951 8.425-.261 2.606-1.65 4.69-3.301 6.428-1.65 1.737-7.036 7.644-9.728 11.465-2.693 3.822-3.996 5.82-8.165 7.73-4.169 1.911-4.43 2.432-5.559 3.995-1.129 1.564-3.04 3.822-2.866 5.559.174 1.737.695 2.172-1.824 3.214-2.519 1.042-1.477 1.824.782 2.519 2.258.695 5.733-.347 5.298.174-.434.521-1.303.608-3.214 1.303s-11.813.521-12.768 0c-.955-.521-4.43-1.824-5.038-2.432-.608-.608-.782-5.212-1.129-6.775-.347-1.563-1.737-4.082-1.39-5.298.347-1.216.434-5.038 0-5.993-.434-.955-1.129-2.171-1.39-4.43-.261-2.259-.782-8.078-1.303-9.728-.521-1.65-2.258-3.909-2.606-6.601-.348-2.693-6.254-4.082-9.468-4.517-3.214-.434-5.993-.955-7.904-2.693-1.911-1.737-6.167-5.125-8.252-7.73-2.085-2.605-5.356-4.835-7.672-6.457-2.316-1.622-3.532-1.679-3.59-2.895-.058-1.216-.869-4.111-1.679-6.196s-.695-8.165-.116-8.512c.579-.347 2.664-2.085 3.011-2.49.347-.405-.232-2.142.174-2.142s1.563-.753 2.085-1.621c.521-.869-.869-.753-1.1-.984-.232-.232.058-5.964 0-6.37-.058-.405-1.448-.869-2.316-1.506-.869-.637-1.853-1.39-1.795-2.78.043-1.057-1.081-.975-2.205-.825h-.005c-.01.005-.029.005-.053.01-.014.005-.039.005-.068.01-.241.043-.83.135-1.568.246-.005.005-.005.005-.01.005-.825.29-1.091.931-.666 1.308.521.463.984 1.737.521 1.911-.463.174-.811.29-1.737.579-.926.29-1.737-.869-2.606-1.505-.869-.637-4.459.058-4.806-.695-.347-.753-2.2-2.722-2.895-3.069-.695-.347-2.606.232-2.837 0-.232-.232.116-2.837 0-3.301-.116-.463-4.111-2.779-5.964-3.822-1.853-1.042-7.18-2.229-9.091-2.099-1.911.13-3.778-2.389-5.168-4.517-1.39-2.128-3.301-1.911-5.125-.738-1.824 1.173-3.778-.434-5.95-.955-2.171-.521-8.773-4.603-11.552-6.341-2.779-1.737-2.693-4.864-3.301-8.43-.608-3.566-2.693-7.552-4.628-9.202-1.935-1.65-2.842-5.646-3.798-6.775-.955-1.129-2.085-3.735-2.172-6.167-.087-2.432-.782-3.04-2.036-2.78-1.255.261-.048 2.866.647 3.909.695 1.042 0 2.606 0 3.735s.347 1.39 1.911 3.474c1.563 2.084-2.693-.869-3.388-1.911-.695-1.042-.521-3.214-.955-5.82-.434-2.606-1.39-11.031-2.085-12.594-.695-1.564-3.822-4.343-3.995-7.643-.174-3.301-.521-12.855 1.39-15.461s5.733-12.334 6.427-15.46c.695-3.128 1.443-9.034 2.258-12.451.815-3.416 5.038-13.26 5.733-20.209.695-6.949-4.517-2.953-5.559-1.737-.647.758-2.702-.632-4.497-2.007a148.99 148.99 0 0 0-7.373 9.497c2.089 2.307 4.521 3.696 4.98 7.045.695 5.096-1.853 16.677-5.096 21.773-3.243 5.096-8.107 9.96-7.412 17.14.695 7.18 1.255 23.857-.068 27.795-1.322 3.938 3.358 11.349 6.345 15.982 2.987 4.633 5.303 6.669 9.472 9.241s11.35 17.164 16.445 19.944c5.096 2.779 31.732 7.412 35.207 9.96 3.474 2.548 6.949 10.423 10.191 11.349 3.243.927 15.75-.926 15.982 2.085.232 3.011-7.644 6.254-5.096 11.35s4.401 17.14 13.666 25.015 22.236 11.349 25.015 15.055c2.779 3.706 5.096 9.033 6.949 19.456 1.853 10.423 1.814 14.259 3.938 18.993.898 1.998 3.021 3.465 5.173 4.497a149.78 149.78 0 0 0 19.891-3.137c1.337-2.813 1.728-6.182 1.168-8.599-1.042-4.517 5.733-9.554 9.381-10.944 3.648-1.39 13.55-11.292 15.808-14.94 2.258-3.648 3.127-9.381 4.864-12.508 1.737-3.127 10.597-10.597 11.987-11.813 1.39-1.216 2.779-7.122 3.995-8.338 1.216-1.216 1.583-5.906 1.573-8.512-.01-2.606-1.901-3.648 0-9.207 1.901-5.559 4.681-14.245 5.028-15.461.349-1.218-1.04-5.909-3.125-6.083zM74.741 41.584c-.294-.347.116-1.91 1.911-2.78 1.795-.868 1.679-2.939 3.359-1.959 1.679.975 2.374 2.017 1.042 2.77-1.332.753-3.301 1.737-4.401 1.969-1.101.231-1.617.347-1.911 0zm11.928.81c-.232.869-1.93 1.1-2.152 1.911-.222.811 1.689.695 1.515 1.564-.174.868-1.274 2.49-1.969 2.606-.695.116-2.78-1.216-3.416-.637-.637.58-1.969.87-3.359-.058-1.39-.926-2.721-2.543-1.969-2.948.753-.41 2.524.053 2.886-.352.357-.405-.454-1.39-.396-1.795.058-.405 1.39-.347 2.432-.463 1.042-.116 2.027-1.153 3.301-1.042 1.501.13 3.359.346 3.127 1.214z" fill="#1580E6"/><path d="M103.172 192.197c-1.168-1.235-3.17-3.721-3.296-4.449.058.646.975 1.8 2.485 3.812 1.395 1.858 4.116 2.287 5.144 2.316-.95-.058-3.266-.55-4.333-1.679z" fill="#2EBCEE"/><path d="M298.788 171.761a148.234 148.234 0 0 1-3.059 15.577c-5.747-9.284-8.449-16.812-8.29-22.241.092-3.127.984-13.796-.82-16.214-1.805-2.418-6.312 3.417-10.655 3.474-8.686.116-15.268-3.204-21.541-4.401-9.728-1.853-23.625-16.725-25.247-21.541-1.621-4.816-1.39-15.287-1.621-19.688-.232-4.401-5.791-24.784-17.603-37.06-2.403-2.495-3.257-6.524-4.632-11.118-.989-3.305-7.875-3.132-8.729-6.316-1.385-5.178-2.784-9.564-4.85-11.065-2.717-1.974-9.675-3.938-15.142-8.686-4.782-4.145-12.739-4.97-16.445-9.603-6.876-8.599-16.908-16.214-21.309-17.372-2.475-.65-13.728-.936-24.214-.854A150.236 150.236 0 0 1 152.97.44c2.302 1.52 5.704 3.011 9.82 3.532 8.252 1.042 13.203 2.258 13.289 2.693.087.434-9.815-.434-11.552 0s-3.735.956-2.78 3.301c.956 2.345 2.693 1.39 5.125 2.953s9.728 5.472 11.378 6.775c1.65 1.303 8.165 5.906 8.946 6.341.782.434 4.69.174 4.69-.347 0-.52-.174-2.172 0-2.258.174-.087 5.472-.52 6.254.174.782.695 1.737 1.737 1.65 2.258-.087.521-3.909-.26-4.864-.869-.956-.608-2.866-.695-.869.695 1.998 1.39 5.212 2.953 6.254 3.214 1.042.261 2.085 1.39 2.866 3.735.782 2.345 3.301 5.906 4.69 6.95 1.39 1.041.347 1.997-.521 2.344-.869.348 1.65 1.39 1.563 1.998-.087.608-1.477.956-1.998 1.39-.521.434 2.085.521 3.474.521 1.389 0 3.561.782 5.038 1.824 1.477 1.042 3.561 1.998 3.822 3.474.261 1.477-2.258 3.561-3.474 4.43-1.216.87-1.824 1.13-1.477 2.693.348 1.563.695 1.737 3.04 1.824 2.345.087 3.648 2.78 4.082 3.91.434 1.128.434 3.907 3.474 4.081 3.04.174 5.385.174 5.733 0 .347-.174.26-1.129.521-1.737.261-.608 1.911-1.824 1.911-2.866s.193-3.127-.685-4.517c-.878-1.39-2.529-1.91-3.658-4.256-1.129-2.345-2.172-5.125-2.345-5.733-.174-.608-2.432-.695-2.779-1.737-.347-1.042 1.216-2.085 1.39-2.345.174-.26-.521-3.214-.434-3.648.087-.434 4.082-1.216 5.472-.434 1.39.782 2.693 1.477 4.256.87 1.563-.609 2.953-.609 4.169 1.302 1.216 1.911.956 3.735 1.129 4.256.174.521 2.866.261 3.127.174.261-.087-2.866-6.514-5.733-7.557-2.866-1.042-6.167-.869-8.078-.956-1.911-.087-3.909-.52-4.256-1.998-.347-1.477 1.563-1.39 3.301-1.563 1.737-.174 6.341-.869 7.817-.087 1.477.782 4.69 3.648 5.212 3.648.521 0-1.042-4.082-1.042-4.43 0-.348 2.794 0 2.794 0s-8.266-5.472-9.395-5.82c-1.129-.347-4.777-.955-5.733-1.39-.956-.434-4.43-3.648-4.69-4.516-.096-.314-.135-1.834-.14-3.643a150.153 150.153 0 0 1 30.106 21.932c-.092 1.621-.372 3.426-.869 4.034-.811.984.608 1.68.449 2.664-.159.984-.454 2.085.449 3.011.897.927 1.998 2.432 1.65 3.127-.347.695-2.895.463-3.474.811-.579.347-.984 1.1-2.085 1.1-1.1 0-2.143.232-4.111-1.795-1.969-2.027-2.78-3.185-3.359-3.185-.579 0-4.806 6.08-5.211 7.817-.405 1.737.405 6.717 0 7.701s-3.745 2.027-3.928 2.432c-.183.405 1.322 4.053 1.322 5.385 0 1.332.579 5.096 1.448 6.543.869 1.448 1.911 1.68 2.374 2.258.463.58.232 10.018.463 12.913.232 2.895 1.969 12.855 2.432 13.781.463.927 5.906 5.791 6.485 6.949.579 1.158-.116 3.474.463 5.791.579 2.316 1.158 2.432.984 2.953-.174.521 2.142 2.201 2.142 2.664 0 .463 1.274 1.911 3.127 2.548 1.853.637 5.096 3.069 5.849 3.822.753.753 2.374 3.069 2.49 3.764.116.695 2.895-.811 4.575-.926 1.679-.116 4.806.946 5.327 1.11.521.164.811-2.905 2.664-4.642 1.853-1.737 4.632-3.243 5.211-3.359.579-.116-.232-2.837 1.621-6.601s2.548-4.285 2.895-4.227c.347.058 1.506 1.39 2.258 1.448.753.058 2.027-1.216 2.432-1.216.405 0 .347 4.227 1.853 7.47 1.505 3.243 3.706 6.775 4.864 8.917 1.158 2.143 2.2 7.007 2.316 11.176.116 4.169-.347 11.465-.811 13.318-.463 1.853-1.274 3.233.232 6.833.493 1.181.976 2.759 1.401 4.347z" fill="#1580E6"/><path d="M242.696 47.403c-.261.087-2.953.348-3.127-.174-.174-.521.087-2.345-1.129-4.256s-2.606-1.911-4.169-1.303c-1.563.608-2.866-.087-4.256-.869-1.39-.782-5.385 0-5.472.434-.087.434.608 3.388.434 3.648-.174.26-1.737 1.303-1.39 2.345.347 1.042 2.606 1.129 2.779 1.737.174.608 1.216 3.387 2.345 5.733 1.129 2.345 2.779 2.866 3.658 4.256.878 1.39.685 3.474.685 4.517 0 1.042-1.65 2.258-1.911 2.866-.261.608-.174 1.563-.521 1.737-.348.174-2.693.174-5.733 0-3.04-.174-3.04-2.953-3.474-4.082-.434-1.129-1.737-3.822-4.082-3.909-2.345-.087-2.693-.261-3.04-1.824-.347-1.563.261-1.824 1.477-2.693 1.216-.869 3.735-2.953 3.474-4.43-.261-1.477-2.345-2.432-3.822-3.474-1.477-1.042-3.648-1.824-5.038-1.824-1.39 0-3.995-.087-3.474-.521.521-.434 1.911-.782 1.998-1.39.087-.608-2.432-1.65-1.563-1.998.868-.347 1.911-1.303.521-2.345-1.39-1.042-3.909-4.603-4.69-6.949-.782-2.345-1.824-3.474-2.866-3.735-1.042-.261-4.256-1.824-6.254-3.214-1.998-1.39-.087-1.303.869-.695.955.608 4.777 1.39 4.864.869.087-.521-.869-1.564-1.65-2.258-.782-.695-6.08-.261-6.254-.174-.174.087 0 1.737 0 2.258 0 .521-3.909.782-4.69.347-.782-.434-7.296-5.038-8.946-6.341-1.65-1.303-8.946-5.211-11.378-6.775-2.432-1.563-4.169-.608-5.125-2.953-.955-2.345 1.042-2.866 2.78-3.301 1.737-.434 11.639.434 11.552 0-.087-.434-5.038-1.65-13.289-2.693-4.116-.521-7.518-2.012-9.82-3.532a149.565 149.565 0 0 1 26.694 2.866h.005c4.521 3.151 8.773 6.239 8.831 6.746.087.782-11.552 0-12.768.608-1.216.608.261 3.214 1.998 3.822 1.737.608 5.993 3.735 10.771 3.822 4.777.087 12.508.174 14.419 3.561 1.911 3.388 7.47 14.013 9.641 16.648 2.171 2.635 6.862 7.151 7.383 8.628.521 1.477.956 6.08.869 8.339-.087 2.258 1.216 2.432 3.474 3.04 2.258.608.434-4.169-.608-5.82-1.042-1.65-2.258-6.688-2.345-8.425-.087-1.737.174-7.644-.087-8.946-.26-1.303 4.039-1.52 4.517-2.847.478-1.322-7.296-8.531-7.817-10.355-.232-.806-.651-3.436-1.047-6.114a143.61 143.61 0 0 1 5.858 3.079c.005 1.81.043 3.33.14 3.643.261.868 3.735 4.082 4.69 4.516.955.434 4.604 1.042 5.733 1.39 1.129.348 9.395 5.82 9.395 5.82s-2.794-.347-2.794 0 1.563 4.43 1.042 4.43c-.521 0-3.735-2.866-5.212-3.648-1.477-.782-6.08-.087-7.817.087s-3.648.087-3.301 1.563c.347 1.477 2.345 1.911 4.256 1.998 1.911.087 5.211-.087 8.078.956 2.863 1.044 5.99 7.472 5.729 7.558z" fill="#44871E"/><path d="M225.759 32.483c-.478 1.327-4.777 1.544-4.517 2.847.261 1.303 0 7.21.087 8.946.087 1.737 1.303 6.775 2.345 8.425 1.042 1.65 2.866 6.428.608 5.82-2.258-.608-3.561-.782-3.474-3.04.087-2.258-.347-6.862-.869-8.339-.521-1.477-5.211-5.993-7.383-8.628-2.172-2.635-7.73-13.26-9.641-16.648-1.911-3.387-9.641-3.474-14.419-3.56-4.777-.088-9.033-3.215-10.771-3.823-1.737-.608-3.214-3.214-1.998-3.822 1.216-.608 12.855.174 12.768-.608-.058-.507-4.309-3.595-8.831-6.746a149.109 149.109 0 0 1 37.229 12.705c.396 2.678.816 5.308 1.047 6.114.523 1.826 8.297 9.035 7.819 10.357z" fill="#74C84D"/><path d="M300.284 150.505c0 7.214-.512 14.312-1.496 21.256-.425-1.588-.907-3.165-1.399-4.348-1.505-3.6-.695-4.98-.232-6.833.463-1.853.927-9.149.811-13.318-.116-4.169-1.158-9.033-2.316-11.176-1.158-2.142-3.359-5.675-4.864-8.917-1.506-3.243-1.448-7.47-1.853-7.47s-1.679 1.274-2.432 1.216c-.753-.058-1.911-1.39-2.258-1.448-.347-.058-1.042.463-2.895 4.227-1.853 3.764-1.042 6.486-1.621 6.601-.579.116-3.359 1.621-5.211 3.359-1.853 1.737-2.143 4.806-2.664 4.642-.521-.164-3.648-1.226-5.327-1.11-1.679.116-4.459 1.621-4.575.926-.116-.695-1.737-3.011-2.49-3.764-.753-.753-3.996-3.185-5.849-3.822-1.853-.637-3.127-2.085-3.127-2.548 0-.463-2.316-2.143-2.142-2.664.174-.521-.405-.637-.984-2.953s.116-4.633-.463-5.791c-.579-1.158-6.022-6.022-6.485-6.949-.463-.927-2.2-10.886-2.432-13.78-.232-2.896 0-12.335-.463-12.914-.463-.579-1.505-.81-2.374-2.258-.869-1.448-1.448-5.212-1.448-6.543 0-1.332-1.506-4.98-1.322-5.385.183-.405 3.523-1.448 3.928-2.432.405-.984-.405-5.964 0-7.7.405-1.738 4.633-7.818 5.211-7.818.579 0 1.39 1.158 3.359 3.185s3.011 1.795 4.111 1.795c1.1 0 1.505-.753 2.085-1.1.579-.347 3.127-.116 3.474-.81.347-.696-.753-2.202-1.65-3.128-.902-.926-.608-2.027-.449-3.01.159-.985-1.259-1.68-.449-2.665.497-.608.777-2.413.869-4.034a150.957 150.957 0 0 1 7.484 7.528c.039 3.701.844 7.933.072 9.535-1.216 2.52-5.863 2.862-6.77 2.862-.907 0-1.761.188-3.383-1.477-1.621-1.67-6.727 2.384-7.06 3.812-.333 1.433-3.223 6.688-3.233 8.348-.015 1.655 3.137 9.202 4.237 11.682 1.095 2.48.188 8.247.381 10.635.188 2.384 1.742 10.534 2.003 11.349 1.231 3.86 5.675 13.149 8.295 15.113 2.62 1.969 6.302 3.59 6.92 4.208.618.618 3.653 7.035 5.038 7.557 1.385.521 4.217-1.79 4.864-3.214.647-1.424.878-4.131 2.403-5.559s5.371-2.239 6.191-6.519c.642-3.325 2.099-3.528 2.389-3.479.285.043 1.24 1.144 1.858 1.192.618.044 1.67-1.004 2.003-1.004.333 0 5.197.541 6.437 3.209 1.24 2.668 1.954 6.92 2.91 8.686.285.526 1.313 1.226 2.625 1.949v.005a151.965 151.965 0 0 1 1.758 23.063z" fill="#44871E"/><path d="M130.156 75.806c-1.061 1.81-9.231 3.083-11.928 5.327-7.441 6.196-8.324 11.51-9.381 14.592-1.057 3.083-.927 9.178-1.274 11.002-.347 1.824-2.779 6.457-4.517 9.149-1.737 2.693-8.802 5.443-9.323 6.833-.521 1.39-.014 2.953-.174 4.082-.348 2.432-5.038 6.601-8.165 7.383-3.127.782-9.207 1.477-10.162 2.866-.864 1.255-3.214 3.214-3.561 4.777-.135.618.01 1.424.24 2.176-1.355.323-2.49.811-3.02 1.24-1.216.984-2.49 5.327-2.432 6.428.058 1.1.405 1.679.116 2.142-.29.463-1.274 1.216-1.1 4.632.174 3.416.405 5.675 2.027 9.612 1.62 3.938 4.806 4.517 8.917 3.822 4.11-.695 4.98-3.764 4.864-5.211-.116-1.448.348-1.969 1.332-2.316.984-.348 4.4-1.737 5.385-1.424.984.314.695 3.334.405 4.493-.29 1.158-1.274 3.474-1.448 5.38-.174 1.911-.232 5.622.232 5.622.463 0 8.165-.927 9.612-.637 1.448.29 2.779 2.722 3.127 3.532.347.811-.058 5.733-.058 6.37 0 .019 0 .044.005.068.126.728 2.128 3.214 3.296 4.449 1.066 1.129 3.383 1.621 4.333 1.679.125.005.227.005.299 0 .637-.058 2.664-1.1 4.748-1.563 2.084-.463 3.88.405 4.401.695.521.29 1.679 2.085 1.679 1.506l.695 4.922c-.058-.405-1.448-.869-2.316-1.506-.869-.637-1.853-1.39-1.795-2.78.043-1.057-1.081-.975-2.205-.825h-.005c-.01.005-.029.005-.053.01-.014.005-.039.005-.068.01-.318.039-.632.087-.912.111a2.55 2.55 0 0 0-.656.135c-.005.005-.005.005-.01.005-1.592.241-3.875.555-4.898.555-1.66 0-4.859-2.779-5.815-4.343-.955-1.563-5.993-4.053-7.035-5.096-1.042-1.042-6.08-5.935-9.033-5.849-2.953.087-4.43-1.129-5.56-2.953-1.128-1.824-5.471-1.621-8.685-1.274-3.214.347-7.122-2.114-8.078-3.069-.955-.956-3.474-4.961-5.125-8.174-.825-1.612-4.406-5.207-5.79-7.866-1.385-2.659-1.361-5.848-1.97-7.412-1.215-3.127-3.85-9.439-4.98-14.129-1.128-4.69-2.402-13.058-3.357-17.487-.956-4.43.55-11.813.984-14.071.434-2.258 2.75-14.824 3.185-19.167.434-4.343 1.366-8.744 2.287-11.697.922-2.953 2.866-13.695 2.866-15.779 0-2.085-1.824-4.082-2.866-6.08-1.042-1.998-.608-3.822-.434-5.878.087-1.004.748-1.988 1.462-2.866h.005c1.284-.43 3.18-1.018 4.092-1.419.888-.39 2.17-2.379 3.156-3.759 2.036 1.37 3.889 2.89 4.488 4.386 1.216 3.04.347 7.537 2.519 6.756 2.17-.782 6.775-.642 8.338 1.356 1.563 1.998 4.082 6.81 5.472 7.156 1.39.347 10.597-.26 10.77.521.174.782-9.641 5.906-11.64 8.686-1.997 2.78-2.865 7.47-1.91 9.12.956 1.65 4.464 7.296 7.137 7.817 1.457.285 6.963-1.544 10.235-.637 2.75.763 4.464 3.156 6.717 3.243 6.022.232 12.937-10.346 13.087-11.929.579-6.138 7.166-2.833 11.234-1.505 4.069 1.33 8.649 2.941 7.992 4.055z" fill="#74C84D"/><path d="M232.36 198.711c-.261-4.343-1.737-5.733-2.519-5.733s-2.606 1.303-4.43 1.303c-1.824 0-4.777-.521-6.254-1.564-1.477-1.043-4.169 1.042-5.038 2.085-.869 1.042-4.169.955-5.993.174-1.824-.782-8.599 0-10.944 0-2.345 0-3.301.695-3.909-.261-.608-.956-1.694-2.693-2.606-2.736-.912-.044-1.259-.348-1.39-1.26-.13-.912-3.865-3.561-5.646-4.299-1.781-.738-5.689-.738-7.209.087-1.52.825-5.501.304-8.917-.622-3.416-.926-8.049-3.59-8.802-3.995-.753-.405-11.06-.058-14.187.637-3.127.695-5.269 1.505-6.775 1.39-1.505-.116-2.755-.729-2.582-1.771.174-1.042-5.12-1.182-7.262-.314-2.143.869-5.79 6.08-6.428 6.775-.637.695-2.837 5.327-2.837 5.906l.695 4.922c.058.405-.232 6.138 0 6.37.232.232 1.621.116 1.1.984-.521.869-1.679 1.621-2.085 1.621-.406 0 .174 1.737-.174 2.142-.348.405-2.432 2.143-3.011 2.49-.579.347-.695 6.427.116 8.512.811 2.085 1.621 4.98 1.679 6.196.058 1.216 1.274 1.274 3.59 2.895s5.588 3.851 7.672 6.457c2.084 2.606 6.341 5.993 8.252 7.73 1.911 1.737 4.69 2.258 7.904 2.693 3.214.434 9.12 1.824 9.468 4.517.347 2.693 2.085 4.951 2.606 6.601.521 1.65 1.042 7.47 1.303 9.728.261 2.258.955 3.474 1.39 4.43.434.956.347 4.777 0 5.993-.348 1.216 1.042 3.735 1.39 5.298.347 1.563.521 6.167 1.129 6.775.608.608 4.082 1.911 5.038 2.432.955.521 10.857.695 12.768 0 1.911-.695 2.779-.782 3.214-1.303.434-.521-3.04.521-5.298-.174-2.258-.695-3.301-1.477-.782-2.519s1.998-1.477 1.824-3.214c-.174-1.737 1.737-3.995 2.866-5.559 1.129-1.563 1.39-2.085 5.559-3.995 4.169-1.911 5.472-3.909 8.165-7.73 2.693-3.822 8.078-9.728 9.728-11.465 1.65-1.737 3.04-3.822 3.301-6.428.261-2.606 1.477-5.211 4.951-8.425 3.474-3.214 8.165-5.993 9.294-6.862 1.129-.869 3.214-6.862 3.648-8.425.434-1.563 1.216-3.995.521-8.338-.695-4.343-.835-5.125.275-6.601 1.116-1.477 5.893-9.207 5.632-13.55zm-12.643 5.047c-2.172 6.428-2.9 12.705-1.993 16.831.907 4.126-3.986 10.404-7.065 13.994-3.079 3.585-8.15 17.758-11.229 21.526-3.079 3.764-7.32 12.633-10.935 14.954-1.53.984-5.376 2.794-9.014 5.096-2.109 1.336-5.134 7.735-6.939 8.338-1.805.603-4.69.545-5.733-.878-3.243-4.439-5.868-14.867-5.733-21.242.183-8.609-3.489-16.315-4.758-19.186-1.269-2.871-16.122-5.559-18.477-6.64-2.355-1.076-11.229-7.533-12.136-9.685s-3.079-11.301-3.079-12.918c0-1.612 10.143-15.248 11.591-18.655 1.453-3.407 8.695.357 11.958-.719 3.262-1.076 6.857-3.996 9.419-4.483 3.436-.651 18.477-.719 21.01.719 2.538 1.433 3.624 6.099 8.695 8.073 5.072 1.969 11.909 6.263 20.832 4.304 12.708-2.787 15.632-5.47 13.586.571zM148.802 85.824c-.405 1.042-5.617 1.274-6.312.695-.695-.579-1.737-.695-3.358-.058-1.621.637-3.938 1.158-4.575.811-.637-.347.347-2.837.927-4.575.579-1.737.174-2.606-.463-2.895-.637-.289-2.548 1.564-3.764 2.548-1.216.984-4.111.811-6.37 1.332-2.258.521-3.88 1.158-4.574 2.143-.695.984-3.532 5.096-2.953 4.98.579-.116 3.243-2.606 4.169-3.3.926-.696 3.474-1.506 4.285-.464.811 1.042.463 2.201-.463 1.911-.926-.289-.116 1.274.984 2.143 1.1.87 2.2 1.563 4.053.984 1.853-.579 2.2-.984 3.069-2.084.869-1.1 1.158-.637 1.621.637.463 1.274-.579 1.795-1.621 2.664-1.042.87-1.679 2.027-2.529 2.895-.844.87-3.378 1.737-3.783 2.548-.405.811-2.49 2.49-2.316-.463.174-2.953-4.285 1.39-6.254 2.837-1.969 1.448-2.085 3.474-.289 5.675 1.795 2.2-1.737 1.448-2.316 1.158-.579-.289-3.532 1.39-3.417 2.49.116 1.1.116 3.822-.29 6.775-.405 2.953-2.722 6.254-4.401 8.628-1.679 2.374-8.628 9.786-8.918 11.002-.289 1.216 1.795 5.443 2.432 7.296.637 1.853 1.506 3.822 1.332 6.833-.174 3.011-2.915-.236-4.69-1.621-1.699-1.327-1.332-3.416-1.91-5.211-.58-1.795-2.607-4.111-3.302-3.243-.695.869-2.432 1.216-2.953.579-.52-.637-2.085-.869-3.996-1.1-1.91-.232-3.358-.232-4.227.811-.869 1.042.87 1.795.58 2.606-.29.811-1.738 1.274-4.749.232-1.694-.584-3.807-.439-5.549-.024-.232-.753-.376-1.559-.24-2.176.346-1.563 2.696-3.523 3.56-4.777.955-1.39 7.035-2.085 10.162-2.866 3.127-.782 7.817-4.951 8.165-7.383.16-1.129-.348-2.693.174-4.082.521-1.39 7.586-4.14 9.323-6.833 1.737-2.693 4.169-7.325 4.517-9.149.348-1.824.217-7.919 1.274-11.002 1.057-3.083 1.94-8.396 9.381-14.592 2.697-2.244 10.867-3.518 11.928-5.327.656-1.115-3.923-2.726-7.991-4.053s-10.655-4.632-11.234 1.505c-.15 1.583-7.065 12.16-13.087 11.93-2.254-.088-3.967-2.48-6.717-3.244-3.272-.907-8.777.922-10.235.637-2.673-.52-6.18-6.167-7.137-7.817-.955-1.65-.087-6.34 1.911-9.12 1.998-2.779 11.813-7.904 11.64-8.686-.175-.782-9.382-.174-10.77-.52-1.39-.348-3.91-5.159-5.473-7.157-1.564-1.998-6.167-2.138-8.338-1.356-2.123.767-1.337-3.523-2.447-6.558-.748-.584-1.269-.786-2.813-1.346-1.057-.386-2.466-.367-2.997-.174-1.303.473-5.602 3.605-6.34 5.472-.739 1.867-1.106 4.121-.69 5.385.7 2.143 2.865 3.995 2.865 6.08s-1.945 12.826-2.866 15.78c-.922 2.952-1.853 7.353-2.287 11.696-.434 4.343-2.75 16.908-3.185 19.167-.434 2.258-1.94 9.641-.984 14.071.955 4.43 2.23 12.797 3.358 17.487 1.13 4.69 3.764 11.002 4.98 14.129.608 1.563.584 4.753 1.97 7.412 1.384 2.659 4.964 6.254 5.79 7.866 1.65 3.214 4.168 7.219 5.124 8.174.956.955 4.864 3.416 8.078 3.069 3.214-.347 7.557-.55 8.686 1.274 1.13 1.824 2.606 3.04 5.56 2.953 2.952-.087 7.99 4.806 9.032 5.849 1.042 1.042 6.08 3.532 7.035 5.096.955 1.563 4.155 4.343 5.815 4.343 1.023 0 3.305-.314 4.898-.555-.825.29-1.091.931-.666 1.308.521.463.984 1.737.521 1.911-.463.174-.811.29-1.737.579-.926.29-1.737-.869-2.606-1.505-.869-.637-4.459.058-4.806-.695-.347-.753-2.2-2.722-2.895-3.069-.695-.347-2.606.232-2.837 0-.232-.232.116-2.837 0-3.301-.116-.463-4.11-2.779-5.964-3.822-1.853-1.042-7.18-2.229-9.09-2.099-1.912.13-3.779-2.389-5.169-4.517-1.39-2.128-3.3-1.911-5.125-.738-1.824 1.173-3.778-.434-5.95-.955-2.17-.521-8.773-4.603-11.552-6.341-2.779-1.737-2.693-4.864-3.3-8.43-.609-3.566-2.694-7.552-4.629-9.202-1.935-1.65-2.842-5.646-3.798-6.775-.955-1.129-2.085-3.735-2.172-6.167-.087-2.432-.782-3.04-2.036-2.78-1.255.261-.048 2.866.647 3.909.695 1.042 0 2.606 0 3.735s.347 1.39 1.911 3.474c1.563 2.084-2.693-.869-3.388-1.911-.695-1.042-.52-3.214-.955-5.82-.434-2.606-1.39-11.031-2.085-12.594-.695-1.564-3.822-4.343-3.995-7.643-.174-3.301-.52-12.855 1.39-15.461 1.911-2.606 5.733-12.334 6.427-15.46.695-3.128 1.443-9.034 2.258-12.45.815-3.417 5.038-13.26 5.733-20.21.695-6.949-4.517-2.953-5.559-1.737-.647.758-2.702-.632-4.497-2.007.251-.299.502-.594.758-.888 1.428.685 4.05.883 4.522-1.274.608-2.779 6.167-8.946 6.514-9.207.111-.082 7.788-5.805 9.511-6.872.005 0 .01-.005.014-.01.14-.082.236-.14.29-.155.694 0 1.562.955 1.91.434.347-.52 3.561-2.78 5.56-3.648 1.997-.869 3.3 1.39 1.476 2.258-1.824.87-1.042 6.862-.869 7.73.174.87 5.212.087 5.038.782-.174.695.608 2.258 1.477 2.432.87.174 2.953 1.737 3.474 2.345.521.608.608 2.345 1.216 2.606.608.261 8.425.695 9.902.695 1.477 0 2.172-1.216 3.388-2.432 1.216-1.216.521-2.693.521-2.693s.782-1.91 2.258-4.864c1.477-2.953 3.04-1.303 3.735 0 .695 1.303-3.3 2.78-3.214 3.127.087.347.174 4.82.434 6.427.261 1.607 2.475 1.346 2.91 1.173.435-.173.043-1.998 1.042-3.56 1-1.564 2.302-1 3.04.39.738 1.39.087 4.04-.347 4.647-.434.608-2.866.347-4.517 1.086-1.65.738-1.52 1.65-2.215 2.78-.695 1.128-4.343 3.647-6.949 6.08-2.606 2.431-3.909 5.211-3.648 6.774.26 1.563 1.216 1.39 3.735 3.388 2.52 1.998 6.688 5.038 10.597 5.038s5.906-1.216 6.949-3.04c1.042-1.824-.029-4.777-1.071-5.646-1.042-.869-.463-1.91-.058-3.417.405-1.505-.116-5.21 0-5.617.116-.405 3.938.521 5.269.521 1.332 0 1.563-.81 2.895-.927 1.332-.116 3.185 2.432 3.532 3.764.347 1.332.579 1.621 1.448 2.085.868.463 3.243-1.39 3.243-2.49 0-1.1-.232-1.91 1.216 0 1.448 1.911 4.459 4.46 6.254 5.327 1.795.87 9.67 4.517 11.755 5.617 2.085 1.1.579 2.664.174 2.606-.405-.058-2.316-.232-2.432.695-.116.926 2.2 2.374 3.532 2.606 1.332.232 4.922-.579 4.864-.405-.058.174-1.332.87-.463 1.506.869.632 5.154 3.18 4.749 4.222z" fill="#44871E"/><path d="M56.993 35.417c-.053.015-.15.073-.289.155.115-.102.211-.155.29-.155z" fill="#5B8732"/><path d="M110.888 27.035c-.772.902-2.234 1.38-2.562 1.867-.772 1.158-.381 3.108-1.65 4.517-1.269 1.409-1.216 1.564-1.216 2.432 0 .299-.251.671-.618 1.028-.7.68-1.814 1.317-2.365 1.317-.84 0-1.361-.796-2.142-1.351-.782-.56-2.432.656-2.432.656h-2.519c-.782 0-2.78.955-4.604.955-1.824 0-2.866-.695-3.822-.869-.956-.174-2.345-1.129-2.432-2.345-.058-.84.13-1.433.656-1.718.232-.125.531-.193.907-.193.02 0 .04 0 .058.005 1.148.034.902 1.134 1.071 1.732.174.608 4.43 1.216 4.864.434.434-.782-.869-1.65-1.65-2.519-.497-.55-.434-.927-.053-1.259.217-.198.54-.376.922-.565.671-.338 1.235-.347 1.501.154h.005c.15.275.208.704.145 1.322-.174 1.737 1.477 1.086 2.085-.627.082-.236.164-.439.246-.603.507-1.057 1.023-.859 2.446-.333 1.65.608 1.65-2.258 2.693-2.432 1.042-.174 1.366-.907 2.056-2.055.724-1.202 3.011-.348 4.053-1.042 1.042-.695 5.53-1.94 5.791-1.39.261.55-.377 1.647-1.434 2.882zM144.98 41.584c-.782.87-.955 2.693 0 3.735.956 1.042.174 2.953.521 3.995.347 1.042 2.171 2.606 2.171 3.822 0 1.216-3.127 2.345-6.341 1.824-3.214-.52-4.604-.695-8.165-3.909-3.561-3.214-4.517-4.082-5.125-5.646-.608-1.563-1.042-2.432.695-2.519 1.737-.087 1.303-.869-.348-2.258-1.65-1.39-4.951-5.038-7.73-6.34-2.78-1.304-6.601-1.029-8.338-1.043-1.737-.014-2.78-.912-2.78-1.235 0-.164.777-1.308 2.432-2.89.999-.956.367-2.032 1.887-3.465 1.52-1.433 4.135-3.933 6.452-5.323 2.316-1.39 8.961-1.737 10.616-1.737 1.66 0 6.321 2.403 7.711 3.271 1.39.87 3.648 3.88 5.906 4.72 2.258.84 4.927 1.534 5.202 2.316.27.782-1.728 5.212-2.77 6.167-1.042.955.608 1.39.695 2.085.089.695-1.909 3.561-2.691 4.43z" fill="#D9D1D1"/><path d="M81.052 39.615c-1.332.753-3.301 1.737-4.401 1.969-1.1.232-1.616.347-1.911 0-.294-.347.116-1.911 1.911-2.78 1.795-.868 1.679-2.939 3.359-1.959 1.679.975 2.374 2.017 1.042 2.77zM86.669 42.394c-.232.87-1.93 1.1-2.152 1.911-.222.811 1.689.695 1.515 1.564-.174.868-1.274 2.49-1.969 2.606-.695.116-2.78-1.216-3.416-.637-.637.58-1.969.87-3.359-.058-1.39-.926-2.721-2.543-1.969-2.948.753-.41 2.524.053 2.886-.352.357-.405-.454-1.39-.396-1.795.058-.405 1.39-.347 2.432-.463 1.042-.116 2.027-1.153 3.301-1.042 1.501.13 3.359.346 3.127 1.214z" fill="#BCB57F"/><path d="M298.522 127.439c-1.313-.724-2.34-1.424-2.625-1.949-.956-1.766-1.67-6.018-2.91-8.686-1.24-2.669-6.104-3.209-6.437-3.209-.333 0-1.385 1.047-2.003 1.004-.618-.048-1.573-1.148-1.858-1.192-.289-.048-1.747.154-2.389 3.479-.82 4.28-4.666 5.091-6.191 6.519-1.525 1.428-1.756 4.135-2.403 5.559-.647 1.423-3.479 3.735-4.864 3.214-1.385-.521-4.42-6.939-5.038-7.557-.618-.618-4.299-2.239-6.92-4.208-2.62-1.964-7.064-11.253-8.295-15.113-.261-.815-1.814-8.966-2.003-11.349-.193-2.389.714-8.155-.381-10.635-1.1-2.48-4.251-10.027-4.237-11.682.01-1.66 2.9-6.915 3.233-8.348.333-1.428 5.438-5.482 7.06-3.812 1.621 1.665 2.476 1.477 3.383 1.477s5.554-.343 6.77-2.862c.772-1.602-.034-5.834-.072-9.535 19.848 21.433 33.519 48.673 38.18 78.885z" fill="#74C84D"/><path d="M118.749 163.881c-1.477.434-4.343 1.129-4.951 1.39-.608.261-2.606.261-2.519-.955.087-1.216.347-1.226-1.129-1.395-1.337-.154-2.529-.844-3.643-1.216a4.852 4.852 0 0 0-.352-.106c-1.216-.323-3.301-.845-4.603-.845-1.303 0-1.737-.955-1.737-.955s-2.519.261-3.214.955c-.695.695-4.256 1.467-2.606 0 1.206-1.071 3.735-3.127 7.209-2.953 3.474.174 6.167.782 8.599 1.911.227.106.454.208.69.309 2.278.994 4.83 1.8 6.172 2.036 1.476.26 3.561 1.389 2.084 1.824zM132.473 165.411c-1.39.121-4.01.468-4.391 1.337-.386.869-.907 1.39-1.776.869-.869-.521-3.648.869-4.169.869-.521 0-2.726-.782-2.881-1.216-.159-.434 2.012-.434 2.881-.434.869 0 2.258-.198.955-1.443-1.303-1.25-1.998-3.166-.955-2.9.68.174 1.477.695 3.127 0 1.65-.695 8.165.608 8.599 1.477.434.866-.001 1.32-1.39 1.441z" fill="#5B8732"/><path d="M219.717 203.758c-2.172 6.428-2.9 12.705-1.993 16.831.907 4.126-3.986 10.404-7.065 13.994-3.079 3.585-8.15 17.758-11.229 21.526-3.079 3.764-7.32 12.633-10.935 14.954-1.53.984-5.376 2.794-9.014 5.096-2.109 1.336-5.134 7.735-6.939 8.338-1.805.603-4.69.545-5.733-.878-3.243-4.439-5.868-14.867-5.733-21.242.183-8.609-3.489-16.315-4.758-19.186-1.269-2.871-16.122-5.559-18.477-6.64-2.355-1.076-11.229-7.533-12.136-9.685s-3.079-11.301-3.079-12.918c0-1.612 10.143-15.248 11.591-18.655 1.453-3.407 8.695.357 11.958-.719 3.262-1.076 6.857-3.996 9.419-4.483 3.436-.651 18.477-.719 21.01.719 2.538 1.433 3.624 6.099 8.695 8.073 5.072 1.969 11.909 6.263 20.832 4.304 12.708-2.787 15.632-5.47 13.586.571z" fill="#74C84D"/><path d="M114.638 53.57c.348 1.042 2.548.811 3.417.927.869.116 1.911.869.869 1.737-1.042.869-3.706 1.39-4.343 1.332-.637-.058 1.969 1.158 1.969 1.563 0 .304-1.949.512-3.252.468-.42-.01-.777-.048-.975-.121-.174-.058-.261-.164-.294-.29-.145-.478.357-1.317-.487-1.911-1.071-.753-2.229-.984-4.372-1.216a32.987 32.987 0 0 0-2.823-.193c-.299-.01-.473-.019-.536-.039-.063-.019.27-.333.748-.772.806-.748 2.017-1.882 2.379-2.644.579-1.216 1.737-2.707.927-3.933-.434-.656-1.269-1.621-2.152-2.355-.767-.632-1.573-1.09-2.191-1.008-1.332.174-3.938 1.39-4.575 1.39s-1.679.521-2.2-1.216c-.52-1.737-1.506-3.532.521-4.517 2.027-.984 3.417-1.737 2.142-.232-1.274 1.505 1.969 1.042 2.837.347.869-.695.521-1.245.984-1.694.555-.536 1.448-.159 2.143 1.057l.048.077c.816 1.259 4.961 4.159 6.321 4.729 1.39.579 3.069 2.142 3.417 2.548.347.405 1.423.116 1.983.405.565.29 2.707 1.506 2.707 2.432 0 .927-3.011.579-3.59.637-.58.06-1.97 1.45-1.622 2.492z" fill="#BCB57F"/><path opacity=".48" d="M210.23 69.116c-7.712 17.505-31.499 38.315-89.492 38.726-28.28.2-55.043 12.261-69.51 26.994-16.738 17.043-30.946 34.168-38.459 38.06-5.443 2.82-10.857-3.671-11.999-8.027-.528-4.003-.678-11.817-.665-11.843-.012-.463 0-1.192 0-1.655-.139-17.144 2.738-34.472 8.428-50.646 2.832-8.05 6.48-15.892 10.565-23.129h.013C34.84 48.676 60.117 26.474 89.565 13.45 108.768 4.942 129.76.346 151.022.346c.064.013.116 0 .18 0 9.1.01 18.256.862 27.345 2.611 16.904 4.79 26.916 16.565 31.037 26.497 5.2 12.526 4.586 30.72.646 39.662z" fill="url(#a)"/><path opacity=".32" d="M300.282 150.432c.033 84.409-69.752 152.74-154.923 150.174 73.733-1.597 134.78-55.797 146.153-126.392C305.774 85.65 240.523 8.267 157.133.332c82.311 3.818 143.51 72.77 143.149 150.1z" fill="#FF3BD5"/><path opacity=".6" d="M125.796 82.307c-16.175-.004-48.402-11.12-59.809-11.12-11.406 0-25.103 7.812-33.977 10.194-8.815 2.365-1.196-13.135 2.29-18.938 5.869-9.768 18.037-20.307 22.49-23.721 6.337-4.858 16.342-12.905 28.658-19.274 8.985-4.646 27.283-10.865 40.612-12.96 14.835-2.33 29.376.46 39.263 8.173 8.168 6.37 12.829 14.21 12.829 25.09 0 10.882-9.036 26.737-16.023 32.112-7.775 5.978-22.341 10.447-36.333 10.444z" fill="url(#b)"/><path opacity=".79" d="M131.856 22.097c-2.286-5.292-12.226-6.088-22.202-1.78-9.976 4.31-16.211 12.093-13.925 17.385 2.286 5.292 12.226 6.088 22.202 1.779 9.976-4.31 16.21-12.092 13.925-17.384z" fill="url(#c)"/><path opacity=".79" d="M108.872 57.87c-1.71-2.963-7.318-2.927-12.525.079-5.207 3.006-8.042 7.845-6.33 10.808 1.71 2.963 7.317 2.927 12.524-.079 5.207-3.007 8.041-7.846 6.331-10.808z" fill="url(#d)"/><defs><radialGradient id="a" cx="0" cy="0" r="1" gradientUnits="userSpaceOnUse" gradientTransform="translate(264.593 331.35) scale(363.892)"><stop offset=".678" stop-color="#66FFD8"/><stop offset="1" stop-color="#5EFFDE"/></radialGradient><radialGradient id="b" cx="0" cy="0" r="1" gradientUnits="userSpaceOnUse" gradientTransform="matrix(236.718 0 0 236.717 219.827 222.089)"><stop offset=".655" stop-color="#BDFFC6"/><stop offset=".941" stop-color="#C5FFC3"/><stop offset="1" stop-color="#C8FFC2"/></radialGradient><radialGradient id="c" cx="0" cy="0" r="1" gradientUnits="userSpaceOnUse" gradientTransform="matrix(60.8635 0 0 60.8636 135.256 75.358)"><stop offset=".514" stop-color="#D1FFF8"/><stop offset=".743" stop-color="#D5FFF7"/><stop offset=".987" stop-color="#E2FFF5"/><stop offset="1" stop-color="#E3FFF5"/></radialGradient><radialGradient id="d" cx="0" cy="0" r="1" gradientUnits="userSpaceOnUse" gradientTransform="translate(114.044 90.98) scale(37.9601)"><stop offset=".608" stop-color="#D1FFF8"/><stop offset=".999" stop-color="#E3FFF3"/></radialGradient></defs></svg>