<svg width="302" height="302" fill="none" xmlns="http://www.w3.org/2000/svg"><path d="M301.696 151.128c-6.68 171.961-223.47 199.648-286.377 64.406C-56.685 48.268 154.542-77.446 268.901 57.346v.011c12.019 15.028 21.544 33.244 27.033 52.419v.011c.032.128.074.266.106.404 3.552 12.734 5.674 26.888 5.656 40.937z" fill="#FFC696"/><path d="M151.183.62c-33.105 0-63.7 10.685-88.552 28.795 20.71-7.004 38.198 13.073 56.366.826 15.451-13.238 33.666-5.275 54.056-6.562 5.139 1.117 15.778-1.989 23.571-3.362 14.447-.464 20.911.927 35.43 3.86C208.696 9.258 180.948.618 151.183.618zM101.53 22.91c-4.73.59-15.493 1.59-9.826-1.629 12.916-8.499 22.812 1.127 9.826 1.63z" fill="#D66F1A"/><path d="M298.018 117.939c-.011 0-.02 0-.031-.011-23.004-4.762-22.973.361-33.848 6.484-13.894 1.254-31.604-.967-39.46.096-12.066 2.562-45.381 11.449-57.67 9.652-17.253.893-48.56-.606-69.192 4.38-37.94 13.32-57.5 35.835-96.706 18.678a74.37 74.37 0 0 0-.17-2.785c-.8-23.829 3.308-44.904 12.884-66.228 63.612-33.337 176.944-54.534 247.71-39.12a192.981 192.981 0 0 1 7.368 8.26v.011c12.019 15.028 21.543 33.244 27.032 52.419v.011c.032.128.074.266.106.404.535 1.917 1.26 4.596 1.977 7.749z" fill="#BD4D18"/><path d="M267.892 56.155C194.393 39.731 58.706 64.49 10.518 96.04a146.599 146.599 0 0 1 3.306-7.835 138.264 138.264 0 0 1 4.954-9.791C80.583 46.097 197.943 32.862 255.73 43.248a188.129 188.129 0 0 1 5.804 5.836 181.002 181.002 0 0 1 6.357 7.071z" fill="#BDFFFB"/><path d="M301.473 143.102c-8.485-1.259-286.952 43.495-294.049 51.515-4.26-13.521-6.59-30.225-6.474-44.733 6.15-1.921 13.002-7.082 18.38-10.515 5.466-4.857 15.367-3.278 24.718-7.092 13.011-4.279 18.716-15.138 30.85-8.627 13.863-2.506 25.079-16.594 34.12-14.801 21.981.268 36.307-5.514 43.21-8.252 6.903-2.738 32.868 2.105 47.669 1.372 3.083.205 4.953.807 7.498 2.259 3.941 3.679 9.556-3.976 18.541-4.414 7.04-.146 12.803 3.343 19.109 4.699 20.484 2.324 38.27-4.972 49.268-.004a138.204 138.204 0 0 1 1.621 5.266v.011a154.216 154.216 0 0 1 5.539 33.316z" fill="#91DEFF"/><path d="M301.303 140.401c-39.056 4.497-261.126 36.101-296.462 43.861-1.881-8.43-3.083-16.7-3.635-24.758 8.526 1.318 20.272 4.975 23.79 2.583 11.46-7.781 30.361-16.796 40.056-14.904 9.695 1.892 25.502-12.236 34.953-10.864 8.175 1.18 13.543-2.977 18.997-4.156 10.854-2.36 18.593.096 23.94-1.201 15.744-3.827 28.054-.393 43.553-1.722 3.242-.096 17.859-3.561 20.666-.319 2.806 3.242 9.791-6.006 19.198-6.814 7.388-.521 30.435 3.189 37.09 3.497 21.559-.096 31.062-8.324 35.123-4.932.948 5.038 2.253 12.99 2.731 19.729z" fill="#B8FFD6"/><path d="M.664 173.887c.011 0 .021-.011.032-.011-.01.086-.022.096-.032.011zM301.697 151.128c-.468 11.385-1.851 22.122-4.03 32.221-46.312-7.827-54.454-4.953-98.802-2.45-14.093-.564-30.384-5.271-39.73-5.38-8.465 2.048-30.796 6.41-46.073 4.643-14.395-1.22-31.68 9.953-44.626 13.719-15.734 4.562-38.957 7.125-57.982 9.942-2.882-7.904-5.363-16.867-7.1-25.811 8.95-4.408 36.828-5.854 44.678-7.877 48.337-21.113 43.884-16.675 87.794-19.225 12.566-2.299 22.905-9.888 30.847-9.589 13.747 1.76 43.278-4.339 61.058-8.373 6.508-1.203 10.849-1.469 18.624 2.479 11.474 5.979 23.578.376 34.027-2.02 3.408-.812 13.981-.899 20.187-.542.659 5.299 1.142 12.091 1.128 18.263z" fill="#FDA84A"/><path d="M192.362 169.029c20.626-2.462 23.236 12.087 35.177 2.63 2.462-1.35 5.814-2.127 9.534-2.681 9.749-1.909 18.861 4.314 29.651 5.877 10.396.869 22.157-2.765 32.133 2.369a155.506 155.506 0 0 1-2.498 11.672c-18.639 6.083-39.476-6.832-56.986-3.363-16.523 4.869-26.972 3.817-45.417 4.552-12.363 3.736-22.596 6.481-36.26 4.134-7.813-.776-3.835 8.904-12.908 7.259-37.026-8.144-34.824-.991-59.707 10.33-4.832 2.334-12.738-1.438-19.015.691-3.327 4.84-14.385 5.478-19.677 7.971-6.56 3.269-14.308 9.126-23.402 9.576-7.8-12.37-13.628-27.373-17.476-42.362 2.03-1.151 7.6-2.393 10.65-1.083 11.868 5.181 29.898-5.779 43.199-2.565 5.714-.021 7.978-5.902 13.56-7.031 13.265-3.024 24.558-10.345 35.006-9.586 17.202 3.111 34.859.344 49.457-3.696 7.335.596 13.4 2.948 18.393-2.448 15.263-12.18 47.461-10.527 69.336-14.18 8.094-2.865 20.005 2.095 23.28 2.618 4.895.244 22.196-2.977 33.231-3.211.137 2.785.059 6.654-.266 10.556-72.097-8.501-48.583 4.128-83.468 8.56-2.845-1.469-45.179-.821-25.527 3.411z" fill="#BD4D18"/><path d="M292.363 202.494c-4.008 11.577-9.153 22.154-15.265 31.711a143.384 143.384 0 0 1-2.211 3.349l-61.986.563-91.082 14.542-62.124 18.476a149.386 149.386 0 0 1-5.581-4.443 141.795 141.795 0 0 1-18.561-18.72c37.015-.096 36.675-18.911 56.798-29.106 50.931-20.028 84.841-8.834 116.233-6.538 5.889.191 11.555-.425 16.902-2.945 23.834-14.968 45.542-5.592 66.877-6.889z" fill="#B8FFD6"/><path d="M277.098 234.204c-1.983 3.106-4.961 7.405-7.739 10.939-24.376-7.393-36.911 1.512-61.445.041-33.345-1.949-25.247 6.13-52.829 4.107-9.33-.261-15.623 4.258-23.592 6.557-7.526 1.97-26.28 5.63-26.713 4.078-6.388 1.794-25.469 13.743-35.092 18.097-4.98-3.154-10.029-6.701-15.573-11.332 14.996-2.13 27.188-8.74 34.98-11.969 6.885-1.538 18.121-2.184 24.097-3.42 10.317-3.194 27.614-8.977 33.708-10.334 9.034-3.294 25.668-3.43 41.338-4.352 12.912-1.069 27.139-4.202 39.756-4.577 34.498 4.935 40.662-.971 49.104 2.165z" fill="#D66F1A"/><path d="M107.649 20.577c-.01 1.181-1.702 1.948-4.722 2.173-2.845.315-4.903.601-8.168.78-15.151 1.223 11.667-10.989 12.89-2.953zM284.882 167.699c.336 1.987-10.529 1.226-12.951.998-2.422-.217-8.757.04-8.471-1.858.336-2.254 5.15-3.717 9.49-3.687 6.811.04 11.606 2.56 11.932 4.547zM247.742 266.581c-43.512 37.078-106.424 44.917-156.829 22.509 5.596-9.052 38.134-12.5 47.744-5.871 9.075 6.259 23.727 3.883 30.67.056 12.811-7.061 41.277-28.244 78.415-16.694z" fill="#BD4D18"/><path d="M279.362 72.25C198.868 49.331 68.656 73.504 5.83 110.328a144.854 144.854 0 0 1 2.721-8.866C71.855 62.703 212.996 47.353 272.92 62.64a145.262 145.262 0 0 1 6.443 9.61z" fill="#BDFFFB"/><path d="M90.623 219.79c-1.259-4.513 13.731-13.695 25.714-15.293 12.691-1.692 22.465 1.256 29.098 6.261 4.315 3.256-15.992 12.688-33.57 14.98-9.447 1.233-19.984-1.435-21.242-5.948z" fill="#BD4D18"/><path opacity=".6" d="M211.365 69.463c-7.73 17.548-31.576 38.409-89.71 38.82-28.35.201-55.177 12.291-69.681 27.06-16.778 17.085-31.02 34.251-38.552 38.153-5.456 2.827-10.883-3.68-12.028-8.046-.53-4.012-.68-11.846-.667-11.872-.013-.464-.001-1.194-.001-1.659-.138-17.186 2.745-34.557 8.449-50.77 2.839-8.07 6.496-15.931 10.59-23.186h.014c15.766-28.99 41.106-51.247 70.626-64.304C109.655 5.13 130.698.525 152.012.525c.064.013.116 0 .18 0 9.122.009 18.3.864 27.412 2.618 16.945 4.8 26.982 16.605 31.113 26.56 5.213 12.557 4.597 30.796.648 39.76z" fill="url(#a)"/><path opacity=".29" d="M301.637 150.978c.033 84.615-69.923 153.113-155.302 150.541 73.913-1.601 135.109-55.933 146.51-126.701C307.142 86.038 241.731 8.465 158.138.511c82.512 3.827 143.861 72.947 143.499 150.467z" fill="#594AFF"/><path opacity=".68" d="M126.723 82.686c-16.215-.004-48.52-11.147-59.954-11.147-11.435 0-25.166 7.831-34.062 10.218-8.836 2.371-1.2-13.167 2.296-18.984 5.883-9.792 18.08-20.356 22.545-23.78 6.352-4.87 16.382-12.936 28.728-19.321 9.006-4.658 27.348-10.891 40.711-12.991 14.871-2.337 29.448.46 39.36 8.19 8.188 6.387 12.86 14.246 12.86 25.154s-9.058 26.8-16.063 32.189c-7.792 5.996-22.394 10.475-36.421 10.472z" fill="url(#b)"/><path opacity=".75" d="M132.798 22.329c-2.291-5.305-12.256-6.103-22.256-1.783-10.001 4.32-16.25 12.122-13.96 17.426 2.292 5.304 12.257 6.103 22.257 1.783 10.001-4.319 16.25-12.121 13.959-17.426z" fill="url(#c)"/><path opacity=".75" d="M109.759 58.189c-1.715-2.97-7.336-2.934-12.556.079-5.22 3.014-8.061 7.864-6.347 10.834 1.715 2.97 7.336 2.935 12.556-.08 5.22-3.012 8.062-7.863 6.347-10.833z" fill="url(#d)"/><defs><radialGradient id="a" cx="0" cy="0" r="1" gradientUnits="userSpaceOnUse" gradientTransform="translate(213.502 317.405) scale(326.222)"><stop offset=".656" stop-color="#FFCE80"/><stop offset=".848" stop-color="#FFD394"/><stop offset="1" stop-color="#FFD59E"/></radialGradient><radialGradient id="b" cx="0" cy="0" r="1" gradientUnits="userSpaceOnUse" gradientTransform="translate(220.984 222.809) scale(237.296)"><stop offset=".655" stop-color="#FFF9B0"/><stop offset=".771" stop-color="#FFFAB8"/><stop offset=".956" stop-color="#FFFBD0"/><stop offset="1" stop-color="#FFFCD6"/></radialGradient><radialGradient id="c" cx="0" cy="0" r="1" gradientUnits="userSpaceOnUse" gradientTransform="matrix(62.8558 0 0 62.8556 132.87 77.91)"><stop offset=".514" stop-color="#FFC469"/><stop offset=".596" stop-color="#FFCB7A"/><stop offset=".756" stop-color="#FFDEA5"/><stop offset=".979" stop-color="#FFFCEB"/><stop offset="1" stop-color="#FFFFF2"/></radialGradient><radialGradient id="d" cx="0" cy="0" r="1" gradientUnits="userSpaceOnUse" gradientTransform="matrix(38.0528 0 0 38.0527 112.938 89.15)"><stop offset=".428" stop-color="#FFE6BF"/><stop offset=".565" stop-color="#FFEBC9"/><stop offset=".798" stop-color="#FFF7E4"/><stop offset=".896" stop-color="#FFFDF2"/></radialGradient></defs></svg>