<svg width="302" height="302" fill="none" xmlns="http://www.w3.org/2000/svg"><path opacity=".3" d="M284.763 202.87c-.098.297-.207.589-.317.881-7.936 21.197-20.601 38.931-36.214 53.148 15.876-15.132 28.664-33.979 36.859-55.866 5.121-13.679 8.108-27.638 9.132-41.518a144.247 144.247 0 0 1-8.918 41.945c-.176.468-.355.947-.542 1.41z" fill="#5E2B1F"/><path d="M300.821 161.975c1.372-18.655-.809-37.148-6.114-54.598-7.499-24.656-21.268-47.234-40.157-65.25-14.27-13.621-31.463-24.63-51.094-31.979C125.624-18.991 38.9 20.485 9.761 98.317a148.78 148.78 0 0 0-4.881 15.529c-10.393 40.473-3.16 82.146 17.573 115.956l-.003.012C39.364 257.409 65.266 279.77 97.933 292c77.821 29.135 164.552-10.325 193.691-88.157 5.166-13.797 8.173-27.881 9.197-41.868z" fill="#C7360A"/><path d="M253.263 53.132c.947-3.418 1.409-7.324 1.283-11.011-14.27-13.621-31.464-24.63-51.094-31.98C125.62-18.996 38.896 20.48 9.757 98.312a152.098 152.098 0 0 0-4.881 15.529c-.041 7.303.679 12.891 2.27 13.341 4.22 1.193 3.209-9.62 8.594-17.735 5.373-8.12 22.71-28.116 24.286-30.26 1.587-2.138-2.411-8.424-1.336-9.195 1.063-.775 8.157 1.107 10.295-.438 2.134-1.534 4.356-8.5 5.77-9.144 1.398-.636 9.22.333 11.832-1.41 2.604-1.757 9.137-9.842 16.005-17.79 6.884-7.953 18.081-4.534 11.209.292-6.888 4.833-11.33 12.528-13.331 16.844-2.002 4.316-14.012 7.232-21.613 9.838-7.605 2.618-12.801 11.19-13.426 14.463-.625 3.272-6.948 2.464-11.09 8.326-4.14 5.86-16.994 19.365-16.484 24.235.52 4.874-1.827 12.18-3.191 14.789-1.363 2.609.348 6.369 2.22 8.63 1.886 2.265 1.68 11.146 6.594 15.719 4.913 4.572 12.955 6.023 10.044-2.865-2.911-8.888-.99-14.021-1.515-18.883-.51-4.87-5.172-7.015-3.848-11.585 1.324-4.57 10.58-8.232 15.374-6.438 4.782 1.79-4.678-9.634-1.35-16.96 3.33-7.324 5.698-8.984 8.433-7.96 2.736 1.024 12.202-8.096 15.226-8.91 3.036-.81 3.574 3.484 9.168 2.073 5.599-1.423 10.687-2.82 16.627.577 5.116 2.928 8.661 8.717 11.391 8.687.016-.007.016-.007.028-.003a25.4 25.4 0 0 1 .836-.274c.153-.09.292-.211.439-.355 3.117-3.126-3.582-14.841-1.575-19.17 1.423-3.067 11.167-5.862 12.919-5.88 3.99-.05 9.483-9.544 12.239-16.453 1.434-3.596 1.257-7.281.4-9.026-2.516-5.101.595-7.322 3.754-4.58 3.171 2.747 4.273 1.866 7.002 2.235 2.716.364-4.594 4.989-.427 7.069 4.155 2.076-3.279 2.385-6.154 1.055-2.882-1.346-6.541 12.452 1.41 12.043 7.947-.397 14.983-3.363 14.85.48-.144 3.839.831 4.723 5.525 6.748 4.71 2.017 2.604 4.867 7.298 6.89 4.699 2.013 9.49-.352 15.842.733 6.357 1.073 4.517-10 1.583-11.885-2.938-1.873 6.829-.296 10.352 1.796 3.53 2.108 3.642-.97 7.688-2.054 4.034-1.09 14.545 3.503 21.378 3.982 6.833.479 13.487-1.326 14.48-3.301 1-1.958.184-2.753 2.833-1.495 2.653 1.246 7.121 2.716 10.393 2.274 3.16-.43 5.708-4.53 7.14-9.778zM218.96 47.3c-2.392 2.224-9.602 3.43-15.245 1.838-5.626-1.6-18.101-5.95-17.915-13.213.157-6.686 9.659-7.084 13.913-8.371 6.143-1.846 16.625-.188 14.828 2.512-1.785 2.704 2.045 4.134 4.217 5.987 2.161 1.85 2.594 9.024.202 11.247z" fill="#C20000"/><path d="M255.871 191.967c-.417-4.162-23.268 18.678-26.419 16.041-1.745-1.46 2.664-7.8 5.684-19.044 3.376-12.57 5.68-28.586 2.489-20.969-1.904 4.545-3.062 13.214-6.478 21.951-5.883 15.051-12.785 25.91-12.785 21.177 0-2.383 1.288-6.32 2.577-11.03 1.049-3.834 5.261-27.971 2.453-24.754-2.454 2.812-8.791 14.649-10.435 18.431-1.643 3.782-3.933 7.476-4.946 4.951-1.409-3.511-1.742-14.784-3.906-31.263-2.285-17.4-2.359-24.205-3.07-22.906-1.111 2.029-2.041 11.667 0 27.64 2.945 23.049-1.256 42.262-4.207 40.618-.995-.554-4.492-7.534-9.996-17.592-7.759-14.177-18.005-29.485-16.996-24.662.894 4.274 8.501 16.776 13.253 28.872 4.415 11.238 4.389 21.133 3.563 24.307-.503 1.936-4.173 4.134-6.682 4.329-4.146.322-9.32-.515-8.434 1.216.983 1.92 6.029 3.931 8.574 4.826 4.406 1.55 8.789 1.568 8.622 3.348-.407 4.336-37.833 12.697-30.619 15.635 6.95 2.831 32.401 3.009 36.838 2.265.62 2.168-4.161 6.301-9.932 10.175-5.541 3.72-11.984 6.352-15.457 8.473-3.473 2.121 11.361-.753 18.729-3.474 9.39-3.467 18.864-8.181 21.749-9.206 5.15-1.828 5.592 22.297 9.987 15.219 1.805-2.906 4.693-14.556 9.394-18.283 3.316-2.63 22.173-7.491 21.499-10.562-.322-1.468-5.518-.433-10.712-.974-5.673-.591-9.632-2.76-8.24-3.895 1.926-1.569 3.541-2.351 6.817-3.67 11.236-4.523 22.799-14.552 26.33-17.078 3.696-2.644-26.089 8.094-26.861.271-.817-8.306 18.075-25.721 17.617-30.383z" fill="#FFA033"/><path d="M289.145 179.452c-1.146 12.222-9.575 29.848-17.409 37.953-7.833 8.105-17.42 12.794-19.994 14.369-2.936 1.797-6.882-8.594-2.182-7.673 3.09.606 13.676-5.46 18.319-14.979 4.37-8.96 2.895-21.331 2.983-23.118.322-6.515-3.013-11.593-3.31-16.865-.298-5.273 6.128-10.585 7.723-17.584 1.595-6.999 7.612-18.091 10.745-13.104 5.762 9.176 4.381 27.604 3.125 41.001z" fill="#FFA033"/><path d="M213.106 240.042c-2.181 2.177-6.801 3.383-10.354.054-4.028-3.768-.082-12.88 6.401-12.977 6.472-.111 7.81 1.379 8.991 4.278 1.198 2.952-2.841 6.446-5.038 8.645z" fill="#FF8614"/><path d="M74.062 221.849c-3.34-.158-7.548-1.666-12.05-5.911-10.946-10.323-22.62-25.998-28.724-29.456-6.115-3.463-13.768-12.18-7.831-10.344 5.938 1.836 36.126 20.151 38.594 15.623 2.48-4.524 2.3-7.671-2.657-9.566-8.68-3.343-11.148-10.812-5.474-11.407 5.68-.606 3.576-29.455 9.489-31.147 5.428-1.54 22.73-1.928 30.092 5.148 0 0 11.704-19.12 7.53-20.682-4.805-1.799-14.835 11.496-17.782 1.674-2.944-9.833-.814-14.488-.558-21.404.248-6.932-1.468-13.813.073-14.796 1.541-.983 3.892 1.604 7.225 4.664 4.576 4.192 15.317 7.974 11.017-.834-3.389-6.934-5.866-7.795-10.872-10.91-4.38-2.72-11.519-1.1-17.117.324-5.606 1.407-4.27-3.155-9.168-2.073-4.897 1.082-12.49 9.934-15.226 8.91-2.735-1.024-5.103.635-8.431 7.96-3.33 7.326-12.7 18.828-14.026 23.397-1.324 4.57 3.438 8.552 3.948 13.422.526 4.862-1.495 8.159 1.416 17.047 2.91 8.888-5.13 7.437-10.045 2.865-4.913-4.572-5.138-11.628-6.604-15.723-.978-2.765-3.573-6.017-2.209-8.626 1.363-2.609 3.712-9.914 3.19-14.789-.51-4.87 11.216-16.996 16.3-22.065 4.59-4.573 10.648-7.224 11.263-10.5.637-3.267 5.833-11.84 13.438-14.458 7.6-2.607 19.61-5.522 21.612-9.838 1.991-4.32 6.443-12.011 13.331-16.844 6.872-4.826 7.321-13.216 4.99-13.328-2.823-.151-9.315 5.084-16.199 13.038-6.867 7.947-14.145 15.527-16.749 17.285-2.612 1.742-7.907.719-11.099 1.91-3.176 1.184-4.366 5.217-7.714 7.323-3.348 2.106-6.754-.65-8.338 2.263-1.596 2.909.945 5.806-.642 7.945-1.587 2.139-7.543 9.786-10.084 13.368-3.567 5.009-8.568 8.75-13.334 17.243-5.273 9.384-3.264 19.827-7.483 18.634-1.59-.449-2.312-6.038-2.27-13.341-10.394 40.473-3.16 82.146 17.573 115.956 1.41-3.978 5.775-4.956 15.303 5.129 15.342 16.275 36.68 23.837 46.283 20.047a58.577 58.577 0 0 0 1.6-.641l-11.58-32.492z" fill="#7A0009"/><path d="M169.31 216.077c-3.433 5.966-5.202 10.583-7.072 17.215-.668 2.389-8.562 11.725-10.236 12.351-9.027 3.352-15.62 5.616-12.372 5.593 5.07-.048 7.776 5.257 4.703 13.465-3.068 8.196-22.215 4.147-26.978-.755-4.756-4.886.226-3.808 4.201-11.291 1.125-2.117-4.177-3.657-5.9-5.142-1.724-1.485-1.393-5.823-4.343-6.665-3.038-.867-7.663 3.703-10.191 3.881-2.146.151-3.822.743-4.543 1.885-3.342 5.294-5.436 6.878-10.938 7.724-6.241.96-16.041-7.237-26.788-20.774-11.097-13.977-16.845-34.267-12.426-34.267 8.699-.001 27.636 22.552 27.636 22.552 4.793.195 7.81-2.382 7.396-3.696-.73-2.219-.692-9.617 4.78-7.569 5.472 2.049 8.932 5.304 13.51 9.737 4.575 4.445 21.245 7.953 21.245 7.953s-2.017-3.088-7.366-8.596c-5.338-5.504 6.201-11.329 15.079-12.004 8.878-.675 17.863 5.234 21.715 1.211 3.836-4.016-.263-2.431-10.42-9.66-10.153-7.24-26.818-17.919-20.264-20.824 6.546-2.922 1.735-8.801-5.494-13.454-7.237-4.669-11.114-8.84-17.015-18.074-.49-.757-2.686 6.392-1.725-2.086.96-8.478 7.924-5.659 9.881-4.309 1.957 1.35 5.927 2.911 7.885 2.728 2.611-.244 5.279-1.4 7.391-3.378 4.927-4.614 3.865-22.288 16.791-23.877 6.478-.797 16.661 2.299 14.849 8.469-3.51 11.955-26.286 32.197-23.309 33.571 9.029 4.154 16.269-7.173 19.776-3.9 3.512 3.261-9.053 9.475-14.481 12.508-5.428 3.034-2.539 11.767 2.155 18.03 4.687 6.247 12.99 10.382 17.475 10.755 4.36.353 6.331-3.202 10.164-.087 3.514 2.862-.891 11.744 3.618 14.299 1.706.958 2.535 4.867 1.611 6.481zM218.96 47.3c-2.392 2.225-9.602 3.43-15.245 1.839-5.626-1.6-18.101-5.95-17.915-13.213.157-6.686 11.224-11.111 15.665-11.292 5.947-.242 16.292 2.397 15.575 5.578-.713 3.16-.454 3.989 1.719 5.842 2.16 1.85 2.593 9.024.201 11.247z" fill="#9E0A00"/><path d="M217.298 46.07c-2.12 1.972-8.512 3.042-13.514 1.63-4.987-1.418-16.045-5.275-15.88-11.712.139-5.927 9.949-9.85 13.886-10.01 5.272-.213 14.442 2.126 13.806 4.945-.632 2.802-.402 3.536 1.523 5.179 1.915 1.638 2.299 7.997.179 9.969z" fill="#7A0009"/><path d="m259.735 86.246-4.206 11.236c-.031-.665-.224-.364-1.17 1.415-2.607 4.863-7.813 2.141-15.728.35-4.787-1.099-13.415 3.003-16.758.751-2.182-1.47-.009-8.628-.295-11.388-.97-9.481-6.287-1.154-9.599 1.925-3.312 3.079-5.769 10.851-6.026 17.913-.278 7.188-3.666 8.759-8.205 6.286-4.524-2.48-5.984-.681-13.234 2.057-7.266 2.745-21.021-6.057-24.499-12.931-3.474-6.886-7.609-13.966-11.967-7.346-4.365 6.604-24.688 8.687-30.019 6.691-5.32-1.992-2.006-8.883-6.086-14.969S99.242 75.91 101.249 71.581c2.002-4.316 7.516-5.477 13.366-7.073 7.585-2.066 16.212-18.485 13.708-23.582-2.516-5.1.595-7.322 3.754-4.58 3.171 2.747 4.273 1.867 7.002 2.235 2.716.364-3.067 4.704 1.1 6.784 2.957 1.467-.49 2.376-3.533 3.17-2.082.54-3.834 2.444-4.43 3.607-1.185 2.383-1.921 5.666 1.648 5.923 7.936.558 12.786-3.744 15.336-.87.918 1.037 2.021 4.143 3.791 5.898 1.918 1.891 4.494 2.416 5.262 3.25 1.467 1.602-1.365 4.501 3.329 6.525 4.699 2.012 9.49-.353 15.842.732 6.357 1.073-2.31-10.956-.853-13.957 1.468-2.996 8.239 1.032 12.176 2.159 3.694 1.063 8.196-1.81 12.163-1.725 3.967.085 7.307 1.989 12.69 2.671 5.025.642 7.713-1.018 11.087-.488 3.363.526 5.451.894 6.119-.429 1-1.958 1.957-4.159 4.605-2.901 2.641 1.242 6.781 3.072 10.053 2.63 3.16-.43 4.772-8.438 7.805-8.422 3.026 0 2.656 8.18 2.277 10.117-1.274 6.535-4.577 17.602 2.055 22.818.348.277 1.118.286 2.134.173z" fill="#7A0009"/><path d="M272.182 124.352c-2.646.622-12.982-8.906-15.553-13.681-1.565-2.898-2.245-4.942-3.797-7.402-.775-1.228-3.079-1.15-5.394-2.017-1.019-.381-5.596-.598-10.464-.996-4.234-.346-9.28-1.277-11.132-3.49-1.851-2.213 4.052-1.434 9.704-1.886 2.629-.21 6.512-3.771 9.131-4.52 3.011-.861 4.974.232 5.016-.581.147-2.865 5.84-5.951 8.155-6.185 2.377-.241 5.225-.874 7.663.724 2.152 1.41-3.044 5.27-3.271 8.479-.248 3.532 5.913 5.58 5.295 8.839-.854 4.507-1.697 8.542-1.519 11.517.133 2.142 7.294 10.928 6.166 11.199zM246.896 135.117c-3.867 4.098-7.259 6.214-10.938 5.609-3.672-.588-7.918-4.524-11.395-6.346-1.123-.589-6.965-4.464-12.852-8.945-4.463-3.397-14.018-3.002-17.023-5.382-3.64-2.882-1.219-11.911 2.35-16.317 3.569-4.406 7.89-.565 8.91 4.705.783 4.046 11.246 11.959 15.961 10.135 3.462-1.339 11.386-10.294 17.082-4.003 5.708 6.296 6.664 12.893 8.009 13.396 1.343.505 3.774 3.055-.104 7.148z" fill="#9E0A00"/><path d="M96.435 279.307c-5.596-5.135 9.098-3.792 20.355-4.377 11.256-.585 15.569-1.849 24.881.197s16.144 4.305 9.55 10.384c-6.595 6.079-28.261 2.872-33.862 1.629-5.602-1.243-16.127-3.432-20.924-7.833z" fill="#FFA033"/><path d="M138.465 197.376c-6.799-4.057-25.288-16.076-18.735-18.981 6.546-2.921 1.736-8.801-5.493-13.454-7.225-4.665-11.114-8.84-17.015-18.074-5.905-9.223-25.898-8.909-31.806-7.229-5.924 1.688-3.82 30.536-9.5 31.143-5.675.595-3.206 8.064 5.474 11.407 4.956 1.895 5.136 5.043 2.656 9.566-2.468 4.528-32.656-13.786-38.594-15.623-5.938-1.836 1.716 6.881 7.832 10.344 6.104 3.458 17.778 19.133 28.723 29.456 5.476 5.17 16.456 10.079 20.039 9.619 3.583-.46-.23-6.289-.593-7.404-.728-2.219-.692-9.617 4.78-7.568 5.472 2.049 8.932 5.304 13.511 9.737 4.575 4.445 20.742 8.781 21.245 7.953.503-.828-2.017-3.088-7.366-8.596-5.338-5.504 6.201-11.329 15.079-12.004 5.315-.404 10.669 1.552 14.937 2.324 2.86.517 11.22 1.71 11.586-.975.364-2.685-11.554-8.534-16.76-11.641zm-38.627-20.682c-3.057 2.614-9.623 3.809-14.572.396-4.96-3.417.835-8.819 9.432-9.599 6.209-.556 8.188 6.584 5.14 9.203z" fill="#C20000"/><path d="M99.839 176.694c-3.058 2.614-9.624 3.809-14.572.396-4.96-3.417.835-8.819 9.432-9.599 6.208-.556 8.187 6.584 5.14 9.203z" fill="#59050B"/><path opacity=".54" d="M210.776 69.517c-7.727 17.54-31.563 38.393-89.673 38.805-28.338.201-55.154 12.286-69.651 27.049-16.771 17.078-31.008 34.237-38.536 38.137-5.455 2.825-10.88-3.679-12.024-8.043-.529-4.011-.679-11.841-.667-11.867-.012-.464 0-1.194 0-1.658-.139-17.179 2.744-34.542 8.446-50.749 2.838-8.067 6.493-15.924 10.587-23.176h.012c15.76-28.98 41.09-51.225 70.598-64.277C109.11 5.213 130.144.608 151.449.608c.065.014.116 0 .18 0 9.118.01 18.293.864 27.401 2.618 16.938 4.799 26.971 16.598 31.101 26.55 5.208 12.55 4.593 30.78.645 39.74z" fill="url(#a)"/><path opacity=".29" d="M301.011 150.998c.033 84.58-69.894 153.05-155.238 150.479 73.883-1.6 135.053-55.91 146.45-126.648C306.514 86.085 241.13 8.545 157.571.594c82.478 3.825 143.802 72.916 143.44 150.404z" fill="#864AFF"/><path opacity=".68" d="M126.17 82.734c-16.208-.004-48.5-11.143-59.93-11.143s-25.154 7.828-34.046 10.214c-8.833 2.37-1.198-13.161 2.295-18.976 5.88-9.788 18.073-20.348 22.536-23.77C63.374 34.191 73.4 26.128 85.74 19.746c9.003-4.656 27.337-10.887 40.694-12.986 14.865-2.336 29.436.46 39.343 8.188 8.184 6.383 12.855 14.239 12.855 25.142 0 10.903-9.054 26.79-16.056 32.176-7.79 5.994-22.386 10.472-36.407 10.468z" fill="url(#b)"/><path opacity=".75" d="M132.243 22.402c-2.29-5.302-12.251-6.1-22.247-1.782-9.997 4.318-16.244 12.117-13.953 17.42 2.29 5.301 12.251 6.099 22.247 1.781 9.996-4.318 16.243-12.116 13.953-17.419z" fill="url(#c)"/><path opacity=".75" d="M109.213 58.248c-1.714-2.969-7.333-2.933-12.551.079s-8.058 7.861-6.344 10.83c1.714 2.969 7.333 2.933 12.551-.079 5.218-3.013 8.058-7.862 6.344-10.83z" fill="url(#d)"/><defs><radialGradient id="a" cx="0" cy="0" r="1" gradientUnits="userSpaceOnUse" gradientTransform="translate(212.913 317.357) scale(326.088)"><stop offset=".656" stop-color="#FF7257"/><stop offset=".801" stop-color="#FF694C"/><stop offset="1" stop-color="#FF6142"/></radialGradient><radialGradient id="b" cx="0" cy="0" r="1" gradientUnits="userSpaceOnUse" gradientTransform="translate(220.392 222.8) scale(237.198)"><stop offset=".655" stop-color="#FF824A"/><stop offset=".817" stop-color="#FF8A4F"/><stop offset="1" stop-color="#FF9A57"/></radialGradient><radialGradient id="c" cx="0" cy="0" r="1" gradientUnits="userSpaceOnUse" gradientTransform="matrix(62.8299 0 0 62.8298 132.315 77.96)"><stop offset=".514" stop-color="#FFC469"/><stop offset=".773" stop-color="#FFCF7A"/><stop offset="1" stop-color="#FFDB8C"/></radialGradient><radialGradient id="d" cx="0" cy="0" r="1" gradientUnits="userSpaceOnUse" gradientTransform="translate(112.39 89.196) scale(38.0372)"><stop offset=".428" stop-color="#FFE6BF"/><stop offset=".552" stop-color="#FFE2B5"/><stop offset=".763" stop-color="#FFD99A"/><stop offset=".896" stop-color="#FFD285"/></radialGradient></defs></svg>