<svg width="302" height="302" fill="none" xmlns="http://www.w3.org/2000/svg"><path d="M300.337 168.016a149.082 149.082 0 0 1-7.977 33.806 150.952 150.952 0 0 1-7.445 17.135c-38.857 75.818-130.822 102.931-202.778 65.787C6.277 245.948-22.175 151.633 18.85 77.772 57.68 7.11 146.211-19.584 216.524 15.132c59.356 28.93 90.917 91.37 83.813 152.884z" fill="#9E6533"/><path d="M9.763 130.723c-3.399 3.884-6.795 13.934-9.607 24.626.573 19.077 5.21 34.557 10.018 49.282 13.332 12.896 31.22 26.215 37.651 26.274 10.905.1-4.465 10.957 4.111 15.678s25.543-24.345 18.108-36.025c-7.435-11.68-11.123-8.744-13.682-17.133-2.56-8.388 11.7-15.938 9.184-26.423-2.516-10.485-33.553-49.491-34.81-52.427-1.26-2.936-7.762 1.049-20.973 16.148z" fill="#D98B45"/><path d="M284.924 218.966c-14.36 28.336-38.625 52.52-67.508 66.704 3.241-24.751 6.502-66.61-23.28-61.105-8.641 3.223-15.955 8.989-28.482 13.255-29.412 11.772-32.536 8.338-42.067 41.092-3.735 7.938-11.617 17.363-17.555 15.568-24.931-7.833-45.334-20.558-63.756-39.34 5.054-3.618 10.49-8.863 14.085-13.954 8.288 10.122 28.776 17.484 30.297 9.31.698-1.035-2.067-6.245-1.154-9.223.954-3.556 5.24-3.988 7.846-6.383 2.82-2.647 6.013-8.17 9.299-9.585 6.47-1.907 7.079 16.809 19 4.494.662-.747 1.953-1.397 3.457-1.193 4.224.016 7.325 6.393 10.167 7.227 8.9-5.057 6.094-39.721-6.51-23.798-7.044 13.467-12.173-1.676-19.497 2.284-3.995 2.188-8.277 8.896-13.486 11.766-13.806 5.974-15.85-12.401-23.808-14.857-16.311-3.788-10.897-3.498-18.264-11.041-2.963-3.465-8.793-2.559-8.873-7.732-1.522-14.26 13.028-10.062 10.508-15.947-4.304-7.427-9.122-20.483-15.748-18.676-1.46 1.591 1.287 5.992.66 9.958-6.191 9.5-3.831 10.669-3.651 24.751-47.635-20.469 19.083-62.893-30.268-84.992 6.978-23.414 19.683-45.047 37.37-62.929 1.734 6.184 40.774.694 11.674 27.895-5.68 5.555-4.652 13.943-5.278 21.014-1.188 15.146 1.847 24.23 12.323 35.446 8.53 8.851 14.558 17.641 20.073 27.132 9.11 10.837 22.617 17.647 35.017 20.182-6.408 23.627 4.477 36.096 26.091 23.103 8.199-2.674 15.8.438 24.414-2.471 3.534-1.785 5.061-5.316 6.01-9.591 5.701-28.974-16.957-11.52-31.673-20.653 1.927-2.115 4.091-11.093 7.433-9.683 9.48 6.839 20.052 8.164 22.36-3.808 1.034-4.81-2.852-12.025-.923-17.925 2.195-6.961 9.924-8.391 8.394-15.043-3.942-8.091-12.796-1.069-15.176-4.256-8.056-3.45-3.408-33.272-8.379-36.817-3.001-3.717-9.795-8.17-14.523-15.976-1.722 6.348-1.985 11.874-1.781 16.417 5.134 62.649-50.74 70.304-53.102 48.298-1.427-17.026 9.14-21.885 18.661-31.394 22.177-23.091 1.314-28.928-21.186-44.672 1.558-3.856 13.88-16.29 20.489-20.831 1.18-8.143-6.295-17.106 1.891-21.25 14.978-10.038 23.209-.193 31.757.097 8.922-3.261 17.874-10.951 29.033-6.89 2.488 1.124 1.914.885 4.696.266 24.235-2.392 56.811 18.13 68.33 26.405-13.703 27.487-17.193 17.334-29.19 19.587-37.766 15.103-28.087 33.425-25.313 68.529 1.999 10.539-4.591 24.112-7.499 34.252-7.058 39.237 46.885 18.911 72.2 31.327 17.792 7.365 21.825 16.293 34.395 35.656z" fill="#FFBC80"/><path d="M238.192 45.652c.061 5.601-3.635 8.371-7.628 9.62l-.524.157c-6.09-2.088-11.84-2.202-16.741.935-2.088 1.337-4.404 6.195-5.61 13.098-.017-.009-.035-.026-.052-.035-1.669-1.048-3.373-2.726-5.033-5.278-4.474-6.868-8.851-10.24-13.115-11.07-.052-.01-.096-.019-.149-.027-3.285-.603-6.501.297-9.646 2.272-7.244 4.552-16.357-12.8-20.044-12.8-2.875 0-10.258 4.29-12.451 4.717-2.184.428-9.043 1.066-13.745.411-4.404-.612-8.86-2.123-10.791-5.697-3.993-7.4-3.705-12.513-11.097-13.369-7.392-.848-24.134 18.48-27.428 23.234-4.002 5.793-.225 7.83-2.88 12.364-.983 1.674-3.552 7.317-6.764 8.65-8.336 3.46-9.122 7.707-6.818 8.205 3.038.657 13.01-1.075 12.748 4.832-.446 9.91-10.354 9.91-14.408 15.763-4.054 5.854 16.167 29.438 11.886 32.592-4.282 3.154-20.07-8.566-24.087-13.261-8.77-10.254-2.947-29.219-3.367-32.994-.419-3.775-2.464-17.785 2.936-22.048C58.794 61.66 68.675 49.4 72.45 46.254c3.775-3.146 11.953-12.582 16.357-16.043 4.404-3.46 1.256-13.323 6.675-14.236 5.121-.863 7.154 2.657 11.858.326 6.676-3.312 17.46-5.39 25.173-3.915 3.535.677 3.456.044 10.818-1.678 7.361-1.72 19.939 2.787 22.036 4.884 2.097 2.097 6.92.63 10.8 2.831 3.88 2.202 17.622-6.623 24.734-2.927 1.704.891 4.483 2.123 7.786 3.644 10.529 4.858 26.309 12.792 28.913 22.535.383 1.47.575 2.78.592 3.977z" fill="#B56A65"/><path d="M254.289 70.441c-7.707-6.466-15.981-12.38-23.723-15.169l-.524.157c-6.09-2.088-11.84-2.202-16.741.935-2.089 1.337-4.404 6.195-5.61 13.098-.017-.009-.035-.026-.052-.035-1.512 8.965-1.18 21.312 3.862 33.894 5.557 13.884 2.892 21.53-.917 26.912-4.43 1.599-9.681-1.416-9.411-5.828 1.145-17.633-9.367-2.831-7.89 8.816 1.416 11.141 3.443 13.316 7.89 17.642 4.107 3.993 13.631 5.548 17.895 5.155 14.95-1.346 30.713 0 37.476 8.109 6.754 8.109 23.417 8.563 26.117-16.217 2.709-24.772-11.857-63.62-28.372-77.469zm14.837 71.667c-2.106 4.806-8.414 6.912-15.92 0-7.506-6.903-20.114-4.806-24.317-4.806-4.211 0-16.82-3.303-3.906-20.42 3.469-4.605 2.097-12.311-2.7-24.623-4.806-12.312-1.809-20.717 9.009-19.51 10.809 1.196 26.117 14.11 29.726 26.125 3.6 12.005 10.205 38.428 8.108 43.234z" fill="#FFBC80"/><path d="M269.125 142.108c-2.106 4.806-8.414 6.912-15.92 0-7.506-6.903-27.863 7.871-37.509 4.429s11.383-41.966 6.586-54.278c-4.806-12.311-1.809-20.717 9.009-19.511 10.809 1.197 26.117 14.111 29.726 26.126 3.599 12.005 10.205 38.428 8.108 43.234z" fill="#D98B45"/><path d="M96.168 182.074c0 .138-.014.275-.026.413-.287 3.078-3.828 4.354-9.658 5.217-6.08.901-10.36 7.207-12.837 8.333-.788.363-2.19.876-3.78 1.013v.013c-3.416.313-7.682-1.063-8.608-9.359-.188-1.714.325-3.553 1.526-5.242 2.09-2.953 6.269-5.443 12.438-6.018 6.255-.576 13.162.526 17.266 2.29l.012.013c2.253.962 3.666 2.138 3.666 3.327z" fill="#9E6533"/><path d="M164.3 197.951c-10.206.9-18.314-1.503-27.926 4.797-9.603 6.309-21.871-.76-20.718-15.011.367-4.413.979-8.231 1.861-11.447 2.42-8.72 9.935-15.955 24.841-9.612 2.403 1.232 4.902 2.342 7.681 2.752 7.96 1.188 23.872-2.691 24.474 6.012.604 8.695.001 21.601-10.213 22.509zM139.746 227.459c-.944 4.351-3.583 11.167-6.422 7.182-2.848-3.984-8.685-8.257-11.674-4.841-2.988 3.416-9.306 7.838-14.243-1.774-4.657-9.061-10.93 5.19-15.195 7.759-4.273 2.551-8.965 3.399-5.985 11.508 2.997 8.117-8.109 9.821-23.033 0-2.368-1.555-4.657-3.644-6.833-6.108 8.213-8.082 8.283-20.455 3.216-33.142 6.763 1.765 14.714 2.412 17.405 6.973 3.705 6.256 7.41 12.224 14.688 12.224 7.296 0 13.474-11.665 18.603-13.369 5.12-1.713 6.256 3.696 12.224 3.696 5.985 0 3.67-6.475 11.612-9.585 5.182-2.027 7.437 11.15 5.637 19.477z" fill="#B56A65"/><path d="M112.794 119.845c-5.835 3.278-18.267-4.39-26.99 1.405-8.722 5.795-7.282 14.955.36 22.453 7.641 7.498 19.89-2.142 28.516.709 9.129 3.016 18.331 15.045 24.921 15.734 8.468.885 7.918-20.738 9.263-32.164.639-5.426 23.413 4.699 25.716-1.526 1.137-3.072-8.237-10.923-9.98-14.841-1.743-3.917 11.175-20.364 9.873-26.202-2.571-11.524-23.549 28.062-40.538 28.754-1.578.064 7.008-15.533 2.057-25.37-4.951-9.837-15.582-2.612-11.677 8.614 3.908 11.227-7.438 20.14-11.521 22.434zM300.337 168.016a149.082 149.082 0 0 1-7.977 33.806c-13.482 7.777-18.926 23.269-36.611 32.705s-39.828 13.289-54.733 27.681c-14.906 14.392-41.772 31.456-60.657 27.052-18.885-4.404-7.497-27.052-18.192-32.085-10.695-5.033-22.419 2.388-31.456 6.501-14.557 6.625-23.762 5.67-18.828.419 2.827-3.009 36.569-21.395 44.118-22.802 7.549-1.407 47.981 1.412 58.676.783 10.695-.629 25.658-38.228 34.518-30.198 1.302 1.18 35.065 12.198 47.184 0 5.959-6.003 8.773-17.974 13.151-25.183 5.136-8.457 13.157-23.721 30.807-18.679z" fill="#D98B45"/><path opacity=".64" d="M210.841 68.983c-7.735 17.558-31.771 34.299-89.762 38.843-50.928 3.99-83.163 30.957-114.185 65.245-2.22.117-3.873-1.588-5.087-4.518a145.667 145.667 0 0 1-.478-3.383 145.592 145.592 0 0 1-1.084-12.121c0-.013-.013-.026 0-.052-.013-.465-.013-.942-.013-1.407-.207-25.755 6.571-52.258 18.9-74.1h.012c15.775-29.008 41.13-51.277 70.667-64.342C109.072 4.615 130.127.006 151.454.006c.065.013.116 0 .181 0 9.127.01 18.311.864 27.428 2.62 16.955 4.803 26.998 16.614 31.131 26.576 5.214 12.563 4.598 30.812.647 39.781z" fill="url(#a)"/><path opacity=".41" d="M301.068 153.605c-.635 38.476-17.576 79.096-46.99 106.34-12.173 11.495-28.176 22.724-46.629 30.143C121.792 325.376 18.141 273.69 1.895 175.63c43.425 46.381 126.416 48.949 178.153 12.281 49.893-38.751 65.577-126.75 31.871-174.858 53.116 23.621 90.871 78.645 89.149 140.552z" fill="url(#b)"/><path opacity=".45" d="M294.304 150.236c-1.708 131.395-154.58 199.69-248.569 108.685 136.101 77.534 281.763-98.815 199.952-219.392 30.621 28.02 48.719 68.604 48.617 110.707z" fill="url(#c)"/><path opacity=".38" d="M301.165 150.546c.033 84.664-69.963 153.201-155.391 150.628 73.956-1.602 135.187-55.966 146.595-126.774C306.674 85.57 241.226 7.951 157.584-.007c82.559 3.828 143.943 72.988 143.581 150.553z" fill="#FF4D9D"/><path opacity=".68" d="M126.15 82.214C109.926 82.21 77.603 71.06 66.162 71.06c-11.442 0-25.18 7.836-34.08 10.224-8.842 2.373-1.848-15.072 2.168-20.06 7.167-8.905 18.22-19.303 22.687-22.728 6.356-4.873 16.391-12.944 28.745-19.332 9.011-4.66 27.364-10.898 40.734-12.999 14.88-2.338 30.753-.954 39.382 8.196 11.98 12.703 8.373 34.24 4.987 43.571-4.988 13.748-21.125 24.288-44.635 24.282z" fill="url(#d)"/><path opacity=".75" d="M128.974 20.57c-2.891-5.007-12.887-4.648-22.326.802-9.439 5.45-14.749 13.927-11.858 18.934 2.891 5.007 12.887 4.648 22.326-.802 9.44-5.45 14.749-13.927 11.858-18.934z" fill="url(#e)"/><path opacity=".75" d="M115.388 59.411c-1.716-2.972-7.34-2.936-12.563.08-5.223 3.014-8.066 7.868-6.35 10.84 1.716 2.971 7.341 2.935 12.563-.08 5.223-3.014 8.066-7.868 6.35-10.84z" fill="url(#f)"/><defs><radialGradient id="a" cx="0" cy="0" r="1" gradientUnits="userSpaceOnUse" gradientTransform="matrix(350.131 0 0 350.132 307.999 278.644)"><stop offset=".65" stop-color="#FFC98C"/><stop offset="1" stop-color="#FFC480"/></radialGradient><radialGradient id="b" cx="0" cy="0" r="1" gradientUnits="userSpaceOnUse" gradientTransform="translate(8.139 2.772) scale(357.55)"><stop offset=".483" stop-color="#C94300"/><stop offset=".779" stop-color="#BE3800"/><stop offset="1" stop-color="#B32D00"/></radialGradient><radialGradient id="c" cx="0" cy="0" r="1" gradientUnits="userSpaceOnUse" gradientTransform="translate(47.882 9.404) scale(327.161)"><stop offset=".642" stop-color="#C30"/><stop offset=".736" stop-color="#C42D00"/><stop offset="1" stop-color="#B01D00"/></radialGradient><radialGradient id="d" cx="0" cy="0" r="1" gradientUnits="userSpaceOnUse" gradientTransform="translate(214.634 222.784) scale(237.438)"><stop offset=".655" stop-color="#FFE9A6"/><stop offset=".883" stop-color="#FFF1A6"/><stop offset="1" stop-color="#FFF8A6"/></radialGradient><radialGradient id="e" cx="0" cy="0" r="1" gradientUnits="userSpaceOnUse" gradientTransform="rotate(-3.311 1444.203 -2493.958) scale(83.3663 85.265)"><stop offset=".553" stop-color="#FFFCD4"/><stop offset=".659" stop-color="#FFFCDD"/><stop offset=".826" stop-color="#FFFDE6"/></radialGradient><radialGradient id="f" cx="0" cy="0" r="1" gradientUnits="userSpaceOnUse" gradientTransform="rotate(-1.672 3282.668 -4279.6) scale(46.8175 49.8492)"><stop offset=".553" stop-color="#FFFCD9"/><stop offset=".613" stop-color="#FFFCDD"/><stop offset=".826" stop-color="#FFFDE6"/></radialGradient></defs></svg>