<svg width="289" height="290" fill="none" xmlns="http://www.w3.org/2000/svg"><path d="M144.579 289.017c79.718 0 144.341-64.624 144.341-144.341C288.92 64.959 224.297.335 144.579.335 64.862.335.239 64.959.239 144.676c0 79.717 64.623 144.341 144.34 144.341z" fill="#fff"/><path opacity=".43" d="M288.922 144.676c0 79.718-64.625 144.343-144.342 144.343-24.428 0-47.438-6.07-67.607-16.781a135.758 135.758 0 0 0 22.61 1.888c74.418 0 134.743-60.325 134.743-134.743 0-71.471-55.637-129.938-125.967-134.461A144.463 144.463 0 0 1 144.58.334c79.718-.001 144.342 64.624 144.342 144.342z" fill="#EAE8DC"/><path d="M94.061 47.94zM95.17 48.564zM92.93 47.372c.169.08.334.162.5.245-.166-.083-.332-.166-.5-.245zM90.433 46.339c.198.07.394.146.59.22-.196-.074-.392-.15-.59-.22zM85.064 45.017zM87.61 45.502c.207.05.416.099.622.153-.206-.054-.414-.103-.623-.153zM88.879 45.839c.19.055.383.108.57.167-.187-.06-.38-.111-.57-.167zM99.607 51.824c.098.088.194.18.29.27-.097-.09-.192-.181-.29-.27zM106.922 62.528c.052.138.105.276.156.415-.051-.139-.104-.276-.156-.415zM106.437 61.327c.061.14.121.282.18.424-.059-.142-.12-.283-.18-.424zM107.367 63.798c.039.12.08.238.117.358-.037-.12-.079-.238-.117-.358zM105.903 60.17c.065.134.128.269.192.403a24.438 24.438 0 0 0-.192-.402zM107.82 65.341l.013.048c-.003-.016-.009-.032-.013-.048z" fill="#EDDD98"/><path d="M86.047 55.515c-15.204 0-27.524 12.32-27.524 27.524 0 1.953.205 3.855.59 5.69 5.02 6.715 13.032 11.06 22.06 11.06 15.203 0 27.526-12.323 27.526-27.525a27.64 27.64 0 0 0-.594-5.698c-5.018-6.707-13.03-11.051-22.058-11.051z" fill="#EAE8DC"/><path d="M81.172 44.74c.208 0 .415.009.621.014-.207-.005-.412-.016-.62-.016-15.201 0-27.526 12.324-27.526 27.526 0 .12.008.238.01.358-.002-.12-.007-.238-.007-.359C53.648 57.06 65.968 44.74 81.172 44.74zM103.062 55.578c.073.096.148.19.221.287l-.221-.287zM83.769 44.863c.228.021.454.049.68.075-.226-.026-.452-.053-.68-.075zM101.393 53.592a23.216 23.216 0 0 0 0 0zM105.324 59.051c.063.115.122.231.183.347-.061-.116-.121-.233-.183-.347zM104.697 57.964c.039.063.074.128.112.192-.038-.064-.074-.13-.112-.192zM100.518 52.686c.104.103.206.208.309.313-.102-.105-.204-.21-.309-.313zM54.981 80.737a25.518 25.518 0 0 1-.155-.49c.05.163.103.327.155.49zM54.616 79.505c-.042-.156-.088-.31-.127-.468.04.158.085.313.127.468zM55.841 83.047c-.046-.108-.088-.218-.133-.327.044.109.087.219.133.327zM54.222 77.883c-.032-.154-.057-.311-.087-.466.03.155.055.311.087.466zM53.999 76.65c-.03-.189-.056-.38-.082-.57.025.191.051.381.082.57zM58.378 87.696l-.103-.156c.034.052.068.105.103.156zM57.71 86.66l-.164-.271c.055.09.109.182.164.27zM53.83 75.392zM82.457 44.77c.23.01.458.029.686.045-.228-.015-.456-.034-.686-.045z" fill="#EDDD98"/><path d="M104.81 58.155zM105.507 59.397zM86.993 45.36zM81.793 44.754c.221.005.444.007.664.017-.22-.011-.442-.013-.664-.017zM102.512 54.879zM104.005 56.884zM108.111 66.573a27.507 27.507 0 0 0-.277-1.184c.1.389.188.782.272 1.177a.018.018 0 0 0 .005.007zM91.022 46.56c.252.097.504.193.753.297-.248-.104-.5-.2-.753-.297zM106.615 61.751zM57.547 86.39zM59.113 88.735a26.777 26.777 0 0 1 0 0zM95.62 48.835c.22.135.435.276.651.417a23.191 23.191 0 0 0-.65-.417zM94.542 48.203zM88.233 45.656c.217.058.432.121.647.184-.216-.063-.43-.127-.647-.184zM55.709 82.72zM89.451 46.007zM53.768 74.8zM53.916 76.08zM96.665 49.511zM83.144 44.816c.208.015.417.028.624.047-.206-.02-.415-.032-.624-.047zM55.224 81.454zM101.694 53.924zM98.827 51.149zM54.826 80.246a26.114 26.114 0 0 1-.21-.74c.068.247.136.495.21.74zM53.678 73.52z" fill="#E0CA6C"/><path d="M86.047 55.515c9.029 0 17.041 4.343 22.06 11.051a27.157 27.157 0 0 0-.272-1.177l-.013-.048a27.69 27.69 0 0 0-.336-1.185c-.037-.12-.078-.239-.117-.358a20.735 20.735 0 0 0-.445-1.27 26.113 26.113 0 0 0-.828-1.955c-.063-.134-.126-.269-.192-.402a29.613 29.613 0 0 0-.396-.774c-.061-.115-.121-.232-.183-.347-.166-.302-.338-.6-.515-.895-.038-.063-.073-.129-.112-.192a27.484 27.484 0 0 0-.693-1.079l-.062-.089a26.506 26.506 0 0 0-.662-.93c-.072-.097-.147-.191-.221-.287a26.76 26.76 0 0 0-.548-.699c-.09-.111-.183-.22-.275-.329-.178-.211-.358-.42-.542-.625a31.745 31.745 0 0 0-.868-.926c-.103-.105-.205-.21-.309-.313a27.82 27.82 0 0 0-.621-.592c-.098-.09-.193-.182-.29-.27-.255-.23-.516-.455-.78-.676l-.165-.141a28.398 28.398 0 0 0-.986-.774c-.085-.064-.172-.124-.258-.187a24.97 24.97 0 0 0-.754-.535c-.13-.089-.263-.174-.394-.26a23.191 23.191 0 0 0-1.1-.687 27.741 27.741 0 0 0-1.743-.948c-.166-.082-.33-.165-.499-.245-.215-.102-.435-.199-.654-.296-.168-.073-.332-.149-.5-.22-.249-.104-.502-.2-.754-.297-.195-.075-.391-.151-.59-.221a27.57 27.57 0 0 0-.982-.332c-.188-.06-.38-.112-.57-.167-.216-.063-.43-.126-.647-.184-.206-.055-.415-.104-.623-.153-.206-.049-.41-.098-.617-.142a27.745 27.745 0 0 0-1.261-.239 24.58 24.58 0 0 0-1.283-.182 25.307 25.307 0 0 0-.681-.075c-.208-.019-.416-.033-.625-.047-.228-.016-.456-.035-.686-.045-.22-.01-.442-.012-.663-.017-.207-.005-.413-.014-.621-.014-15.205 0-27.525 12.32-27.525 27.524 0 .12.007.239.008.359.003.3.008.599.022.897.01.192.023.383.035.574.017.236.032.472.055.707a28.927 28.927 0 0 0 .148 1.281c.026.19.053.381.082.57.041.257.09.511.137.766.03.155.055.312.087.466.081.388.17.773.267 1.155.04.157.085.312.127.468a26.114 26.114 0 0 0 .366 1.231c.078.241.159.48.242.718l.163.454c.102.273.21.543.32.812.046.109.087.219.134.327.162.38.33.756.51 1.127.023.049.049.096.072.144.159.325.322.647.493.965.051.095.105.189.157.284a25.714 25.714 0 0 0 .638 1.093c.182.297.37.59.563.88l.104.156c.236.35.482.695.733 1.033a27.748 27.748 0 0 1-.589-5.69c.003-15.206 12.324-27.526 27.527-27.526z" fill="#D1CDB8"/><path d="M250.775 171.525c.134.08.269.159.402.241a38.827 38.827 0 0 0-.402-.241zM254.742 174.441c.088.079.173.162.26.243-.086-.082-.172-.164-.26-.243zM260.851 182.939c.055.126.109.253.162.38l-.162-.38zM249.782 170.968zM256.339 176.022zM255.557 175.211c.094.093.186.188.279.282-.093-.095-.185-.189-.279-.282zM252.785 172.852c.076.056.155.11.231.167-.075-.058-.154-.111-.231-.167zM215.195 201.347zM214.152 197.747c-.029-.138-.052-.279-.078-.418.027.139.05.279.078.418zM217.272 205.596zM245.149 169.088c.17.049.341.096.51.149-.169-.052-.34-.099-.51-.149zM241.734 168.352zM240.577 168.215c.204.019.407.043.609.067-.203-.023-.405-.048-.609-.067zM213.952 196.645c-.027-.169-.05-.34-.074-.51.024.17.047.34.074.51zM244.014 168.787c.186.045.373.088.557.137-.184-.049-.371-.093-.557-.137zM213.697 194.358c-.011-.171-.024-.342-.032-.514.008.172.021.342.032.514zM217.869 206.524l-.092-.139c.03.045.06.093.092.139zM261.684 185.149c.035.107.072.213.105.321-.034-.108-.071-.213-.105-.321z" fill="#EDDD98"/><path d="M242.615 177.742c-13.598 0-24.616 11.018-24.616 24.616 0 1.747.183 3.448.527 5.089 4.489 6.005 11.656 9.893 19.73 9.893 13.596 0 24.619-11.022 24.619-24.619 0-1.747-.185-3.451-.531-5.096-4.489-5.999-11.655-9.883-19.729-9.883z" fill="#EAE8DC"/><path d="m262.088 186.53.012.043c-.003-.015-.008-.029-.012-.043zM238.255 168.105c.187 0 .372.008.558.012-.186-.004-.37-.014-.557-.014-7.223 0-13.72 3.111-18.223 8.066 4.502-4.954 10.998-8.064 18.222-8.064zM220.034 176.169a24.527 24.527 0 0 0-6.395 16.553c0 .107.007.213.008.32-.001-.107-.007-.213-.007-.32a24.526 24.526 0 0 1 6.394-16.553z" fill="#EDDD98"/><path d="M241.187 168.283zM249.216 170.678zM247.067 169.734zM248.185 170.194c.197.087.393.174.587.266-.194-.093-.391-.179-.587-.266zM244.57 168.924c.194.051.386.108.579.164-.192-.056-.384-.113-.579-.164zM243.46 168.659zM216.056 203.373zM218.526 207.452l-.001-.005a24.908 24.908 0 0 1 .001.005zM217.126 205.356zM213.879 196.134zM214.074 197.328zM214.692 199.86c-.066-.219-.128-.44-.188-.661.061.221.122.442.188.661zM213.746 194.989zM255.003 174.683zM258.029 178.055zM255.835 175.493zM262.349 187.632a24.69 24.69 0 0 0-.248-1.059c.089.348.169.699.243 1.053l.005.006zM260.546 182.267zM250.212 171.202zM260.021 181.215zM251.178 171.767z" fill="#E0CA6C"/><path d="M242.616 177.742c8.074 0 15.24 3.884 19.729 9.884a24.387 24.387 0 0 0-.243-1.053l-.012-.043c-.092-.357-.193-.71-.301-1.06-.033-.108-.07-.214-.105-.321a24.41 24.41 0 0 0-.258-.763c-.045-.125-.093-.249-.14-.374a21.677 21.677 0 0 0-.435-1.073c-.098-.226-.199-.45-.304-.672-.057-.121-.113-.242-.172-.362a24.864 24.864 0 0 0-.353-.69c-.055-.104-.108-.209-.165-.312a23.463 23.463 0 0 0-.461-.802c-.034-.056-.065-.113-.099-.169a25.539 25.539 0 0 0-.619-.966c-.018-.026-.037-.051-.054-.077a24.58 24.58 0 0 0-.593-.833c-.065-.087-.132-.171-.197-.257-.161-.211-.324-.42-.491-.625a22.516 22.516 0 0 0-.246-.294 23.429 23.429 0 0 0-1.259-1.386 24.684 24.684 0 0 0-.279-.282 27.567 27.567 0 0 0-.553-.528c-.087-.081-.172-.163-.26-.243a23.551 23.551 0 0 0-.697-.604c-.05-.042-.098-.085-.148-.126a24.585 24.585 0 0 0-.881-.692c-.076-.057-.154-.11-.231-.167a22.8 22.8 0 0 0-.674-.479c-.116-.079-.234-.154-.351-.231a20.334 20.334 0 0 0-.985-.615 28.339 28.339 0 0 0-.993-.558 27.359 27.359 0 0 0-1.011-.508c-.194-.092-.391-.179-.587-.266-.148-.065-.296-.133-.445-.196a24.592 24.592 0 0 0-.671-.264 25.107 25.107 0 0 0-1.409-.496c-.169-.053-.34-.1-.51-.149-.193-.056-.385-.113-.579-.164a21.53 21.53 0 0 0-.557-.137 24.614 24.614 0 0 0-.552-.128 28.411 28.411 0 0 0-1.726-.307c-.182-.026-.365-.048-.548-.07-.203-.024-.405-.048-.609-.067-.185-.017-.372-.029-.558-.042-.205-.015-.409-.031-.615-.041-.196-.009-.394-.01-.591-.015-.186-.004-.371-.012-.558-.012-7.224 0-13.72 3.11-18.222 8.064a24.525 24.525 0 0 0-6.394 16.552c0 .107.005.214.007.32.003.268.008.536.02.802.008.172.021.343.032.514a23.187 23.187 0 0 0 .181 1.778c.024.17.047.341.074.51.037.229.079.457.122.684.026.139.049.28.078.418.072.347.152.691.238 1.033.036.141.076.28.114.42a24.917 24.917 0 0 0 .326 1.1 26.87 26.87 0 0 0 .363 1.048c.091.243.187.484.285.724.04.098.078.197.12.295.145.34.296.676.455 1.007l.065.128c.142.292.29.58.443.865.045.084.093.167.139.251.138.249.279.495.425.738l.145.24c.163.266.332.529.505.788l.092.139c.212.313.431.621.657.924a24.782 24.782 0 0 1-.527-5.089c-.003-13.599 11.015-24.618 24.613-24.618z" fill="#D1CDB8"/><path d="M54.706 185.902a13.992 13.992 0 0 0 0 0zM64.195 190.759zM59.496 187.179zM67.003 195.913zM66.127 193.677zM42.224 208.247zM39.886 203.273zM65.53 192.591zM60.581 187.749z" fill="#EDDD98"/><path d="M56.016 191.351c-7.762 0-14.051 6.289-14.051 14.051 0 .997.105 1.968.3 2.905a14.031 14.031 0 0 0 11.263 5.647c7.76 0 14.053-6.292 14.053-14.053 0-.997-.106-1.97-.303-2.909a14.04 14.04 0 0 0-11.262-5.641z" fill="#EAE8DC"/><path d="M63.366 189.871zM66.62 194.797zM57.269 186.356zM61.575 188.385zM43.59 189.965c.025-.025.052-.047.076-.072-.024.025-.05.048-.075.072zM42.518 191.176z" fill="#EDDD98"/><path d="M42.267 208.31v-.003l-.043-.06c.015.021.028.043.043.063zM54.706 185.902l.12.009-.12-.009zM59.36 187.117l.136.061-.136-.061zM43.666 189.893zM39.903 203.35l-.018-.077c.006.025.01.051.018.077zM40.651 205.529l-.049-.108c.016.037.034.072.05.108zM57.156 186.324l.112.032-.112-.032zM66.544 194.605l.076.192-.076-.192zM66.966 195.784l.037.129-.037-.129zM67.28 196.996l-.02-.077.017.074.003.003z" fill="#E0CA6C"/><path d="M56.017 191.351c4.609 0 8.699 2.217 11.26 5.642-.004-.025-.011-.049-.016-.074-.074-.34-.16-.676-.258-1.006l-.037-.129a13.876 13.876 0 0 0-.422-1.179 13.338 13.338 0 0 0-.418-.928c-.03-.06-.06-.118-.092-.177a13.863 13.863 0 0 0-.505-.909l-.053-.083a13.88 13.88 0 0 0-.56-.832c-.03-.041-.057-.083-.087-.124a14.31 14.31 0 0 0-.771-.95 14.45 14.45 0 0 0-.692-.73l-.135-.129a14.31 14.31 0 0 0-.78-.697l-.05-.04a14.222 14.222 0 0 0-.825-.621c-.04-.027-.077-.056-.116-.083-.285-.195-.58-.378-.879-.553l-.159-.091c-.301-.17-.61-.331-.925-.479l-.136-.061a14.022 14.022 0 0 0-2.092-.761l-.112-.032a13.945 13.945 0 0 0-1.228-.267 13.792 13.792 0 0 0-1.103-.146l-.12-.009a13.993 13.993 0 0 0-11.039 3.991c-.025.024-.051.047-.075.072-.382.382-.738.787-1.074 1.21a13.988 13.988 0 0 0-2.997 9.799l.013.169c.03.346.072.688.127 1.026.007.045.016.089.024.134.056.327.123.651.2.97l.019.077a14.324 14.324 0 0 0 .346 1.15c.108.312.224.62.353.921l.049.108c.12.274.249.543.386.807.03.058.058.116.089.173.147.275.303.544.467.807.043.069.088.137.132.205.159.247.325.489.498.725.016.02.029.04.044.06a14.172 14.172 0 0 1-.301-2.905c-.001-7.761 6.288-14.051 14.05-14.051z" fill="#D1CDB8"/><path d="M241.504 88.652c0 1.786.187 3.525.539 5.204 4.59 6.141 11.919 10.116 20.175 10.116 7.214 0 13.715-3.039 18.304-7.902a143.818 143.818 0 0 0-16.498-32.449c-12.657 1.324-22.52 12.022-22.52 25.031z" fill="#EAE8DC"/><path d="M257.012 54.168c-.001 0-.001-.001 0 0zM241.371 92.911l-.095-.144c.032.048.062.097.095.144zM237.93 85.417c-.038-.141-.079-.281-.115-.423.036.142.076.282.115.423zM238.636 87.618c-.051-.137-.1-.276-.149-.414.049.138.098.276.149.414zM238.264 86.545a23.067 23.067 0 0 1-.141-.446c.045.15.093.298.141.446zM237.57 83.936c-.029-.14-.052-.281-.079-.421.027.14.05.28.079.42zM240.761 91.964l-.15-.247c.049.082.099.165.15.247zM239.051 88.66c-.042-.099-.08-.199-.121-.298.041.098.079.2.121.297zM239.583 89.82c-.021-.043-.045-.086-.066-.13l.066.13zM240.178 90.963c-.047-.086-.096-.17-.143-.258.047.087.095.172.143.258zM243.386 62.1a25.074 25.074 0 0 0-6.342 16.698c0 .108.007.214.008.322-.001-.108-.007-.214-.007-.323a25.077 25.077 0 0 1 6.341-16.697z" fill="#EDDD98"/><path d="M240.035 90.705zM239.517 89.69zM240.612 91.717zM237.492 83.514zM241.277 92.768zM242.043 93.861l-.001-.005a25.17 25.17 0 0 1 .001.005zM238.124 86.099zM237.291 82.29zM237.814 84.994zM238.488 87.203z" fill="#E0CA6C"/><path d="M243.386 62.1a25.073 25.073 0 0 0-6.34 16.697c0 .108.005.215.007.323.003.276.009.552.021.825.008.176.021.35.032.524a27.406 27.406 0 0 0 .104 1.187c.024.212.051.423.08.633.024.173.047.346.075.518.038.237.082.472.126.706.027.14.05.282.079.421.074.356.156.708.244 1.058.036.142.077.282.115.423.062.228.125.456.194.682.045.15.093.298.141.446a24.213 24.213 0 0 0 .372 1.072c.094.25.192.498.293.744.041.1.079.2.121.297.148.348.303.692.466 1.031.021.044.044.087.066.131.145.298.296.593.453.884.047.087.095.172.143.258.14.254.284.505.433.753.05.083.099.165.15.247.167.271.338.54.515.803l.095.144c.217.32.44.635.672.944a25.391 25.391 0 0 1-.539-5.204c0-13.009 9.863-23.707 22.521-25.03a144.54 144.54 0 0 0-7.012-9.453 25.09 25.09 0 0 0-12.006 6.27 26.264 26.264 0 0 0-1.621 1.666z" fill="#D1CDB8"/><path d="M120.513 244.668a27.643 27.643 0 0 0-17.99 8.73c-.083.089-.159.181-.24.271.081-.09.159-.181.242-.27a27.637 27.637 0 0 1 17.988-8.731zM150.517 273.728c-.007.144-.014.288-.023.433.009-.144.015-.289.023-.433zM150.418 275.051c-.012.122-.021.244-.035.366.013-.122.023-.244.035-.366zM149.76 265.724c.038.154.077.308.112.462-.035-.155-.075-.308-.112-.462zM150.451 269.912c.011.133.019.266.028.399-.009-.133-.016-.266-.028-.399zM150.231 276.555c-.006.036-.009.073-.015.109.006-.036.01-.072.015-.109zM150.53 271.172c.006.148.009.297.013.445-.004-.148-.007-.296-.013-.445zM150.316 268.661c.01.072.016.144.024.216l-.024-.216zM150.552 272.443zM147.943 284.073c-.053.114-.104.229-.159.342.055-.113.106-.227.159-.342z" fill="#EDDD98"/><path d="M137.919 263.315c-11.208-10.447-28.757-9.831-39.204 1.377a27.975 27.975 0 0 0-3.477 4.6 27.874 27.874 0 0 0 1.159 11.475c15.07 5.336 31.285 8.249 48.183 8.249.131 0 .26-.005.391-.005a27.484 27.484 0 0 0 1.616-2.392c.91-8.392-2.013-17.1-8.668-23.304z" fill="#EAE8DC"/><path d="M148.489 282.829c-.057.138-.112.276-.171.414.059-.137.114-.276.171-.414zM141.729 252.022c.153.143.299.291.448.437-.149-.146-.293-.295-.446-.437-5.574-5.196-12.718-7.652-19.777-7.433a27.646 27.646 0 0 1 19.775 7.433zM145.205 255.937zM98.262 259.404c.076-.144.149-.29.228-.433-.078.143-.152.288-.228.433zM97.686 260.561a33.087 33.087 0 0 0 0 0zM145.952 257.009c.119.179.239.358.353.54-.115-.182-.235-.361-.353-.54zM144.408 254.9zM97.18 261.706c.062-.15.127-.299.192-.449-.065.149-.13.298-.192.449zM146.655 258.129c.103.172.208.343.307.516-.098-.174-.204-.344-.307-.516zM99.77 256.874c.106-.16.219-.318.331-.477a18.06 18.06 0 0 0-.332.477zM100.508 255.829zM147.453 259.556zM99.086 257.936c.083-.136.172-.27.257-.405-.085.136-.174.269-.257.405zM143.56 253.897c.153.172.3.346.448.521-.148-.174-.296-.349-.448-.521zM148.091 260.869c.075.166.145.335.216.502-.071-.168-.141-.336-.216-.502zM95.627 266.804zM149.031 263.239zM148.588 262.042c.069.173.134.347.199.522-.065-.174-.13-.349-.199-.522z" fill="#EDDD98"/><path d="M77.29 149.483a6.753 6.753 0 1 0 9.88 9.209 6.753 6.753 0 0 0-9.88-9.209zM181.393 238.032a7.852 7.852 0 0 0 .45 12.807c2.741 1.826 6.446 1.696 9.052-.318a7.852 7.852 0 0 0-.45-12.807c-2.74-1.826-6.446-1.696-9.052.318zM239.403 131.274a8.427 8.427 0 0 0-.419-11.911 8.428 8.428 0 1 0 .419 11.911zM132.848 66.607a5.758 5.758 0 1 0 7.852-8.425 5.758 5.758 0 0 0-7.852 8.425zM25.12 105.762a7.788 7.788 0 1 0 11.395 10.62 7.788 7.788 0 0 0-11.394-10.62zM58.482 241.307a4.528 4.528 0 0 0 .225 6.401 4.528 4.528 0 1 0-.225-6.401zM233.713 53.093a4.53 4.53 0 1 0-6.626-6.176 4.53 4.53 0 0 0 6.626 6.176zM129.728 21.259a5.123 5.123 0 1 0 0-10.246 5.123 5.123 0 0 0 0 10.246z" fill="#EAE8DC"/><path d="m95.235 269.297.003-.005a28.232 28.232 0 0 1-.003.005zM100.869 255.351zM99.344 257.531zM96.86 262.52zM100.1 256.397zM146.585 286.629c.212-.351.414-.705.609-1.063a25.88 25.88 0 0 1-.609 1.054.014.014 0 0 1 0 .009zM97.908 260.093zM98.49 258.97zM95.692 266.493zM147.74 260.132c.12.245.24.49.352.737-.113-.248-.233-.493-.352-.737zM150.548 272.895zM150.383 275.417zM146.306 257.548c.121.192.235.386.351.58-.116-.193-.231-.388-.351-.58zM149.567 264.969zM148.309 261.371c.096.223.191.446.281.671-.09-.225-.186-.448-.281-.671zM150.121 267.413zM145.594 256.478zM143.128 253.43c.144.155.29.309.43.467-.14-.157-.285-.312-.43-.467zM147.784 284.416zM101.686 254.345zM150.216 276.665zM149.597 279.55zM149.936 278.152zM149.222 280.821zM144.828 255.434z" fill="#E0CA6C"/><path d="M137.918 263.315c6.655 6.204 9.578 14.911 8.668 23.305.21-.349.415-.699.609-1.054l.025-.047c.197-.364.385-.732.565-1.103.055-.113.106-.228.159-.342.129-.275.255-.552.375-.83.059-.137.114-.276.171-.414a27.625 27.625 0 0 0 .467-1.22c.093-.262.182-.525.266-.789.046-.143.092-.286.136-.43.085-.279.163-.56.239-.841.034-.128.071-.254.103-.382.086-.337.163-.677.236-1.016.015-.072.034-.143.048-.215.087-.423.165-.846.232-1.272.006-.036.01-.073.015-.109.058-.379.109-.758.151-1.138.014-.122.023-.244.035-.366.029-.297.056-.593.075-.89.01-.144.016-.288.023-.433a25.855 25.855 0 0 0 .026-2.11c-.004-.148-.007-.297-.013-.445-.012-.287-.03-.574-.051-.861-.01-.133-.017-.266-.028-.399-.03-.345-.068-.69-.111-1.035l-.024-.216c-.055-.417-.12-.833-.194-1.248-.019-.105-.042-.209-.062-.314-.058-.305-.119-.61-.187-.913-.035-.155-.074-.308-.112-.462a22.601 22.601 0 0 0-.339-1.263 29.647 29.647 0 0 0-.389-1.222c-.078-.226-.16-.451-.244-.675-.065-.174-.13-.348-.199-.522-.089-.225-.185-.448-.281-.671-.072-.167-.141-.336-.216-.502a24.866 24.866 0 0 0-.352-.737 25.722 25.722 0 0 0-.778-1.487c-.099-.174-.204-.344-.307-.516-.116-.194-.23-.389-.351-.58-.114-.181-.234-.361-.353-.54a30.828 30.828 0 0 0-.358-.531 25.47 25.47 0 0 0-.389-.541 26.276 26.276 0 0 0-.797-1.036c-.131-.162-.266-.322-.401-.482-.148-.175-.295-.349-.448-.521-.14-.158-.286-.312-.43-.467-.157-.168-.311-.338-.473-.503-.155-.159-.318-.313-.478-.469-.149-.146-.295-.294-.448-.437-5.575-5.196-12.717-7.653-19.775-7.434a27.639 27.639 0 0 0-19.429 8.811c-.083.089-.16.18-.242.27a27.01 27.01 0 0 0-.598.676c-.126.148-.247.298-.369.448a28.658 28.658 0 0 0-.807 1.035c-.139.188-.275.378-.409.568-.11.158-.223.316-.33.477-.147.217-.287.438-.426.658-.085.135-.174.269-.257.405-.207.341-.406.686-.597 1.034-.079.143-.152.289-.228.433a23.59 23.59 0 0 0-.576 1.158 26.98 26.98 0 0 0-.826 1.96c-.042.112-.087.223-.128.336-.142.391-.275.784-.398 1.179-.017.054-.03.108-.047.162-.106.347-.205.696-.297 1.046-.028.106-.053.212-.08.318a27.83 27.83 0 0 0-.469 2.276l-.032.189c-.065.421-.122.843-.168 1.265a27.975 27.975 0 0 1 3.476-4.6c10.444-11.21 27.993-11.826 39.201-1.379z" fill="#D1CDB8"/><path d="M181.646 144.018z" fill="#EDDD98"/><path d="M167.679 144.115c-14.086-13.13-36.14-12.355-49.27 1.731a35.1 35.1 0 0 0-4.368 5.781c-1.148 10.556 2.522 21.503 10.887 29.3 14.085 13.129 36.146 12.354 49.274-1.731a34.982 34.982 0 0 0 4.37-5.792c1.144-10.549-2.529-21.493-10.893-29.289z" fill="#EAE8DC"/><path d="m179.363 172.028-.026.049a.46.46 0 0 0 .026-.049zM180.964 168.64c-.071.174-.141.348-.215.52.074-.173.144-.347.215-.52zM181.55 167.109zM177.775 136.188c.15.226.301.451.445.68-.145-.228-.296-.454-.445-.68zM175.835 133.539zM178.658 137.595c.129.217.262.432.387.651-.124-.219-.257-.435-.387-.651zM182.135 145.555zM183.26 150.833c.012.091.02.183.031.274-.012-.091-.019-.183-.031-.274zM182.056 165.577c-.055.179-.112.358-.169.536.057-.178.115-.356.169-.536zM174.768 132.278c.193.216.379.437.565.657-.187-.22-.372-.44-.565-.657zM182.938 148.871c.025.131.055.262.078.394-.023-.132-.052-.262-.078-.394zM183.153 160.758c-.007.044-.012.089-.018.133.007-.044.012-.088.018-.133zM183.388 158.869c-.015.151-.027.303-.044.454.017-.152.029-.303.044-.454zM172.468 129.922c.194.181.378.369.568.553-.189-.184-.371-.373-.565-.554-14.085-13.129-36.146-12.354-49.274 1.731-.102.11-.196.224-.297.335.101-.111.197-.224.299-.334 13.129-14.086 35.183-14.861 49.269-1.731zM117.842 139.197c.095-.18.187-.362.285-.541-.099.179-.19.36-.285.541zM117.117 140.653a31.404 31.404 0 0 0 0 0zM120.665 134.705zM114.252 150.036c.012-.078.027-.157.04-.235l-.04.235zM119.735 136.018c.135-.2.274-.398.413-.596-.138.199-.278.396-.413.596zM118.878 137.354c.103-.169.213-.335.319-.503-.106.169-.216.334-.319.503zM173.632 131.059c.204.209.399.423.597.636-.197-.212-.393-.427-.597-.636zM121.682 133.403c.153-.187.304-.376.461-.561-.158.186-.309.374-.461.561z" fill="#EDDD98"/><path d="M183.344 159.322zM182.783 162.762zM115.416 145.021zM183.135 160.892zM119.197 136.852zM182.318 146.193zM183.017 149.265zM183.551 156.154zM182.702 147.722zM180.737 141.673c.12.28.24.559.352.842a38.401 38.401 0 0 0-.352-.842zM178.219 136.868c.151.24.294.483.439.726-.144-.242-.288-.486-.439-.726zM120.149 135.423zM176.363 134.211zM175.332 132.935zM177.325 135.523zM173.036 130.475c.199.195.402.387.596.585-.194-.199-.397-.391-.596-.585zM179.045 138.246zM181.887 166.114zM114.611 148.109zM114.983 146.54zM180.078 170.633zM178.572 173.414c.266-.441.521-.887.766-1.337-.243.447-.501.888-.765 1.326l-.001.011zM114.037 151.633l.004-.006c.058-.532.129-1.062.212-1.591a34.39 34.39 0 0 0-.216 1.597z" fill="#E0CA6C"/><path d="M167.679 144.115c8.364 7.796 12.037 18.74 10.894 29.288.264-.438.522-.879.765-1.326l.026-.049c.25-.461.487-.926.715-1.395.069-.143.133-.288.2-.432.162-.346.321-.692.47-1.042.074-.173.144-.347.215-.52a32.938 32.938 0 0 0 .921-2.526c.057-.179.115-.357.169-.536.107-.352.206-.706.301-1.06.043-.16.089-.319.129-.479.108-.424.205-.85.297-1.277.019-.091.042-.181.061-.271a34.79 34.79 0 0 0 .291-1.599c.007-.044.012-.089.018-.133.073-.478.137-.956.191-1.436.017-.151.029-.303.044-.454.037-.375.07-.75.095-1.125.012-.18.02-.36.029-.541a33.413 33.413 0 0 0 .033-2.653c-.005-.187-.009-.375-.016-.562a35.409 35.409 0 0 0-.064-1.081c-.012-.167-.021-.334-.036-.501a33.241 33.241 0 0 0-.139-1.299c-.011-.091-.019-.183-.031-.274a34.725 34.725 0 0 0-.244-1.568c-.023-.132-.053-.262-.078-.394-.073-.384-.15-.767-.236-1.149-.044-.194-.093-.386-.14-.579a33.873 33.873 0 0 0-.243-.95c-.058-.213-.121-.426-.183-.638a32.98 32.98 0 0 0-.796-2.382 32.88 32.88 0 0 0-.251-.658 34.056 34.056 0 0 0-.352-.842c-.09-.211-.178-.423-.273-.633-.14-.309-.29-.615-.439-.921a33.472 33.472 0 0 0-.98-1.873c-.124-.219-.257-.434-.387-.651-.145-.243-.288-.486-.439-.726-.144-.229-.295-.454-.445-.68-.148-.223-.296-.446-.449-.666a31.51 31.51 0 0 0-.489-.681 37.05 37.05 0 0 0-1.002-1.303 31.537 31.537 0 0 0-.503-.604c-.186-.22-.372-.44-.565-.657-.175-.197-.357-.389-.537-.583-.198-.213-.393-.427-.597-.636-.194-.198-.397-.39-.596-.585-.189-.184-.373-.372-.568-.553-14.086-13.13-36.14-12.355-49.27 1.731-.102.11-.198.223-.299.334-.257.283-.512.567-.758.855-.157.185-.308.373-.461.561-.19.233-.379.467-.563.704a36.126 36.126 0 0 0-.969 1.315c-.139.198-.279.396-.413.596-.185.275-.362.554-.538.833-.106.168-.216.333-.319.503-.261.43-.511.864-.751 1.301-.098.179-.19.361-.285.541a37.54 37.54 0 0 0-.446.87 36.203 36.203 0 0 0-.915 2.024c-.141.341-.275.685-.405 1.029-.052.139-.108.277-.159.417-.178.492-.346.987-.501 1.484-.02.065-.038.131-.057.196-.134.439-.26.88-.376 1.323-.035.132-.066.264-.099.395a33.83 33.83 0 0 0-.591 2.866l-.04.235a35.51 35.51 0 0 0-.212 1.591 35.198 35.198 0 0 1 4.368-5.781c13.133-14.083 35.187-14.858 49.273-1.728z" fill="#D1CDB8"/><path d="M199.596 49.677c.03.117.066.233.093.351-.027-.117-.064-.233-.093-.351zM199.216 48.45c.053.145.109.29.156.436-.048-.147-.104-.291-.156-.436zM199.898 51.193c.007.05.008.103.014.154-.007-.051-.008-.103-.014-.154zM199.997 52.372c.005.13.002.261.003.391-.001-.13.002-.26-.003-.39zM198.17 46.236z" fill="#EDDD98"/><path d="M194.051 48.674c-5.286-4.927-13.562-4.636-18.489.65a13.152 13.152 0 0 0-1.621 2.143c-.44 3.97.921 8.089 4.067 11.022 5.285 4.927 13.564 4.636 18.491-.65a13.08 13.08 0 0 0 1.64-2.178 13.064 13.064 0 0 0-4.088-10.987z" fill="#EAE8DC"/><path d="M196.719 44.244c.104.117.198.24.297.36-.099-.12-.192-.242-.297-.36zM195.849 43.347zM198.701 58.628c.045-.092.08-.186.122-.28-.042.094-.077.189-.122.28zM199.877 54.743zM185.72 39.905a13.015 13.015 0 0 0-8.36 4.092c-.02.021-.036.044-.055.065.02-.021.036-.044.056-.065a13.017 13.017 0 0 1 8.359-4.092zM174.216 49.854c.022-.093.04-.187.064-.28-.024.094-.041.187-.064.28zM173.982 51.088c.017-.122.034-.243.054-.364-.021.12-.037.243-.054.364zM174.628 48.457c.026-.073.059-.143.087-.215-.028.072-.061.143-.087.215z" fill="#EDDD98"/><path d="M199.957 54.004zM174.28 49.575zM173.921 51.495l.019-.03c.014-.125.023-.251.041-.377-.018.136-.045.27-.06.407zM199.175 57.517zM199.543 56.373zM198.14 59.669c.205-.34.391-.688.563-1.04-.17.35-.358.694-.562 1.032l-.001.008zM176.572 44.931zM185.719 39.905c.25-.023.5-.053.751-.062-.252.009-.501.039-.751.062zM198.423 46.683zM199.688 50.03zM175.27 47.001z" fill="#E0CA6C"/><path d="M199.175 57.517c.05-.134.092-.27.138-.405.083-.245.162-.491.23-.74.04-.147.075-.296.11-.445a12.947 12.947 0 0 0 .303-1.924c.012-.15.026-.297.034-.446.013-.265.013-.53.01-.794-.002-.131.002-.261-.003-.391a12.99 12.99 0 0 0-.085-1.025c-.006-.051-.007-.103-.014-.154a13.14 13.14 0 0 0-.21-1.164c-.027-.118-.063-.234-.093-.351a13.66 13.66 0 0 0-.223-.791c-.047-.147-.103-.291-.156-.436a13.124 13.124 0 0 0-.265-.681 13.824 13.824 0 0 0-.78-1.533 12.839 12.839 0 0 0-.386-.604c-.095-.141-.188-.283-.289-.421a13.123 13.123 0 0 0-.479-.606c-.099-.12-.193-.243-.297-.361-.24-.271-.496-.532-.763-.787-.037-.036-.07-.074-.108-.11a13.036 13.036 0 0 0-9.379-3.505c-.251.009-.501.039-.751.062a13.02 13.02 0 0 0-8.359 4.092c-.02.02-.036.044-.056.065-.259.28-.501.57-.731.868-.087.112-.166.228-.248.343a12.906 12.906 0 0 0-.685 1.047c-.131.224-.254.45-.37.68-.064.126-.129.25-.189.378-.133.285-.254.573-.365.865-.028.072-.061.143-.087.215-.133.368-.248.74-.347 1.117-.024.093-.042.187-.064.28-.069.288-.131.578-.18.87-.021.12-.037.243-.054.364-.018.126-.027.252-.041.378.458-.753.996-1.472 1.621-2.143 4.927-5.286 13.203-5.577 18.489-.65a13.062 13.062 0 0 1 4.088 10.986c.203-.338.392-.681.562-1.032.045-.092.08-.186.122-.28.124-.273.245-.55.35-.831z" fill="#D1CDB8"/></svg>