<svg width="301" height="301" fill="none" xmlns="http://www.w3.org/2000/svg"><path d="M300.253 151.197c-.047 12.724-1.799 25.546-5.249 38.432l-.012.012c-21.142 77.641-98.745 123.586-175.453 107.584C27.082 277.702-21.286 181.314 9.245 98.895c.037-.074.06-.148.086-.222C39.526 16.644 131.343-20.536 208.433 12.064c.012 0 .025 0 .037.012 55.316 22.716 92.495 79.503 91.783 139.121z" fill="#2B5BCC"/><path d="M233.961 274.817c-38.533 25.89-88.511 33.591-135.435 16.38-34.781-12.757-61.991-37.036-78.899-66.946 3.688 1.87 7.361 3.584 10.78 5.899 5.833 3.946 11.07 10.018 16.543 13.375 6.228 3.816 14.53 8.99 17.603 13.056 4.759 6.303 10.235 4.226 20.789 9.511 9.354 4.682 13.559 3.088 18.546 4.917 4.986 1.829 10.116 5.694 12.39 5.919 2.274.225 11.211.851 16.405 2.756 5.194 1.905 10.353 2.619 14.855 1.913 4.501-.706 10.734 1.58 16.475 3.922 5.741 2.341 7.015-.491 13.387-.511 6.371-.02 23.324 1.955 32.009-.516 8.685-2.471 9.938-4.604 16.033-7.083 1.946-.793 5.11-1.708 8.519-2.592z" fill="#212AA6"/><path d="M243.929 267.506a146.268 146.268 0 0 1-9.968 7.31c-3.408.884-6.572 1.799-8.519 2.591-6.095 2.479-7.348 4.612-16.033 7.083-8.685 2.471-25.638.496-32.009.516-6.371.02-7.646 2.853-13.387.511-5.741-2.341-11.974-4.627-16.475-3.922-4.502.706-9.661-.008-14.855-1.913-5.194-1.905-14.13-2.531-16.405-2.756-2.274-.225-7.404-4.091-12.39-5.919-4.986-1.829-9.191-.235-18.546-4.917-10.554-5.285-16.03-3.208-20.79-9.511-3.071-4.066-11.374-9.24-17.602-13.056-5.473-3.356-10.71-9.428-16.543-13.375-3.42-2.315-7.093-4.029-10.78-5.899a149.917 149.917 0 0 1-10.992-24.191c5.072 6.077 10.594 11.245 12.633 12.595 3.982 2.639 9.043 11.331 10.705 11.94 1.662.61 3.387-.879 6.683 3.63s18.122 16.782 28.302 20.516c10.18 3.734 15.173 2.973 15.796 3.201.623.229-9.155-5.243-14.155-8.963-5-3.719 12.94 2.153 15.555 5.234 2.609 3.078 18.204 13.041 30.642 16.189 12.438 3.148 13.013.294 22.362 3.724 9.349 3.429 16.578 7.495 23.199 6.152 6.621-1.343 23.033 4.677 27.306 4.594 4.273-.083 5.977-.872 11.199-2.256 5.222-1.385 15.727.819 24.28-1.937 4.856-1.562 13.316-4.241 20.787-7.171z" fill="#8AC8FF"/><path d="M295.412 188.061c-.136.531-.272 1.05-.408 1.568l-.012.012a151.105 151.105 0 0 1-3.94 12.375 153.407 153.407 0 0 1-6.805 15.734c-2.383-2.421-3.322-2.705-4.705-1.63-1.469 1.124-2.989 8.126-8.768 9.867-3.384 1.013-16.29 3.1-26.849-1.149-10.559-4.248-21.056 3.52-31.739 6.175-6.014 1.482-13.893 5.854-25.947 2.297-9.348-2.766-23.156-13.14-28.194-15.165-11.51-4.631-37.173-11.498-42.693-12.35-5.533-.84-1.544 8.842-7.286-5.335-5.496-13.56-13.832-3.149-23.996-9.657-10.176-6.496-35.975-23.538-49.82-27.725-13.843-4.187-23.068-3.989-27.687-8.595-1.791-1.791-4.038-5.162-6.372-8.793a149.37 149.37 0 0 1 6.595-39.47 164.746 164.746 0 0 1 2.458-7.323l51.239 52.19 129.82 61.971 84.028-15.314 21.081-9.683z" fill="#4519D4"/><path d="M300.253 151.197a147.343 147.343 0 0 1-1.618 21.13c-.457 3.001-1 6.014-1.642 9.003-6.508 4.162-15.573 9.497-18.216 9.052-5.73-.963-24.453.259-33.616 0-6.681-.198-26.527-9.596-33.122-11.436-10.633-2.939-31.269-3.754-35.666-8.719-4.248-4.779-14.264-3.421-21.093-7.645-9.139-5.644-11.819-11.448-20.599-10.682-10.497.902-33.455-11.189-43.99-15.758-9.04-3.915-15.339-9.534-23.687-13.313-5.805-2.63-13.857-2.544-19.155-5.94-4.618-2.964-11.312-14.943-14.004-23.156-4.483-13.609-6.212-18.562 5.52-11.572 18.92 11.288 27.552 28.404 32.06 29.195 4.495.778.346-6.619 11.967.704 11.621 7.323 22.254 11.782 27.664 12.72 5.397.939 14.054 7.669 17.561 9.225 3.52 1.556 7.83-.889 12.51.222 4.693 1.099 26.219 10.868 32.344 13.832 6.125 2.952 23.872 10.324 30.084 7.99 6.2-2.346 14.931-3.075 19.797 1.988 4.878 5.051 33.962-6.533 36.308-4.532 1.877 1.605 28.651-4.495 40.531-7.546.049 1.743.074 3.484.062 5.238z" fill="#212AA6"/><path d="m294.993 189.638-.004.011c-4.73 6.79-8.391 7.562-11.699 9.511-3.611 2.133-3.112 4.201-5.005 5.078-1.893.877-4.211.341-13.26.165-9.049-.176-16.238 3.522-18.681 9.804-2.415 6.21-6.215 4.949-14.027 3.969-7.812-.98-19.214-6.617-26.454-4.872-7.24 1.744-16.243 3.04-31.183.074-14.94-2.966-24.157-16.218-38.617-19.636-14.46-3.418-36.284-13.494-42.129-14.694-5.845-1.201-15.148-1.476-18.335-5.637-3.188-4.161-8.875-8.429-13.086-8.088-4.211.341-11.93-6.89-15.881-8.968-3.952-2.078-5.291-.998-10.454-5.772s-8.123-12.984-12.841-11.257c-4.719 1.726 6.712 6.547 2.123 7.064-4.589.516-10.599-13.944-12.64-14.378-2.04-.434-3.334 2.234-2.964-3.915.258-4.273-1.763-13.938-3.066-21.88a147.773 147.773 0 0 1 2.543-7.54 151.305 151.305 0 0 1 7.088-16.309c1.098 4.842-2.558 15.436 6.401 24.085 3.866 3.73 6.031 10.255 13.8 14.821 12.291 7.222 31.627 12.586 40.862 17.381 12.192 6.331-11.524 1.43-24.645-3.068s5.031 6.847 18.757 9.695c13.726 2.848 27.898 4.038 37.911 9.296 10.014 5.257 17.741 15.667 28.05 18.833 10.31 3.166 17.426 4.329 14.543 6.192-2.885 1.868 5.184 3.859 12.465 3.714 3.641-.072 11.19 7.853 20.781 10.194 9.591 2.341 22.741-2.192 27.962-2.881 12.754-1.684 21.54-.394 30.618-1.778 9.084-1.382 21.2-3.581 27.072-3.313 5.133.233 18.707-2.914 27.629-13.207a149.786 149.786 0 0 1-3.634 17.306z" fill="#B0DAFF"/><path d="M300.262 151.193c-3.167 3.546-6.84 7.6-8.343 9.02-2.881 2.714-8.052 3.961-10.314 1.56-2.262-2.401-3.093-2.706-4.432-1.626-1.339 1.08-4.746 2.659-7.821 2.474-3.075-.185-4.46-.693-7.138 1.468-2.678 2.16-7.341 2.021-16.482-1.331-9.141-3.353-17.008-2.467-26.536.376-9.528 2.843-37.25-5.544-47.222-9.202-9.972-3.658-32.317-8.711-37.156-9.228-4.838-.518 1.09-2.114 10.49-1.181 9.4.933-3.795-4.22-16.704-3.298-12.909.922-12.068-2.227-20.775-7.62-8.707-5.393-27.155-15.931-39.196-19.09-12.04-3.159-23.804-6.217-27.7-10.16-3.896-3.943-10.516-7.314-14.367-9.669-3.85-2.355-2.233-12.76-2.732-14.83-.29-1.193-2.396-1.697-4.43-2.077a149.15 149.15 0 0 1 14.103-20.813c.898 6.851 3.865 16.542 7.28 17.795 4.71 1.727 8.579-2.825 10.24-2.215 1.663.61-1.974 6.19-.384 9.601 1.585 3.41 10.014 8.701 13.293 8.332 3.278-.369 6.344-6.158 8.985-3.933 2.64 2.225 14.108 12.088 8.632 14.166-5.476 2.077-7.23-1.709-7.692 1.264-.462 2.973 15.124 9.318 18.559 6.807 3.435-2.511.475-9.005 5.224-7.388 4.749 1.618 13.235 5.044 9.246 7.352-3.989 2.308 11.043 8.45 19.861 10.113 8.818 1.663 13.263-2.743 22.416 1.432 9.154 4.176 15.924 6.28 21.883 8.026 5.959 1.747 7.356 5.651 13.573 4.978 6.218-.672 4.695-5.945 10.881-.533s17.737 12.477 25.327 11.49c7.59-.987 10.86-7.331 18.413-3.932 7.553 3.399 5.152 5.661 16.62 6.096 11.468.435 12.013 4.092 14.719.999 2.706-3.093-1.883-12.004 4.71-7.701 6.592 4.304 4.634 10.499 9.03 7.083 4.396-3.416 4.092-12.013 7.36-8.928 3.268 3.084.884 7.016 5.073 1.592a99.786 99.786 0 0 1 2.725-3.361c.547 5.321.809 10.694.781 16.092z" fill="#B0DAFF"/><path d="M290.383 96.907c-2.228 2.35-1.979 6.638-5.907 7.473-3.368.715-11.417-4.041-14.48-4.112-4.455-.102-11.736-.066-18.895 1-5.224.778-20.456-5.414-25.564-6.224-8.229-1.305-24.341.89-27.63-3.253-3.173-3.997-11.053-1.239-16.269-4.32-6.971-4.118-8.896-9.32-15.787-7.32-8.232 2.39-25.823-5.938-33.927-8.818-6.949-2.469-11.701-6.974-18.12-9.41-4.459-1.692-10.757-.445-14.797-2.95-3.526-2.187-17.19-.146-19.258-7.538-1.482-5.296-9.02-9.179-10.88-9.845-2.606-.934-.235-4.49-2.606-5.824-1.59-.894-6.34-3.256-7.311-4.553a150.885 150.885 0 0 1 14.81-9.98c.472 4.265 3.67 9.452 12.636 14.495 14.459 8.132 27.714 14.408 31.211 14.512 3.497.104.471-6.427 9.342-1.052s17.049 8.14 21.246 8.264c4.197.125 10.762 5.361 13.462 6.352 2.701.991 6.15-1.987 9.779-1.599 3.629.388 20.173 6.692 24.875 8.652 4.702 1.96 18.358 6.498 23.283 3.354 4.924-3.144 11.773-5.11 15.43-.94 3.656 4.17 11.426 11.262 12.271 6.386.845-4.875 5.104.222 6.877 1.815 1.773 1.593 5.672-.04 6.039-2.97.367-2.929 12.148-3.558 10.797-.518-1.351 3.04-5.485.817-5.887 2.555-.402 1.738 8.719 5.791 10.651 4.378 1.932-1.413-.283-6.939.098-7.978.381-1.039 4.777 5.13 8.604 6.495a149.642 149.642 0 0 1 5.907 13.473z" fill="#4519D4"/><path d="M275.872 76.938c-.381 1.04 1.835 6.565-.098 7.978-1.932 1.412-11.053-2.64-10.651-4.378.402-1.738 4.536.485 5.887-2.555s-10.429-2.41-10.797.518c-.367 2.93-4.266 4.563-6.039 2.97-1.773-1.593-6.031-6.69-6.877-1.815-.845 4.875-8.615-2.217-12.271-6.386-3.656-4.169-10.505-2.203-15.43.94-4.924 3.144-18.581-1.394-23.283-3.354-4.702-1.96-21.246-8.264-24.875-8.652-3.629-.388-7.078 2.59-9.779 1.6-2.701-.99-9.266-6.228-13.462-6.353-4.197-.125-12.375-2.889-21.246-8.264-8.871-5.375-5.845 1.156-9.342 1.052-3.497-.104-16.752-6.38-31.211-14.512-8.966-5.043-12.164-10.23-12.636-14.495a150.514 150.514 0 0 1 26.731-12.456c2.967 2.981 6.517 6.321 16.008 11.577 19.005 10.52 64.711 27.268 90.103 31.082 21.503 3.225 47.423 7.894 65.393 11.29a151.156 151.156 0 0 1 12.478 20.71c-3.826-1.367-8.222-7.536-8.603-6.497z" fill="#8AC8FF"/><path d="M271.998 62.724c-5.521 5.348-17.525-2.95-28.979-.959-8.712 1.516-18.095-6.24-26.541-3.866-3.501.984-7.617-1.216-11.231-1.758-4.559-.685-11.212-4.705-16.87-6.298-4.802-1.352-8.496-.172-13.71-1.977-6.031-2.088-18.401-3.303-24.479-5.729-6.063-2.42-5.835-6.052-11.406-8.524-4.396-1.95-6.07-6.764-10.276-6.888-1.854-.055-4.694 3.161-6.817 2.075-2.033-1.04-6.054-6.332-7.701-7.244-4.152-2.299-9.935-2.389-10.941-5.946-1.001-3.536-2.315-4.994-2.553-6.834 2.653-.932 5.331-1.79 8.029-2.575.945 1.885 3.345 3.178 7.672 2.271 0 0-2.833 5.796-.832 6.766 2.001.97 3.823-1.426 6.184-.796 2.361.63 10.671 3.678 12.867 2.834 2.195-.845-.291 2.722.879 3.387s7.694.23 10.263.936c2.569.707 5.942-2.063 7.41.361 1.468 2.424-2.029 2.32-1.448 3.947.582 1.628 9.411 1.331 13.961 3.707 4.55 2.376 8.615 2.217 10.624.597 2.008-1.62 3.188.947 4.773 3.053 1.584 2.107 5.957 3.252 8.448 3.1 2.492-.154 7.54-.424 11.935.127 4.395.551 6.205 2.04 5.568 3.456-.637 1.416 4.432 3.982 6.991 1.503 2.559-2.479 3.144 1.39 5.581 1.812 2.438.423 3.086-1.343 5.492.13 2.406 1.471 11.055 8.414 14.082 7.875 3.026-.54-2.447-7.144-1.935-7.899.513-.755 13.508 3.658 18.802 6.896 3.518 2.155 5.222.881 5.965-.215a147.557 147.557 0 0 1 10.193 12.675z" fill="#5583ED"/><path d="m261.806 50.042-.002.006c-.742 1.096-2.447 2.37-5.965.215-5.294-3.238-18.289-7.65-18.802-6.896-.513.755 4.961 7.36 1.935 7.9-3.026.54-11.675-6.405-14.082-7.877-2.406-1.472-3.054.294-5.492-.129s-3.022-4.29-5.581-1.812c-2.559 2.48-7.628-.087-6.991-1.503.637-1.416-1.174-2.905-5.568-3.456-4.394-.55-9.443-.28-11.935-.128-2.492.153-6.864-.992-8.448-3.099-1.584-2.107-2.764-4.674-4.773-3.053-2.009 1.62-6.074 1.78-10.624-.597-4.55-2.376-13.379-2.079-13.961-3.707-.582-1.627 2.916-1.523 1.448-3.947-1.468-2.424-4.841.346-7.41-.36-2.569-.708-9.093-.272-10.263-.937s1.316-4.23-.879-3.387c-2.196.845-10.506-2.203-12.867-2.834-2.362-.63-4.183 1.766-6.184.796-2.001-.97.832-6.766.832-6.766-4.327.907-6.727-.385-7.672-2.27 29.628-8.592 62.151-8.154 93.332 3.283 23.828 8.74 44.105 22.895 59.952 40.558z" fill="#212AA6"/><path opacity=".54" d="M210.207 68.982c-7.709 17.5-31.488 38.301-89.459 38.712-28.271.2-55.023 12.257-69.485 26.984-16.731 17.037-30.933 34.155-38.443 38.046-5.441 2.818-10.853-3.67-11.994-8.024-.527-4.001-.678-11.813-.665-11.839-.013-.463-.001-1.191-.001-1.654-.138-17.138 2.738-34.46 8.426-50.628 2.83-8.047 6.478-15.886 10.56-23.12h.014C34.882 48.55 60.15 26.356 89.588 13.336 108.784 4.832 129.768.238 151.023.238c.064.013.116 0 .18 0 9.096.01 18.249.861 27.335 2.61 16.898 4.788 26.906 16.56 31.026 26.487 5.195 12.521 4.581 30.71.643 39.647z" fill="url(#a)"/><path opacity=".32" d="M300.226 150.269c.033 84.378-69.727 152.684-154.867 150.119 73.706-1.596 134.73-55.776 146.1-126.345C305.716 85.513 240.488 8.157 157.13.225 239.41 4.04 300.587 72.966 300.226 150.27z" fill="#FF3BB4"/><path opacity=".6" d="M125.803 82.168c-16.169-.004-48.383-11.116-59.786-11.116-11.403 0-25.095 7.81-33.966 10.19-8.811 2.365-1.195-13.13 2.29-18.93 5.866-9.765 18.029-20.3 22.482-23.714 6.334-4.856 16.336-12.9 28.648-19.267 8.981-4.645 27.272-10.86 40.597-12.955 14.83-2.33 29.365.46 39.249 8.168 8.165 6.368 12.824 14.205 12.824 25.082s-9.032 26.726-16.017 32.1c-7.773 5.98-22.334 10.446-36.321 10.442z" fill="url(#b)"/><path opacity=".79" d="M131.861 21.981c-2.285-5.29-12.221-6.086-22.194-1.778-9.973 4.308-16.205 12.088-13.92 17.377 2.285 5.29 12.221 6.086 22.194 1.778 9.972-4.307 16.205-12.087 13.92-17.377z" fill="url(#c)"/><path opacity=".79" d="M108.886 57.74c-1.71-2.962-7.316-2.926-12.521.08-5.205 3.004-8.04 7.841-6.33 10.803 1.71 2.962 7.317 2.926 12.522-.079 5.205-3.005 8.039-7.842 6.329-10.804z" fill="url(#d)"/><defs><radialGradient id="a" cx="0" cy="0" r="1" gradientUnits="userSpaceOnUse" gradientTransform="translate(264.549 331.121) scale(363.758)"><stop offset=".678" stop-color="#66FFD8"/><stop offset="1" stop-color="#5EFFDE"/></radialGradient><radialGradient id="b" cx="0" cy="0" r="1" gradientUnits="userSpaceOnUse" gradientTransform="translate(219.8 221.9) scale(236.631)"><stop offset=".655" stop-color="#BDFFD5"/><stop offset="1" stop-color="#C2FFD5"/></radialGradient><radialGradient id="c" cx="0" cy="0" r="1" gradientUnits="userSpaceOnUse" gradientTransform="translate(135.26 75.222) scale(60.8412)"><stop offset=".514" stop-color="#D1FFF8"/><stop offset=".743" stop-color="#D5FFF7"/><stop offset=".987" stop-color="#E2FFF5"/><stop offset="1" stop-color="#E3FFF5"/></radialGradient><radialGradient id="d" cx="0" cy="0" r="1" gradientUnits="userSpaceOnUse" gradientTransform="translate(114.057 90.838) scale(37.9461)"><stop offset=".608" stop-color="#D1FFF8"/><stop offset=".999" stop-color="#E3FFF3"/></radialGradient></defs></svg>