<svg width="611" height="428" fill="none" xmlns="http://www.w3.org/2000/svg"><path d="M438.327 188.483c-3.809 159.62-207.887 204.995-282.475 71.018.013 0 .027-.014.041-.014-24.708-44.901-23.62-103.223 3.073-147.369 0-.013 0-.013.013-.013 21.051-36.124 59.193-63.982 103.407-71.532v-.014c15.791-2.824 34.652-3.213 50.675-.31 16.689 2.828 32.525 8.54 46.966 16.566h.014c17.363 9.644 33.031 22.82 45.789 38.751v.014c5.54 6.923 11.089 15.243 15.511 23.578 8.78 16.459 14.515 34.826 16.349 53.829a133.83 133.83 0 0 1 .637 15.496z" fill="#CF6444"/><path d="M396.462 84.9c-20.181 8.947-53.314 31.685-81.746 59.689-14.237 14.023-24.625 24.959-42.112 40.646-17.487 15.687-40.862 22.596-58.398 26.929-22.55 5.572-42.628 9.906-63.01 37.849a140.593 140.593 0 0 1-6.7-17.785v-.013c28.762-22.484 60.882-56.499 102.176-63.655 5.737-1.507 16.051-5.405 21.764-9.095 7.76-5.367 14.554-12.501 20.641-19.755 22.719-26.348 18.343-31.65 47.9-40.015 1.514-.625 7.173-3.678 9.745-4.873 14.438-6.649 24.363-12.669 40.781-18.529a145.09 145.09 0 0 1 8.959 8.607zM313.047 40.248c-1.854.92-5.245-.255-7.837 1.949-8.69 7.39-16.992 11.522-23.537 16.404-7.044 5.254-9.935 31.036-15.511 36.978-7.282 7.783-1.426-14.076-15.992 0-10.634 10.276-27.699 23.903-42.236 29.182-19.666 7.173-42.473 9.407-60.501 11.329.027-.081.068-.176.095-.257 3.073-8.216 6.876-16.161 11.437-23.713 0-.013 0-.013.013-.013.081-.149.176-.284.257-.433 4.824.055 14.661-9.885 20.519-14.339 5.441-4.136 11.669-1.3 18.908-1.754 10.714-.673 28.096-7.04 37.614-13.751 10.892-7.681 29.56-24.688 34.203-34.108 4.023-8.163-17.494-1.817-16.626-5.414 19.105-4.503 39.771-5.408 59.194-2.06z" fill="#BD738F"/><path d="M437.38 203.331c-.013.122-.013.23-.041.352a161.219 161.219 0 0 1-3.722 21.385c-3.438 14.144-8.662 27.083-15.308 38.764-11.261-.623-24.539.311-34.88 18.746-15.484 27.584-71.208 9.65-113.342 54.884a149.32 149.32 0 0 1-23.091-4.507c-8.378-2.342-16.621-5.427-24.593-9.326-.244-.108-.487-.23-.731-.352a.201.201 0 0 1-.041-.027c.704-.392 7.065-24.81 45.18-17.46 22.265 4.291 68.257-15.849 93.215-29.682 18.624-10.327 28.627-39.671 44.408-43.881 19.329-5.156 29.345-26.596 32.946-28.896z" fill="#FFF9E6"/><path d="M436.12 161.589c-6.267 1.597-14.387.785-20.694 6.646-12.696 12.791-30.684 12.858-41.661 28.072-34.717 54.695-69.517 63.818-113.857 74.727-19.084 5.387-45.044 22.103-65.523 34.758-10.8-8.715-21.081-19.759-29.532-31.916 74.799-51.906 120.413-49.761 174.56-106.615 17.785-18.164 53.233-38.71 74.104-61.151a144.487 144.487 0 0 1 7.769 12.953c.027.027.054.054.054.095 6.945 12.984 12.096 27.563 14.78 42.431z" fill="#FFAD94"/><path d="M422.112 120.632c-7.282 12.317-21.033 16.337-32.294 22.698-12.75 7.201-18.935 16.662-29.493 25.717-14.144 12.723-34.04 18.651-37.099 23.903-3.059 5.251-2.028 9.606.108 10.381 2.136.775 9.15-9.263 10.476-8.297 1.326.967 2.545 3.17-.88 8.933s-21.588 10.422-31.915 11.221c-10.327.799-21.264 4.142-29.33 8.351-17.257 10.666 31.307 5.143 22.252 11.613-4.264 3.587-15.714 7.498-23.592 8.879-84.391 7.065-59.418 28.87-101.418 35.435-4.615-6.05-8.92-12.588-12.885-19.626 17.798-4.642 39.901-10.598 61.963-27.435 26.082-19.883 59.06-36.031 76.784-43.028 22.698-8.96 38.778-39.657 42.676-35.759 3.898 3.898 15.084-25.479 32.159-33.134 14.13-6.334 28.59-20.113 36.206-24.904 5.861 7.336 11.058 15.2 15.457 23.483.027.027.054.054.054.095.27.486.514.973.771 1.474z" fill="#FFF9E6"/><path d="M387.502 76.291c-12.038 6.067-25.908 14.687-39.981 21.141a147.983 147.983 0 0 1-6.199 2.707.471.471 0 0 1-.123.054c-18.891 4.367-26.865 12.713-36.084 27.611-2.991 4.25-6.997 9.123-11.287 13.927-.027.027-.054.054-.068.081-7.382 8.177-15.512 16.23-21.671 20.803a2.382 2.382 0 0 1-.391.244c-6.839 4.092-13.041 5.471-22.766 8.202-.027.013-.041.027-.068.027-.054.013-.108.027-.162.027-17.362 3.224-35.258 11.797-49.607 21.805-18.105 12.421-35.003 27.763-54.6 39.305v-.013c-3.884-12.804-5.996-26.163-6.348-39.617 11.965-5.468 13.007-12.872 16.147-16.77 3.221-6.01 18.232-1.773 18.76 1.827-12.222 2.003-26.623 13.995-10.205 17.406 38.602-4.155 37.37-30.9 53.111-35.827 19.777-3.143 34.083-7.644 44.998-12.938 18.928-9.18 27.662-20.742 37.06-31.733 10.833-12.67 22.4-22.537 51.628-29.162 9.975-2.341 25.351-12.533 29.317-16.16a147.63 147.63 0 0 1 8.539 7.053z" fill="#FFAD94"/><path d="M437.691 172.972v.014c-15.879 17.089-44.172 32.669-60.853 46.276-2.206 1.868-4.142 3.722-5.766 5.576-.081.108-.176.203-.257.311-13.446 13.192-30.899 31.606-48.157 43.258a151.277 151.277 0 0 1-12.236 5.103h-.013c-8.608 3.154-16.472 5.089-23.835 6.389-31.575 5.605-54.287-.193-86.624 30.183-2.303-1.67-5.367-4.069-8.202-6.483 17.388-15.441 32.488-31.607 55.36-37.405 12.065-4.448 27.672.075 40.458-3.788 45.356-19.384 44.706-73.253 110.821-95.293 13.258-5.499 25.268-10.323 34.527-19.316a138.546 138.546 0 0 1 4.777 25.175z" fill="#BD738F"/><path d="M360.026 56.814c-7.214 3.803-17.907 7.282-28.396 10.557-11.017 3.451-16.945 12.831-23.13 19.815-11.789 13.332-23.89 27.49-37.926 37.871-10.233 7.566-34.432 7.092-39.819 12.966-5.387 5.874-19.003 7.553-32.484 9.772-9.933 1.623-24.536 13.138-37.682 15.355-9.335 1.575-8.121-8.236-20.275-.521 1.557-9.028 3.925-17.934 7.119-26.542.027-.081.068-.176.095-.257 4.255-2.709 9.482.319 13.386-.731 7.683-2.066 13.458-11.754 20.732-10.863 10.101 1.238 18.452.887 26.288.522 6.713-.311 12.534-.704 17.299-2.328 24.972-8.446 54.398-20.749 54.398-43.325 0-4.598 4.179-7.059 9.447-11.378 5.449-4.466 10.014-14.01 16.429-23.773 1.017-1.548 2.153-2.937 3.019-4.412 1.516.203 3.018.433 4.521.704h.014c16.689 2.83 32.523 8.542 46.965 16.568z" fill="#FFF9E6"/><path opacity=".6" d="M348.235 106.969c-7.709 17.499-31.488 38.302-89.459 38.712-28.271.2-55.023 12.257-69.486 26.984-16.731 17.037-30.933 34.155-38.443 38.046-5.441 2.819-10.853-3.67-11.994-8.024-.527-4.001-.678-11.813-.665-11.839-.013-.463-.001-1.191-.001-1.654-.138-17.138 2.738-34.46 8.426-50.628 2.831-8.047 6.478-15.886 10.561-23.12h.013c15.722-28.909 40.991-51.103 70.428-64.124 19.196-8.504 40.18-13.098 61.435-13.098.064.013.116 0 .18 0 9.096.01 18.249.861 27.335 2.61 16.898 4.788 26.906 16.56 31.026 26.487 5.196 12.522 4.582 30.71.644 39.648z" fill="url(#a)"/><path opacity=".29" d="M438.254 188.256c.033 84.378-69.727 152.684-154.867 150.119 73.706-1.596 134.731-55.777 146.1-126.346 14.257-88.531-50.971-165.887-134.33-173.819 82.281 3.817 143.458 72.743 143.097 150.046z" fill="#594AFF"/><path opacity=".54" d="M263.829 120.155c-16.169-.004-48.383-11.116-59.786-11.116-11.403 0-25.095 7.809-33.966 10.19-8.812 2.365-1.195-13.13 2.29-18.931 5.866-9.764 18.029-20.299 22.482-23.713 6.334-4.856 16.336-12.9 28.648-19.267 8.981-4.645 27.272-10.86 40.597-12.955 14.83-2.33 29.365.46 39.249 8.168 8.165 6.368 12.824 14.205 12.824 25.082s-9.032 26.726-16.017 32.099c-7.772 5.979-22.334 10.447-36.321 10.443z" fill="url(#b)"/><path opacity=".75" d="M269.887 59.968c-2.285-5.29-12.222-6.086-22.194-1.778-9.973 4.308-16.205 12.088-13.92 17.377 2.285 5.29 12.221 6.086 22.194 1.778 9.973-4.308 16.205-12.088 13.92-17.377z" fill="url(#c)"/><path opacity=".75" d="M246.914 95.727c-1.71-2.962-7.316-2.926-12.521.08-5.205 3.004-8.039 7.841-6.329 10.803 1.71 2.962 7.316 2.926 12.521-.079 5.205-3.005 8.039-7.843 6.329-10.804z" fill="url(#d)"/><path d="M600.854 16.142c-25.324-37.98-178.229 19.531-341.515 128.46C96.053 253.518-15.772 372.599 9.565 410.564c25.325 37.979 178.229-19.531 341.515-128.447C514.366 173.202 626.192 54.121 600.854 16.142zm-255.35 257.625c-149.859 99.969-290.19 152.742-313.43 117.89-23.254-34.853 79.382-144.134 229.241-244.103C411.174 47.584 551.506-5.188 574.759 29.664c23.24 34.852-79.395 144.147-229.255 244.103z" fill="#FFE5CE"/><path d="M574.759 29.663c-23.253-34.853-163.584 17.92-313.443 117.89C111.457 247.523 8.821 356.804 32.074 391.656c23.24 34.853 163.57-17.92 313.43-117.89 149.859-99.955 252.494-209.25 229.255-244.103zM343.527 270.802C198.5 367.55 62.69 418.631 40.181 384.902c-22.495-33.729 76.838-139.505 221.865-236.253C407.087 51.915 542.897.82 565.392 34.563c22.509 33.729-76.824 139.491-221.865 236.239z" fill="#72447A"/><path d="M606.674 13.137C580.213-26.533 423.965 31.22 257.702 142.14 91.425 253.045-21.917 375.117 4.544 414.788c26.461 39.657 182.709-18.096 348.972-129.002C519.793 174.867 633.135 52.808 606.674 13.137zM351.08 282.118C187.794 391.034 34.89 448.544 9.565 410.565-15.773 372.6 96.053 253.519 259.34 144.603 422.625 35.674 575.53-21.837 600.854 16.143c25.338 37.978-86.488 157.059-249.774 265.975z" fill="#BD739D"/><path d="M565.393 34.563C542.898.82 407.088 51.915 262.047 148.65 117.02 245.397 17.687 351.173 40.182 384.902c22.509 33.729 158.319-17.352 303.346-114.1 145.041-96.748 244.374-202.51 221.865-236.239zM338.859 263.791C205.039 353.068 79.718 400.197 58.956 369.08c-20.763-31.13 70.896-128.731 204.717-217.994C397.494 61.823 522.814 14.681 543.576 45.811c20.762 31.116-70.897 128.717-204.717 217.98z" fill="#FFE5CE"/><path d="M543.574 45.811c-20.763-31.13-146.083 16.012-279.903 105.275C129.851 240.349 38.192 337.95 58.954 369.08c20.763 31.117 146.083-16.012 279.903-105.289 133.821-89.263 225.48-186.864 204.717-217.98zM332.117 253.708C214.525 332.143 104.404 373.574 86.159 346.22c-18.245-27.354 62.302-113.112 179.893-191.561C383.658 76.21 493.778 34.793 512.023 62.147c18.245 27.354-62.3 113.112-179.906 191.561z" fill="#BD739D"/><path d="M512.024 62.147c-18.245-27.354-128.366 14.063-245.971 92.512C148.461 233.108 67.915 318.865 86.16 346.22c18.245 27.354 128.366-14.076 245.958-92.512C449.723 175.259 530.269 89.501 512.024 62.147zM325.39 243.611c-101.377 67.621-196.298 103.326-212.026 79.748-15.728-23.578 53.693-97.506 155.07-165.127 101.377-67.62 196.311-103.326 212.039-79.748 15.729 23.578-53.706 97.506-155.083 165.127z" fill="#72447A"/><defs><radialGradient id="a" cx="0" cy="0" r="1" gradientUnits="userSpaceOnUse" gradientTransform="translate(350.366 354.217) scale(325.309)"><stop offset=".624" stop-color="#FCD"/><stop offset="1" stop-color="#FFC9DB"/></radialGradient><radialGradient id="b" cx="0" cy="0" r="1" gradientUnits="userSpaceOnUse" gradientTransform="translate(357.827 259.886) scale(236.631)"><stop offset=".655" stop-color="#FFC4DF"/><stop offset=".79" stop-color="#FFCCE7"/><stop offset="1" stop-color="#FFE3FD"/></radialGradient><radialGradient id="c" cx="0" cy="0" r="1" gradientUnits="userSpaceOnUse" gradientTransform="translate(269.96 115.393) scale(62.6795)"><stop offset=".514" stop-color="#FFD6D6"/><stop offset=".741" stop-color="#FFE7E1"/><stop offset="1" stop-color="#FFFFF2"/></radialGradient><radialGradient id="d" cx="0" cy="0" r="1" gradientUnits="userSpaceOnUse" gradientTransform="matrix(37.9461 0 0 37.946 250.083 126.601)"><stop offset=".514" stop-color="#FFD6D6"/><stop offset=".741" stop-color="#FFE7E1"/><stop offset="1" stop-color="#FFFFF2"/></radialGradient></defs></svg>