<svg width="429" height="430" fill="none" xmlns="http://www.w3.org/2000/svg"><path d="M392.113 200.492c4.95-19.62 15.422-30.958 4.075-29.152-11.347 1.805-4.174-10.996.808-13.432 4.981-2.436 17.408-3.865 5.168-7.23-12.24-3.365-23.952-12.883-34.014-13.037-10.062-.154-4.307-22.429-3.292-29.244 1.014-6.815-7.653-4.98-14.919-4.98-11.707 0-18.21-18.388-17.566-34.187.539-13.228 7.727-9.419 14.69-21.539-7.994 5.416-14.046 2.397-26.037 8.78-9.038 4.811-3.739 16.553-8.195 21.832-.899 1.066-10.046-8.965-6.034-18.88 2.569-6.351 4.995-13.17 3.936-21.449-12.11 19.633-29.894 12.046-34.149 12.046-4.255 0 1.739-11.02-7.935-7.778-9.674 3.243-17.398 6.051-30.508 7.872-13.11 1.821-31.461-33.847-35.477-20.545-6.34 21.507-19.608 8.635-27.034-2.843-3.344-5.169-2.561-11.875-3.998-9.799-.926 4.768 4.127 28.31 3.998 29.857-.129 1.547-35.487-10.464-31.414-1.211s6.815 21.057 2.669 23.061c-4.146 2.004-6.12-8.666-12.872-11.7-6.752-3.035-16.592-5.911-21.133-8.787-4.541-2.876-8.326-7.872-8.477-17.712-3.785 3.785-2.562 19.619.151 22.707 4.39 4.995 14.911 27.173 6.282 29.443-12.908 3.397-27.929-10.835-26.794-4.363 1.362 7.769 3.078 30.641.177 34.509-2.9 3.868-15.92 13.905-28.334 12.997-12.413-.908-27.238-6.664-21.958-1.71 5.28 4.954 8.757 8.124 15.827 14.199 6.302 5.415 11.956 6.207 13.63 11.126 1.675 4.92-11.51 25.716-23.924 27.39-12.413 1.675 7.114 15.942 11.43 21.089 1.843 2.2-18.28 4.428-14.76 9.878 3.52 5.45 1.704 20.737-6.358 21.95-14.078 2.119 8.427 6.088 14.23 8.022 5.802 1.934-13.944 22.211-36.905 28.324 16.38 4.798 36.96.818 45.63-5.435 8.67-6.253 8.148 2.732 2.833 9.4-5.314 6.668-10.184 12.24-8.75 22.597 2.321 16.762 5.673 31.72 7.994 16.762 1.185-7.635 13.128 10.027 7.478 18.439 6.198-1.009 11.998-11.057 18.187-14.925 6.19-3.868 8.477-1.178.89 5.929-7.587 7.107-9.124 15.782-9.986 26.403-1.742 21.469 7.348 29.979 7.348 29.979s-3.675-27.465 4.45-32.106c8.122-4.642 17.406-4.062 18.76 4.062 1.354 8.123 3.675 29.012 0 50.481 0 0 21.984-16.053 24.563-29.205.4-2.041-.264-.117.262-8.095.526-7.978 11.433.891 13.745 7.753 2.312 6.862 3.724 15.222 2.755 23.808 5.074-3.513 15.688-9.053 19.122-10.207 3.434-1.154 6.888 8.326 13.851 11.354 6.964 3.028 7.524 21.642 20.409 33.152-1.985-7.94-.839-24.926 1.373-30.932 2.212-6.005 10.807-9.033 16.198-5.097 4.38 3.198 26.005 11.66 30.823 9.461 1.112-.507-4.212-2.62-4.541-4.314-1.589-8.174 23.247-7.534 19.168-14.479-4.079-6.944-5.626-15.454 5.592-6.944 4.905 3.721 23.181 12.851 27.216 13.508 1.697.276-2.335-3.925-2.02-8.737.434-6.63 4.087-12.829 11.555-12.035 6.208.66 13.71 8.684 21.258 13.15-3.736-5.603 4.844-34.453 10.331-29.423 4.702 4.311 5.904 7.72 6.206-13.17.16-11.015 3.696-17.028 11.206-16.2 9.036.996 17.253-11.957 18.767-21.645 1.052-6.735 9.166-4.507 9.321-12.916.387-20.889 24.464-16.06 32.201-23.797-11.227 0-27.329-9.207-35.022-19.095-7.693-9.888-4.794-11.689 2.508-8.879 7.302 2.811 25.071-11.714 30.2-19.503-6.449 2.32-21.815 5.018-16.865-14.603z" fill="#FFDA00"/><path d="M376.655 201.183c3.215-2.173-7.649-13.598-4.642-21.34 1.209-3.111 10.791-11.485 6.576-13.732-4.215-2.248-16.827-9.671-16.247-14.699.58-5.029-4.524-5.856-7.677-7.763-3.154-1.907-6.577-9.237-6.635-12.996-.058-3.76 4.823-10.538 1.303-11.665-3.52-1.127-14.649-4.42-18.13-7.031-3.481-2.611-5.346-7.758-6.383-10.638-2.321-6.447-2.682-18.528-4.617-15.047-1.935 3.481-2.128 6.408-3.713 8.084-1.585 1.676-8.776-8.589-12.741-9.943-3.965-1.354-11.809-5.144-14.211-7.53-4.74-4.709 2.015-10.379-.5-10.766-2.514-.387-13.909 2.747-17.979 2.244-4.07-.503-14.321-4.744-15.868-8.82-1.339-3.526-5.416-3.48-10.638-1.547-5.222 1.934-17.6.463-20.985-1.354-3.385-1.817-4.106.974-7.446.903-2.12-.045-7.605-2.99-9.671-1.676-4.651 2.96-19.341-1.289-21.791-1.03-2.45.257-3.879 5.681-6.001 7.231-2.122 1.55-4.344 2.78-7.022 1.55-2.678-1.23-7.793-6.518-8.669-4.53-.876 1.987-3.709 9.781-7.191 10.243-3.482.463-8.124 4.928-9.413 6.91-1.289 1.981-6.705 2.966-9.246 2.112-3.022-1.015-6.742-8.302-8.161-6.367-1.125 1.534-1.418 8.123-5.673 13.54-2.627 3.342-5.249 3.295-7.008 6.835-1.76 3.54-6.015 3.092-7.562.256-1.547-2.837-5.182 3.808-7.285 3.284-4.642-1.156-14.475-19.224-12.739-12.052 1.736 7.172 6.356 24.048 4.23 29.463-2.129 5.415-6.384 9.284-10.252 11.218-3.549 1.775-10.85 2.984-15.175 3.426-4.324.442 2.928 6.051 5.86 9.919 2.932 3.868-.936 17.02-3.644 21.469-2.708 4.448-7.185 8.244-11.024 9.671-3.839 1.427.238 10.213.193 16.827-.045 6.614 1.141 18.98-1.187 20.979-2.328 1.999-9.179 7.371-5.969 8.275 4.918 1.386 5.986 12.185 7.243 14.506 1.257 2.321 2.625 10.01.922 13.061-1.252 2.243-4.426 5.135-4.587 7.004-.16 1.87 5.104.336 6.487 2.102 1.382 1.766 1.853 11.712 2.664 9.737.81-1.975 3.61 5.398 3.032 8.868-.577 3.47-6.025 9.723-2.866 9.981 3.16.258 6.292 1.476 8.207 2.559 1.915 1.083 3.043 5.983 4.558 5.951 1.515-.032 1.868 4.535 2.388 6.952 1.108 5.152 3.622 6.441 5.413 6.651 1.79.21 4.983 4.325 5.867 5.454 2.84 3.626 4.118 7.323 4.15 9.017.057 2.961-4.053 11.946 1.007 9.834 6.796-2.837 10.444 5.931 15.86 21.147 5.416 15.215-.516 29.914 2.579 25.272 3.095-4.642 2.837-4.126 4.9-17.794.759-5.026 5.91-8.938 9.467-8.498 1.849.228 9.746 5.855 11.486 8.95 1.741 3.095 12.858 2.73 14.939 5.233 2.081 2.503.423 7.124 5.176 5.49 4.752-1.634 7.93-3.266 11.992-1.826 4.062 1.44 9.477 4.062 10.831 6.769 1.354 2.708 2.641 6.895 8.665 13.951 1.17-6.59 4.358-13.318 9.71-13.178 5.352.14 4.255 4.835 10.251 2.708 5.996-2.128 15.865-3.246 18.374-1.741 3.846 2.308 19.341 8.059 16.504 4.062-2.837-3.997-.108-7.043 1.134-9.565 1.242-2.522 7.197-3.091 12.693-2.368 5.496.723 13.951 2.547 16.087 2.262 1.831-.244 1.947-8.509 3.224-10.444 1.277-1.935 4.268-3.552 8.252-2.708 4.576.97 6.747.668 6.963-2.708.151-2.372 4.642-6.834 7.221-6.705 2.579.129 7.994.129 7.736-2.321-.141-1.34 1.233-6.415 3.779-8.525 2.546-2.11 8.384-5.418 10.276-5.53 1.892-.112 6.834-.258 8.897-.129 2.063.129-.774-5.931.774-9.671.782-1.89 4.642-6.576 7.221-7.608 2.579-1.031 3.443-9.259 5.59-11.076 2.147-1.818 16.846 2.437 16.846-.399 0-2.837-6.705-14.184-2.45-17.149 4.255-2.966-2.075-7.541.058-10.798 2.134-3.257 18.638-8.801 16.704-10.091-1.934-1.29-12.839-7.308-10.417-10.101 2.422-2.793-1.729-8.81-.286-12.85 1.289-3.61 6.589-18.022 4.533-20.207-2.342-2.487 1.663-15.271 4.879-17.444z" fill="#DB3A00"/><path d="M116.785 79.51c.479-12.083-2.155-18.92-7.657-24.687-6.295-6.6 1.43-.698 9.333.978 7.903 1.676 7.664 7.185 7.664 11.016 0 3.83-9.804 24.419-9.34 12.694zM152.948 60.95c.142-2.641.12-9.382-.599-11.576-.719-2.194-3.952-2.793-5.029-4.23-1.078-1.437 9.34-.48 15.926 4.19s.12 7.066-2.754 6.946c-2.874-.12-7.903 11.376-7.544 4.67zM197.972 45.024c2.462-.938 9.819-8.023 9.579-11.256-.239-3.233 5.748 2.754 8.741 7.783 2.994 5.03 8.143 7.544 10.418 9.22 2.275 1.676-5.389.36-10.178-2.275-4.79-2.634-13.771-.838-17.123-.479-3.353.36-6.466-1.077-1.437-2.993zM280.196 56.839c2.326-1.078 11.815-.58 15.327-2.016 3.513-1.437 7.664-6.605 10.378-7.404 2.714-.798-5.269 11.336-8.462 14.369-3.193 3.034-19.998-3.672-17.243-4.949zM321.708 76.8c-2.85-4.474-2.794-14.772 1.038-17.167 3.832-2.395 15.089-6.682 13.652-4.658-1.438 2.024-7.754 7.06-8.365 11.359-.896 6.312 3.574 17.248 1.658 17.488-1.916.24-5.134-2.548-7.983-7.022zM366.125 140.82c-.669-2.773 19.367 7.262 25.833 9.858 6.466 2.596-5.269 3.314-5.269 7.864s-18.138-7.664-20.564-17.722zM385.731 197.818c-.067-8.625 0-17.243 3.113-19.878 3.113-2.634 9.157-7.424 5.058 2.395-4.1 9.819-6.734 18.68-6.495 22.991.24 4.311-1.626.948-1.676-5.508zM305.902 359.073c2.782 2.384 15.379 13.878 12.984 8.456-2.395-5.422-4.083-11.888-3.883-17.397.2-5.508-2.933-4.548-4.63-3.539-5.196 3.089-8.942 8.649-4.471 12.48zM215.464 383.422c4.383 6.228 14.6 6.945 16.755 8.382 2.155 1.437 3.148 1.069-.24-2.634s-5.508-11.974-10.059-12.693c-4.549-.719-9.321 2.873-6.456 6.945zM52.842 301.437c-3.193-6.067 6.067-23.31 6.706-24.907.64-1.597 1.495 8.622 3.622 15.647s9.151 15.647 6.597 22.352c-2.555 6.706-2.017-7.664-6.597-12.134-4.58-4.471-10.328-.958-10.328-.958zM20.591 263.757c7.344-.958 24.587-12.134 27.781-18.521 3.193-6.386 9.26 8.692 0 12.329-9.26 3.638-27.78 6.192-27.78 6.192z" fill="#FFEC7D"/><path d="M321.752 322.205c59.155-59.155 59.155-155.065 0-214.22-59.156-59.155-155.065-59.155-214.221 0-59.155 59.155-59.155 155.065 0 214.22 59.156 59.155 155.065 59.155 214.221 0z" fill="#FF9D00"/><path d="M329.939 240.059c1.731-8.749 13.835-21.367 13.835-30.624 0-9.257-7.94-22.197-9.671-30.946-1.783-9.015 9.242-5.631 5.802-13.926-3.5-8.44-16.993-11.716-15.473-22.049 1.324-8.999-10.867-29.649-11.312-29.943a31.003 31.003 0 0 0-2.333-2.612c-29.448-29.448-68.816-42.923-107.348-40.44-11.288 1.357-22.033 3.034-30.101 5.289-8.068 2.255-16.975 5.714-23.769 9.401-6.794 3.687-19.904 11.684-28.838 19.536-4.746 3.853-8.475 7.617-11.603 11.432-41.727 46.21-46.951 113.67-15.68 165.204 3.79 6.246 7.698 18.191 12.691 20.157 5.94 2.34 9.27 10.685 15.464 11.624 6.194.94 24.626 18.902 31.276 21.66 8.295 3.44 33.89-6.478 42.905-4.695 8.749 1.73 9.992 11.492 18.862 10.795 8.87-.697 27.993-14.332 36.742-16.062 9.015-1.783 8.144 6.092 16.438 2.652 8.439-3.499 7.445-21.293 14.947-26.315 7.559-5.06 21.512-13.318 26.573-20.877 5.022-7.502 20.999-8.323 24.499-16.762 3.441-8.294-5.689-13.483-3.906-22.499z" fill="#FFBA0A"/><path d="M315.377 206.141c-5.26-6.755-9.91-17.346-11.463-25.412-2.367-12.296 13.502-19.832 10.985-27.726-2.28-7.15-21.06-30.363-23.719-33.183-1.953-2.071-6.46-7.302-10.414-10.691-3.954-3.389-23.12-16.422-24.977-17.896-1.857-1.474-20.476-8.331-24.306-9.432-10.503-3.02-32.463-3.921-43.567-2.753-14.317 1.852-38.199 11.726-41.261 13.709-3.062 1.984-12.678 8.162-15.235 10.318-2.557 2.156-6.365 5.387-9.366 8.387a114.09 114.09 0 0 0-17.416 22.372c-5.1 8.578-10.628 23.698-11.63 27.057-.88 2.948-2.59 10.523-3.094 14.416-.504 3.892-1.307 12.315-1.21 18.496.098 6.24 1.234 14.729 1.822 18.633.618 4.105 1.868 9.196 3.308 13.501 1.557 4.656 14.18 27.951 15.403 31.387 1.223 3.435 1 11.354 3.956 14.489 2.407 2.552 10.311 2.49 14.267 6.155 3.956 3.665 24.849 21.562 30.137 23.578 7.675 2.927 16.54-8.386 25.017-7.184 8.477 1.202 9.461 12.973 17.648 12.294 8.453-.7 25.22-18.238 33.114-20.755 8.024-2.558 19.833 15.39 22.975 7.667 4.941-12.144 20.94-22.813 27.136-25.446 5.349-2.274 11.92-11.731 10.696-18.443-1.486-8.151 2.083-17.453 5.105-25.378 2.929-7.674 21.946-10.637 16.089-18.16z" fill="#FFDD17"/><path d="M266.391 176.732c0-5.769-12.892-10.619-14.119-16.017-1.267-5.574 13.504-17.713 11.078-22.742-2.199-4.559-14.007 6.32-15.258 4.134-1.251-2.186-1.968-15.054-4.189-19.84-2.222-4.786-3.094-11.745-7.964-15.803-4.317-3.597-6.378 2.787-11.49.321-5.029-2.426-16.01-6.248-19.968-9.824-2.096-1.893-5.266 1.262-7.373 2.37-2.107 1.11-13.33.154-16.466-.186-3.136-.34-7.298.984-9.148 1.404-1.85.42-10.276 2.75-15.192 4.919-8.619 3.803-16.692 9.235-23.754 16.297-7.811 7.811-13.629 16.859-17.454 26.514-2.736 6.905-3.24 19.409-5.151 21.414-1.911 2.005-5.302 4.71-5.302 7.04 0 3.156 2.943 3.369 5.071 4.879 2.129 1.51 3.047 11.539 2.374 15.268-.673 3.729-2.252 11.771-.861 14.654 1.574 3.263 4.474 5.13 8.545 4.346 4.071-.784 7.425 7.783 8.824 12.508 1.399 4.725 2.852 9.58 5.267 11.508 4.391 3.506 8.564 1.271 13.676 3.737 5.029 2.426 14.553 8.462 19.024 12.025 7.717 6.15 29.654-.319 33.721-4.075 3.463-3.199 3.487-11.082 8.988-12.036 10.389-1.802 30.608 6.139 34.999 2.633 4.412-3.523-5.297-25.928-1.774-30.34 3.506-4.391 13.223 4.806 15.689-.305 2.426-5.029-7.177-14.387-5.911-19.961 1.226-5.401 14.118-9.073 14.118-14.842z" fill="#FFE54F"/><path opacity=".64" d="M275.109 133.027c-7.776 17.651-31.939 34.481-90.238 39.049-47.037 3.686-78.213 26.868-107.153 57.342-2.56 2.695-5.624 7.924-7.636 8.249-2.012.325-3.893-1.596-5.113-4.542-1.118-3.577-1.801-10.563-1.796-17.003-.366-25.865 6.909-54.108 19.043-74.619 6.18-10.448 15.707-24.449 28.569-36.67 12.388-11.771 27.95-21.836 42.518-28.28 9.711-4.302 19.866-7.596 30.325-9.757 10.395-2.148 21.09-3.177 31.777-3.177 6.161-.014 18.594.935 27.759 2.699 17.045 4.829 27.141 16.703 31.296 26.717 5.24 12.63 4.621 30.975.649 39.992z" fill="url(#a)"/><path opacity=".41" d="M329.442 116.331a155.652 155.652 0 0 0-3.262-3.682c.38.4.75.81 1.11 1.21.73.813 1.439 1.645 2.152 2.472z" fill="url(#b)"/><path opacity=".41" d="m329.574 116.484-.133-.153c.045.052.09.102.133.153z" fill="url(#c)"/><path opacity=".41" d="M349.31 145.75a153.66 153.66 0 0 0-19.736-29.266 151.619 151.619 0 0 1 19.736 29.266z" fill="url(#d)"/><path opacity=".41" d="M355.81 183.73c17.828 87.603-41.823 167.7-124.211 180.241-80.283 12.86-154.21-47.357-166.36-123.761 43.661 46.63 126.901 49.24 178.911 12.37 48.57-37.71 64.71-122.13 34.92-171.35a152.592 152.592 0 0 1 31.1 22.23c-.01-.01-.02-.03-.03-.04 12.01 11.052 21.795 23.48 29.89 37.97.01.01.01.02.01.03a150.047 150.047 0 0 1 15.77 42.31z" fill="url(#e)"/><path opacity=".41" d="M366.1 218.1c-.09 5.68-.53 11.41-1.3 17.14.87-6.62 1.32-13.37 1.32-20.22.005-.895-.001-1.787-.013-2.678.032 1.912.039 3.829-.007 5.758z" fill="url(#f)"/><path opacity=".41" d="M366.04 209.34c.032 1 .054 2.001.067 3.002-.017-1.002-.029-2.005-.067-3.002z" fill="url(#g)"/><path opacity=".45" d="M359.01 214.71c-1.791 132.577-155.38 199.976-249.88 109.26 136.541 77.85 283.302-99.164 201.04-220.51-.01-.01-.02-.03-.03-.04 12.01 11.052 21.795 23.48 29.89 37.97.01.01.01.02.01.03 12.239 22.083 19.05 47.554 18.97 73.29z" fill="url(#h)"/><path opacity=".68" d="M189.97 146.327c-16.31-.004-48.804-11.213-60.306-11.213-11.502 0-25.313 7.877-34.262 10.278-8.888 2.385-1.857-15.152 2.18-20.168 7.205-8.951 18.316-19.404 22.807-22.847 6.389-4.898 16.478-13.012 28.897-19.435 9.059-4.685 27.509-10.956 40.95-13.067 14.959-2.35 30.916-.959 39.591 8.24 12.043 12.77 8.417 34.42 5.014 43.802-5.014 13.82-21.237 24.416-44.871 24.41z" fill="url(#i)"/><path opacity=".75" d="M192.809 84.357c-2.906-5.034-12.955-4.672-22.445.807s-14.827 14.001-11.921 19.034c2.906 5.033 12.955 4.672 22.444-.806 9.491-5.48 14.828-14.002 11.922-19.035z" fill="url(#j)"/><path opacity=".75" d="M179.15 123.404c-1.725-2.987-7.379-2.952-12.63.08-5.25 3.031-8.109 7.911-6.384 10.898 1.725 2.987 7.379 2.952 12.63-.08 5.251-3.031 8.109-7.911 6.384-10.898z" fill="url(#k)"/><path opacity=".38" d="M366.04 209.34c-.658-18.656-4.919-37.767-12.89-55.62-.01-.01-.02-.02-.02-.03-.126-.283-1.088-2.497-2.055-4.5-.868-1.798-1.756-3.42-1.765-3.44-24.345-47.456-73.421-79.757-127.53-81.98 33.263 3.188 64.056 17.268 88.39 39.69-.01-.01-.02-.03-.03-.04 12.008 11.052 21.799 23.48 29.89 37.97.01.01.01.02.01.03 65.083 120.54-47.021 256.835-174.26 217.1 80.521 27.308 165.802-17.235 192.25-94.45.03-.05.05-.11.06-.16 5.851-17.18 8.6-35.715 7.95-54.57z" fill="#EDFF4D"/><path opacity=".38" d="M320.37 106.66C308.92 95.5 295.7 86.1 281.41 79.04c14.52 7.14 27.63 16.53 38.96 27.62zM355 248.77c-9.87 43.32-37.09 77.18-71.72 97.05 35.73-20.83 62.19-55.74 71.72-97.05zM334.71 132.54a153.246 153.246 0 0 0-24.54-29.08c-.01-.01-.02-.03-.03-.04 9.43 8.63 17.68 18.44 24.57 29.12zM345.46 291.49zM342.741 295.929l-.214.335c.072-.112.144-.223.214-.335z" fill="#EDFF4D"/><path opacity=".38" d="M342.528 296.264c-20.496 32.178-52.816 56.117-90.86 65.677a149.244 149.244 0 0 0 20.033-6.64c18.55-7.46 34.64-18.74 46.87-30.3 9.136-8.459 17.21-18.184 23.957-28.737zM248.76 362.65zM356.11 269.38a168.1 168.1 0 0 0 1.92-5.31c-.6 1.78-1.24 3.55-1.92 5.31zM358.09 263.91c1.8-5.32 3.31-10.72 4.51-16.16-1.21 5.5-2.72 10.89-4.51 16.16zM355.81 183.73a148.35 148.35 0 0 1 3.2 30.98c-.05 3.97-.24 7.88-.57 11.73 1.18-14.72.21-29.05-2.63-42.71zM360.71 174.77c-.47-1.67-.961-3.32-1.481-4.97.53 1.64 1.021 3.3 1.481 4.97zM361.16 176.44c.9 3.35 1.67 6.74 2.32 10.17-.66-3.42-1.43-6.82-2.32-10.17zM363.479 186.61c.55 2.86 1.021 5.74 1.391 8.64-.38-2.9-.851-5.78-1.391-8.64z" fill="#EDFF4D"/><defs><radialGradient id="f" cx="0" cy="0" r="1" gradientUnits="userSpaceOnUse" gradientTransform="translate(364.828 211.525) scale(20.3059)"><stop offset=".483" stop-color="#C95700"/><stop offset=".623" stop-color="#C54C00"/><stop offset=".866" stop-color="#BA3000"/><stop offset="1" stop-color="#B31D00"/></radialGradient><radialGradient id="a" cx="0" cy="0" r="1" gradientUnits="userSpaceOnUse" gradientTransform="translate(372.879 343.887) scale(352.255)"><stop offset=".65" stop-color="#FE9"/><stop offset="1" stop-color="#FFEC8A"/></radialGradient><radialGradient id="c" cx="0" cy="0" r="1" gradientUnits="userSpaceOnUse" gradientTransform="matrix(.1749 0 0 .1749 329.444 116.326)"><stop offset=".483" stop-color="#C95700"/><stop offset=".623" stop-color="#C54C00"/><stop offset=".866" stop-color="#BA3000"/><stop offset="1" stop-color="#B31D00"/></radialGradient><radialGradient id="d" cx="0" cy="0" r="1" gradientUnits="userSpaceOnUse" gradientTransform="translate(329.986 115.44) scale(30.7325)"><stop offset=".483" stop-color="#C95700"/><stop offset=".623" stop-color="#C54C00"/><stop offset=".866" stop-color="#BA3000"/><stop offset="1" stop-color="#B31D00"/></radialGradient><radialGradient id="e" cx="0" cy="0" r="1" gradientUnits="userSpaceOnUse" gradientTransform="translate(71.369 71.08) scale(352.017)"><stop offset=".483" stop-color="#C95700"/><stop offset=".623" stop-color="#C54C00"/><stop offset=".866" stop-color="#BA3000"/><stop offset="1" stop-color="#B31D00"/></radialGradient><radialGradient id="b" cx="0" cy="0" r="1" gradientUnits="userSpaceOnUse" gradientTransform="matrix(4.25243 0 0 4.25239 326.248 112.518)"><stop offset=".483" stop-color="#C95700"/><stop offset=".623" stop-color="#C54C00"/><stop offset=".866" stop-color="#BA3000"/><stop offset="1" stop-color="#B31D00"/></radialGradient><radialGradient id="g" cx="0" cy="0" r="1" gradientUnits="userSpaceOnUse" gradientTransform="matrix(2.65956 0 0 2.65891 366.041 209.233)"><stop offset=".483" stop-color="#C95700"/><stop offset=".623" stop-color="#C54C00"/><stop offset=".866" stop-color="#BA3000"/><stop offset="1" stop-color="#B31D00"/></radialGradient><radialGradient id="h" cx="0" cy="0" r="1" gradientUnits="userSpaceOnUse" gradientTransform="translate(111.288 73.164) scale(328.711)"><stop offset=".642" stop-color="#CC4F00"/><stop offset=".674" stop-color="#C94700"/><stop offset=".893" stop-color="#B71400"/><stop offset="1" stop-color="#B00000"/></radialGradient><radialGradient id="i" cx="0" cy="0" r="1" gradientUnits="userSpaceOnUse" gradientTransform="translate(278.922 287.641) scale(238.695)"><stop offset=".655" stop-color="#FBFFD1"/><stop offset=".793" stop-color="#FAFFC9"/><stop offset="1" stop-color="#F8FFB3"/></radialGradient><radialGradient id="j" cx="0" cy="0" r="1" gradientUnits="userSpaceOnUse" gradientTransform="matrix(83.6681 -4.84039 4.95062 85.57352 210.377 143.345)"><stop offset=".553" stop-color="#fff"/><stop offset=".826" stop-color="#fff"/></radialGradient><radialGradient id="k" cx="0" cy="0" r="1" gradientUnits="userSpaceOnUse" gradientTransform="rotate(-1.672 5513.89 -6434.656) scale(47.0655 50.113)"><stop offset=".553" stop-color="#fff"/><stop offset=".826" stop-color="#FFF9F7"/></radialGradient></defs></svg>