<svg width="539" height="476" fill="none" xmlns="http://www.w3.org/2000/svg"><path d="M426.62 228.75c-.693 81.464-62.865 144.072-140.79 149.7-.02.01-.03.01-.04 0-33.034 2.359-68.375-6.758-97.29-27.81h-.01c-5.628-4.146-11.025-8.577-16.8-14.24h-.01c-16.43-15.745-29.506-36.438-37.11-58.87 0 0-.01 0-.01-.01-10.753-31.354-11.506-66.993-.24-98.8 0 .03-.01.05-.01.08 46.965-125.97 208.336-132.531 271.95-25.93.01.01.01.01 0 .02 12.99 22.156 20.311 48.358 20.36 75.86z" fill="#0079B8"/><path d="M316.379 372.17c-2.784 1.924-7.045 2.99-11.379 3.7-.02.01-.041.01-.071.01-45.082 9.113-92.723-3.391-126.999-33.69a170.508 170.508 0 0 1-6.25-5.79s-.01 0-.01-.01c-41.153-39.496-56.407-103.656-37.351-157.67 0 .03-.009.05-.009.08 6.405-16.865 15.893-34.106 28.05-48.54-6.62 20.55-13.4 49.49.62 66.73-10.78-16.51 12.48-6.34 18.64 1.9.77 3.05-2.77 10.54.53 12.68 7.23 6.32 32.149 9.57 43.789 17.5 21.74 12.22 16.52 19.77 42.94 42.17 26.94 22.06 18.011 23.38 25.671 42.91 3.9 6.14 15.969 8.83 21.919 15.59 8.73 10.51 12.22 32.84-.09 42.43z" fill="#144980"/><path d="M307.59 375.26c-3.605.76-7.407 1.487-12.228 2.126 40.666-25.796-21.441-40.627-42.341-47.92-13.852-8.169-26.569-17.395-41.942-22.781-17.575-3.762-20.255-.863-32.832-10.514-28.18-9.819-47.688-36.646-52.095-65.715-.297-16.725 2.4-34.666 8.144-51.644v-.013h.013c-14.766 82.35 55.987 103.829 24.186 66.011-1.907-2.513.271-2.165 3.002-.696 17.846 9.187 19.032 27.665 32.484 32.265 12.215 2.977 17.305 4.819 26.982 12.357 16.725 7.783 20.346 10.592 34.533 22.549 21.118 10.424 84.72 33.282 52.094 63.975z" fill="#C9EFFF"/><path d="M306.778 366.653c-1.147 1.353-8.04 9.149-11.919 10.798-.322.039-.67.09-1.044.129-.644.077-1.365.155-2.126.245a9.958 9.958 0 0 0-.618.065c-.876.09-1.791.18-2.732.271-1.095.09-2.204.181-3.299.258 23.593-17.357-43.797-46.658-56.425-56.09-13.13-6.365-19.109-3.75-29.662-10.901-1.843-3.453-6.752-2.874-11.648-2.989-7.138-2.294-14.676-11.584-22.845-11.21-.889-.992-20.037-21.647-20.642-22.369-5.618-10.927-12.95-22.111-17.112-33.592-.039-.271-.052-.554-.077-.824-.038-.464-.077-.928-.103-1.392a78.938 78.938 0 0 1-.155-2.474l-.077-1.34c-.052-.928-.077-1.868-.103-2.809-.013-.245-.013-.49-.013-.734a39.264 39.264 0 0 1-.026-1.237c-.026-.683-.026-1.379-.026-2.075v-.386c0-.915.013-1.83.026-2.745v-.18c.129-6.675.722-13.414 1.778-20.191.193 57.249 26.866 74.773 61.708 94.346 11.21 2.126 24.804 4.072 31.208 9.097 6.043 3.711 23.992 16.583 32.935 21.57 13.543 4.107 63.976 17.315 52.997 36.759z" fill="#8CCFFF"/><path d="M335.951 366.343c-6.144 2.614-12.98 5.013-20.191 6.971 14.135-19.903 8.554-32.068-6.67-46.202-6.406-1.15-15.907-13.106-17.309-15.892-3.139-24.803-24.461-22.679-40.251-25.084-15.222-1.606-21.39-4.171-35.7-9.339-41.713-15.473-30.095-24.728-41.755-35.758-24.511-19.312-33.822-38.924-31.856-65.454.595-9.442 1.66-20.456 7.102-27.285-18.041 78.219 29.686 78.589 40.646 97.352 15.238 36.964 45.543 32.378 74.871 33.124 8.312.695 14.908 6.319 8.733-1.856-30.933-22.451-20.736-23.178-35.711-37.667-26.739-25.536-61.861-11.168-57.617-39.491-.186-1.842-2.08-3.944-4.739-5.911-21.924-12.411-7.305 6.37-9.624 8.012-18.799-13.889-14.801-47.619-5.257-69.49 7.701-9.578 17.265-18.951 28.103-26.686-25.942 19.266-46.744 69.773-10.956 85.378 8.3 5.37 10.314 15.892 19.17 18.785 15.393 5.568 36.009 22.905 54.043 31.608 14.702 6.726 39.294 44.324 44.32 61.819 1.659 3.645 3.675 6.726 6.122 8.057 41.063 14.117 24.828 29.261 34.526 55.009z" fill="#458CFF"/><path d="M324.032 362.542c-1.276 2.925-4.394 7.654-8.028 10.707-.026.013-.052.013-.077.026a3.645 3.645 0 0 0-.168.039h-.013c-.18.052-.348.103-.528.142-.374.103-.696.18-1.018.271-.09.026-.168.039-.259.065-.631.154-1.236.309-2.074.502-.025 0-.051.013-.077.013 4.832-4.394 9.547-10.63 9.714-17.975.283-12.061-7.924-18.825-9.998-20.552-2.074-1.753-5.656-4.497-9.573-5.309-1.559-.322-5.863-3.737-8.736-7.267-1.636-2.023-3.582-4.948-6.004-7.19l-.039-.039c-1.624-1.508-3.492-2.706-5.631-3.131-.193-.026-.399-.065-.593-.09-5.656-.709-6.082-4.587-7.731-6.791-1.662-2.216-3.427.103-2.654 3.428.554 2.345-6.327 1.301-10.141-1.817-3.827-3.105-14.148-7.01-12.408-7.95 1.224-.644 9.818-2.242 15.256-2.358 7.138-.129 15.591.683 18.568 4.497 2.783 3.569 5.412 3.762 8.646 7.731.206.271 1.057 1.404 1.314 1.714v.026c.026.039.064.09.103.129 0 0 0 .013.013.026.039.064.089.116.128.18 3.711 4.806 10.167 10.811 17.332 13.053.67.206 1.34.49 1.984.85.039.026.077.039.116.077.786.412 1.546.941 2.294 1.559.012 0 .011 0 .025.013a22.29 22.29 0 0 1 2.694 2.616c.077.077.142.155.193.232 4.639 5.309 7.976 13.001 8.556 17.163.875 6.249.192 12.24-1.186 15.41z" fill="#8CCFFF"/><path d="M311.146 361.511c-1.16 4.484-4.742 11.339-12.177 15.346h-.012l-.219.039c-1.121.18-2.255.335-3.376.49h-.013c-.155.013-.297.039-.451.065 4.252-2.912 12.189-11.584 10.489-15.205-2.01-4.291-8.002-7.383-13.852-12.64-4.819-4.33-15.797-11.674-24.301-14.251-5.721-1.727-11.893-1.714-15.256-3.531-7.667-4.123-10.617-10.128-17.55-13.761a639.253 639.253 0 0 1-13.916-7.538c-.283-.155-.58-.322-.889-.477a22.492 22.492 0 0 0-1.121-.554c-2.139-1.005-4.69-1.959-7.422-2.809a22.088 22.088 0 0 0-.992-.296c-6.623-1.946-14.148-3.183-19.688-2.809h-.129c-1.559.064-2.577-.902-3.814-2.203-1.456-1.534-3.221-3.557-6.585-4.961-8.569-3.582-21.261-13.22-27.136-20.333-2.68-3.247-3.492-4.742-3.247-5.077.283-.412 2.074.837 3.981 2.719 3.505 3.466 12.898 12.383 29.031 17.898 10.27 3.518 17.82 4.767 29.443 9.703 5.76 2.435 23.825 14.87 35.86 20.99 4.935 2.526 17.163 4.613 28.477 10.025 9.071 4.342 29.494 14.432 33.321 20.255 2.073 3.156 2.201 6.338 1.544 8.915z" fill="#15589A"/><path d="M426.57 231.06c-.02.81-.05 1.62-.08 2.42-.11 2.52-.27 5.01-.48 7.47-.14 1.65-.31 3.28-.51 4.9-12.03-37.49-39.44-33.67-50.47-47.59-16.52-27.6-16.17-27.35-39.08-36.62-11.16-10.71-11.98-18.22-26.36-19.81-9.57-3.93-17.68-4.57-24.95-9.27-7.39-7.3-21.44-21.76-25.28-27.8-2.9-4.55-2.28-14.55 3.54-25.96 2.38-.2 5.18-.36 8.78-.43 1.51.85 2.87 3.37 3.89 6.41 7 31.61 10.54 17.57 29.6 29.11 44.82 23.85 74.15 56.15 90.42 80.28 11.24 12.23 30.16 29.33 30.98 36.89z" fill="#458CFF"/><path d="M426.49 233.48c-.11 2.52-.27 5.01-.48 7.47-8.85-26.64-32.09-39.54-37.87-43.68-7.03-11.65-11.59-12.74-20.73-20.04-33.15-43.62-87.36-39.98-93.81-75.61-3.36-5.85-9.65-14.56-6.42-23.11 89.286-4.315 162.25 66.343 159.31 154.97z" fill="#C9EFFF"/><path d="M406.652 303.386c-4.898 8.452-11.167 17.419-18.349 25.397-2.184 2.406-5.381 5.848-8.606 8.762l-.722.696c11.181-30.437 6.707-27.828-1.669-49.018-4.963-27.518-25.399-23.76-43.011-41.231-66.646-70.229-71.24-39.582-87.37-67.003-16.997-22.713-58.264-17.504-55.946-49.869.602-13.104 7.144-28.577 16.494-36.887 12.954-8.479 12.334.398 13.919 11.702 1.493 14.053.601 24.731 9.642 32.173 42.256 39.412 104.438 65.046 136.727 95.059 3.465 3.884 6.298 8.918 9.063 14.084 9.348 21.389 29.593 32.928 29.828 56.135z" fill="#458CFF"/><path d="M414.229 168.684c-7.847-5.322-22.175-23.412-30.035-25.835-7.95-2.448-16.068-8.942-21.403-12.653-5.334-3.711-11.455-16.815-19.418-19.882-7.963-3.067-29.662-6.688-42.238-11.532-8.44-3.247-16.249-9.058-22.395-20.346 61.927 1.79 112.965 37.611 135.489 90.248zM284.976 94.125c-5.927-4.947 9.234 20.097 24.257 24.844 15.022 4.746 39.041 14.824 43.904 19.245 4.863 4.421 31.829 28.719 33.892 33.14 2.063 4.421 10.707 15.434 18.336 15.016 5.046-.277 10.693 2.429 11.699 1.578 1.508-1.276-.5-10.567-11.109-14.619-10.61-4.052-30.355-18.493-33.892-24.682-3.536-6.189-33.891-24.755-38.312-26.818-4.421-2.063-27.319-9.993-32.777-13.911-5.458-3.918-13.887-12.03-15.998-13.793z" fill="#8CCFFF"/><path d="M374.594 342.222a129.6 129.6 0 0 1-6.533 5.347c-.309.232-.606.477-.915.696a97.495 97.495 0 0 1-3.492 2.577c-.129.09-.245.18-.374.271-3.93 2.77-8.002 5.36-12.215 7.731-.052.026-.103.064-.142.09a152.179 152.179 0 0 1-6.378 3.402c.58-10.27-1.817-22.871-5.18-35.46-.696-2.577-1.095-13.62-4.381-19.341-5.309-9.252-13.285-15.617-23.477-24.263-4.742-4.007 3.891-4.948 12.885 3.401 9.007 8.35 17.717 13.001 21.119 20.359 1.997 4.317 3.105 18.374 4.072 30.049.683 8.221 1.057 12.151 1.302 17.472.309 6.649 5.721-3.556 5.412-11.597-.335-8.556-4.33-13.646-2.629-18.645.863-2.551 3.711 2.873 6.649 8.749 2.306 4.626 4.51-3.711 3.556-14.998-.799-9.522-4.781-17.988-9.948-25.281-9.651-13.633-23.464-23.168-28.399-27.909-3.427-3.299-6.326-9.239-8.917-13.916-1.443-2.616-5.489-5.154-6.894-7.551-1.649-2.809-3.427-5.296-5.257-7.125-2.642-2.641-8.788-4.523-12.924-8.685-5.682-5.721-9.071-13.362-7.873-13.439 1.662-.116 4.536 5.953 9.432 9.754 4.149 3.234 10.115 6.069 13.014 9.033 3.299 3.376 7.448 7.809 12.859 12.653 3.234 2.873 18.542 14.187 27.484 22.523 2.629 2.448 12.164 4.896 15.256 9.96 3.827 6.262 5.953 14.367 8.504 19.173 2.551 4.806-1.739 12.847 2.783 20.346 3.611 5.966 2.592 16.713 1.601 24.624z" fill="#144980"/><path d="M285.34 378.39c-.78.06-1.58.11-2.4.15h-.07c-5.86.3-12.85.26-18.77-.19.07-.03.13-.05.19-.08 8.74-3.98-9.87-33.03-28.92-38.29-55.49-8.33-73.9-22.03-100.77-62.33-2.65-7.7-4.69-15.62-6.11-23.65-1.92-10.94-2.68-22.09-2.2-33.2 2.81 21.35 9.3 43.08 26.12 59.47 14.37 11.48 23.89 25.97 38.19 27.35 6.5-.29 7.7 1.75 13.47 5.16 7.71 3.59 17.01 3.82 21.73 7.22 12.7 10.26 86.5 43.32 59.54 58.39z" fill="#0079B8"/><path d="M419.821 272.783v.013c-3.241 10.414-7.471 20.369-13.182 30.474.005.003-.012.03.013.116-2.13 3.635-5.226 8.662-8.942 13.723v.013c-1.105 1.516-2.154 2.966-4.69 6.146-.839 1.002-2.184 2.669-4.613 5.412-.013 0-.013.013-.013.013a.357.357 0 0 1-.077.064c-.013.026-.026.026-.039.052a4.655 4.655 0 0 0-.515.49c5.061-15.451 1.292-25.352-1.647-36.012-1.68-6.093-2.239-13.683-2.422-20.198-.183-6.515-6.104-10.75-11.338-18.554-9.939-14.818-20.26-30.057-21.771-29.245-1.511.812-.811 6.614 1.538 10.792 2.447 4.353 6.441 8.077 7.905 11.571 1.552 3.706 1.6 5.807-1.874 3.922-1.353-.915-5.374-2.796-7.577-4.703-9.331-8.752-15.995-21.88-24.121-28.232-36.884-28.831-62.939-30.517-69.341-46.615-11.796-23.384-31.475-9.823-46.67-20.08-19.647-11.42-16.665-40.636 2.75-60.457 13.388-6.095 27.793-10.115 42.585-11.958-28.339 22.866-13.785 35.386 7.163 49.796 6.377 5.211 11.002 13.404 17.744 18.032 9.166 6.291 19.925 8.609 22.782 12.163.999 3.233 27.407 39.301 21.363 26.467-.468-3.144-1.987-6.212-3.324-8.479-3.447-5.843-4.671-8.82-3.673-9.161 1.527-.523 5.834 4.826 13.226 11.646 2.988 2.757 5.2 7.78 8.515 10.967 10.794 10.378 23.392 19.922 29.46 24.865 24.906 23.282 52.553 16.416 50.785 56.957z" fill="#C9EFFF"/><path d="M209.304 132.714c-10.89-18.419 5.861-34.665 8.415-37.838 3.647-4.531 5.772-5.415 2.444-.72-1.682 2.373-5.888 7.427-7.537 12.962-1.287 4.318-1.685 8.903-.754 12.656 2.155 8.688 4.931 6.862 10.599 10.968 4.333 3.142-6.109 13.922-13.167 1.972z" fill="#144980"/><path opacity=".48" d="M336.47 146.89c-7.73 17.53-31.54 38.37-89.61 38.78-28.32.2-55.12 12.28-69.6 27.03-16.76 17.07-30.99 34.21-38.51 38.11-5.04 2.61-10.06-2.77-11.69-7.04-.13-.34-.24-.68-.33-1-.53-4.01-.66-13.05-.66-13.51-.04-4.68.15-9.37.57-14.05.585-6.827 2.607-19.022 5.206-28.787 1.944-7.302 6.949-19.196 13.659-31.671 5.461-10.154 11.987-18.422 14.505-21.492 14.95-18.26 34.11-33.338 55.561-42.828 13.67-6.06 28.32-9.402 43.26-11.252.04-.01.08-.01.12-.01a150.738 150.738 0 0 1 49.09 2.54c14.94 5.31 23.93 16.2 27.78 25.47 5.199 12.54 4.589 30.76.649 39.71z" fill="url(#a)"/><path opacity=".32" d="M426.62 228.75c-.485 79.971-62.236 144.587-140.79 149.7-.02.01-.03.01-.04 0-3.716.259-9.628.398-14.28.24 73.83-1.6 134.96-55.87 146.34-126.56 13.79-85.66-46.69-160.86-126.08-173.06 74.932 8.018 134.749 70.414 134.85 149.68z" fill="#FF3BD5"/><path opacity=".6" d="M251.92 160.103c-16.197-.004-48.464-11.135-59.886-11.135-11.422 0-25.137 7.822-34.023 10.207-8.826 2.369-1.197-13.152 2.294-18.963 5.876-9.781 18.059-20.333 22.519-23.753 6.345-4.864 16.363-12.921 28.696-19.299 8.996-4.652 27.317-10.879 40.664-12.976 14.855-2.334 29.414.461 39.315 8.182 8.178 6.378 12.845 14.229 12.845 25.124s-9.048 26.771-16.044 32.153c-7.784 5.989-22.37 10.463-36.38 10.46z" fill="url(#b)"/><path opacity=".79" d="M257.988 99.815c-2.289-5.298-12.242-6.096-22.231-1.781s-16.232 12.108-13.943 17.406c2.289 5.299 12.242 6.096 22.231 1.781s16.231-12.108 13.943-17.406z" fill="url(#c)"/><path opacity=".79" d="M234.975 135.634c-1.713-2.966-7.328-2.931-12.542.079-5.214 3.01-8.052 7.855-6.339 10.822 1.713 2.966 7.328 2.931 12.542-.079 5.213-3.01 8.051-7.856 6.339-10.822z" fill="url(#d)"/><path d="M335.354 161.499C191.202 37.302 44.784-29.073 8.322 13.249-28.141 55.57 59.159 190.56 203.312 314.758c144.152 124.197 290.57 190.571 327.033 148.25 36.461-42.321-50.839-177.311-194.991-301.509zm190.052 296.138c-34.798 40.39-177.408-25.433-318.529-147.018C65.757 189.034-20.435 57.728 14.364 17.338c34.798-40.389 177.409 25.433 318.529 147.018 141.12 121.585 227.311 252.892 192.513 293.281z" fill="#90B4FF"/><path d="M332.327 165.311C194.557 46.612 55.332-17.647 21.36 21.783c-33.972 39.43 50.173 167.62 187.943 286.318C347.073 426.8 486.298 491.059 520.27 451.629c33.972-39.431-50.173-167.62-187.943-286.318zm181.894 279.366c-33.028 38.334-168.382-24.139-302.322-139.538C77.959 189.74-3.846 65.115 29.181 26.781 62.21-11.554 197.563 50.919 331.503 166.318s215.746 240.025 182.718 278.359z" fill="#90B4FF"/><path d="M330.371 167.282C200.449 55.345 69.156-5.253 37.119 31.932 5.082 69.114 84.434 190.001 214.355 301.937 344.277 413.875 475.57 474.474 507.607 437.289c32.038-37.183-47.314-158.07-177.236-270.007zM500.89 429.768c-31.005 35.987-158.071-22.661-283.809-130.993C91.343 190.443 14.547 73.449 45.551 37.462c31.006-35.987 158.072 22.661 283.81 130.993C455.099 276.788 531.895 393.782 500.89 429.768z" fill="#90B4FF"/><defs><radialGradient id="a" cx="0" cy="0" r="1" gradientUnits="userSpaceOnUse" gradientTransform="matrix(364.005 0 0 364.006 390.896 409.297)"><stop offset=".678" stop-color="#66FFD8"/><stop offset="1" stop-color="#5EFFDE"/></radialGradient><radialGradient id="b" cx="0" cy="0" r="1" gradientUnits="userSpaceOnUse" gradientTransform="translate(346.074 300.068) scale(237.027)"><stop offset=".655" stop-color="#BDFFC6"/><stop offset=".941" stop-color="#C5FFC3"/><stop offset="1" stop-color="#C8FFC2"/></radialGradient><radialGradient id="c" cx="0" cy="0" r="1" gradientUnits="userSpaceOnUse" gradientTransform="matrix(60.9432 0 0 60.9429 261.393 153.145)"><stop offset=".514" stop-color="#D1FFF8"/><stop offset=".743" stop-color="#D5FFF7"/><stop offset=".987" stop-color="#E2FFF5"/><stop offset="1" stop-color="#E3FFF5"/></radialGradient><radialGradient id="d" cx="0" cy="0" r="1" gradientUnits="userSpaceOnUse" gradientTransform="matrix(38.0099 0 0 38.0098 240.154 168.787)"><stop offset=".608" stop-color="#D1FFF8"/><stop offset=".999" stop-color="#E3FFF3"/></radialGradient></defs></svg>