<svg width="302" height="302" fill="none" xmlns="http://www.w3.org/2000/svg"><path d="M283.531 79.19a150.794 150.794 0 0 0-19.17-28.01c-6.471-7.44-14.19-14.74-22.74-20.98-.01 0-.01 0-.01-.02-55.124-42.046-135.799-39.355-187.88 5.68h-.01C33.758 52.76 18.56 74.736 9.46 99.88c-.027.019.01.003-.03.06-12.42 34.017-11.514 73.91 2.08 106.87l-.01.01c56.23 132.24 238.849 121.66 282.679-9.73 13.49-39.1 8.231-82.42-10.649-117.9z" fill="#DE6724"/><path d="M268.805 56.564c-5.756-7.324-12.199-14.064-19.247-20.08a133.389 133.389 0 0 0-7.94-6.283c-.012-.005-.012-.005-.008-.016-28.895-21.93-64.382-31.65-99.084-29.667-5.68 18.842-43.624 7.66-25.724 35.978.004 2.043-5.144 5.314-4.943 8.742.2 3.427 20.111 7.684 26.281 8.892 16.864 3.3 26.151-8.674 44.506-15.433 13.449 14.92 9.846 21.274 5.186 32.748 14.168-4.298 11.485-25.623 4.474-34.081 21.04 6.658 3.897 43.215 33.876 45.87 18.376 1.6 30.243-.321 46.393 4.704 7.728.355 3.926-6.11 10.958-8.747a150.417 150.417 0 0 0-14.728-22.627z" fill="#A33615"/><path d="M301.425 158.482c-9.694-.806-20.791.031-29.903 2.689a59.013 59.013 0 0 1-10.018 2.003c1.958-4.615 1.388-7.97-2.157-8.806-1.756-.412-4.598 3.282-7.145 9.115-6.756-.303-13.244-1.736-19.369-3.922-11.805-4.204-35.844-5.002-47.987-4.27-12.144.732-19.625 5.455-30.235 1.727-10.605-3.74-16.731-9.302-13.889-17.694 2.842-8.392-11.126-15.438-17.154-17.64-6.04-2.206-12.646-2.558-8.023 1.431 4.624 3.99 12.006 10.038 11.674 19.687-.332 9.65-18.319 13.012-24.572 9.457-6.252-3.555-12.275 4.595-8.012 13.578 4.259 8.995-4.024 3.079-10.438-1.505-6.415-4.585-6.134-12.186-6.626-18.6-.493-6.414 7.638-12.725 8.752-23.651 1.113-10.926-11.13-10.035-15.798-14.983-4.668-4.949.376-12.447-3.94-15.168-4.314-2.722-23.221 15.853-34.184 24.579-10.963 8.726.3-14.647 3.336-18.543 3.036-3.896 10.19-7.054 10.443-11.657.253-4.603 6.29-13.074 10.476-15.504 4.185-2.43-9.128-7.32-11.11-2.504-1.981 4.816-1.047 5.115-13.021 17.609-11.974 12.494-7.385-4.23.308-19.33 2.579-5.048 4.147-8.973 5.132-12.044 9.404-.127 21.673.615 31.917 3.787 15.675 4.875 27.616 8.96 25.266 13.572-2.35 4.612-8.613 4.808-8.252 8.58.36 3.774 5.074 9.263 13.24 3.973s12.869-8.611 19.225-3.382c6.356 5.229 16.78 10.878 14.734 13.602-2.045 2.724-8.97-2.903-12.274-1.842-3.304 1.06-7.249 4.523.958 10.672 8.219 6.153 18.274 8.365 22.115 7.86 3.841-.505 19.774 11.336 25.689 15.995 5.916 4.659 32.81 11.293 50.572 6.407 17.763-4.887 42.76-11.579 57.343-10.413 6.074.479 14.052 2.472 21.426 4.682a148.903 148.903 0 0 1 1.501 30.453z" fill="#EF8F41"/><path d="M293.385 101.516c-97.118-17.062-107.669 11.507-175.027-38.87C107.425 52.01 69.91 42.713 78.52 23.132c-2.078 2.586 5.491-7.596 9.248-9.107.017-.007.525-.25.77-.35C104.664 6.23 124.062 1.472 142.524.518c-.001.04.004.257-.01.293-1.103 8.067-10.83 10.374-19.583 14.103-.045.01-.083.037-.133.06-6.785 3.094-8.723 6.404-8.609 9.65.251 7.142 8.794 7.758.812 17.499-5.175 6.315 23.053 10.874 31.681 10.039 11.735-1.135 21.679-8.183 36.125-13.501 3.779-.91 5.67-.795 8.335-1.471 3.876-.983 8.735 4.649 10.731 9.086 2.632 5.853 3.33 13.487 5.327 20.255 2.435 8.249 6.802 15.21 18.959 16.087 8.05.567 11.548-3.776 17.849-3.367 6.301.409 19.738 5.409 29.226 7.999 6.946.07 2.851-7.308 10.347-8.08a153.12 153.12 0 0 1 9.803 22.346z" fill="#C74924"/><path d="M266.077 53.44c-15.5 16.68-36.672-10.895-48.436-16.216-4.975-.883-13.249-2.344-18.98-2.303-4.189.03-7.556.197-6.747 2.645 2.26 2.404 5.536 5.682 6.452 9.249 2.457 9.574-1.313 21.928-10.521 24.635 4.475-8.107 4.54-14.81 2.77-20.295-3.14-9.732-13.206-15.315-12.377-18.732.828-3.417 11.615-3.277 18.429-2.728 6.814.549 14.694-3.535 12.051-6.957-28.03-2.998-31.032-13.644-11.169-10.531 2.142.612 3.629-.46 3.993-3.482 1.008.365 2.094.792 3.309 1.193.056.035.109.04.169.064 12.912 4.87 25.264 11.598 36.592 20.204-.004.012-.004.012.008.016a132.578 132.578 0 0 1 7.94 6.283 139.235 139.235 0 0 1 14.802 14.697 29.23 29.23 0 0 0 1.715 2.259z" fill="#70280F"/><path d="M279.082 229.819c-37.05 59.996-112.487 87.379-180.959 61.626-41.062-15.444-71.416-46.907-86.621-84.619 2.917-7.756 13.394-3.566 19.536.419 7.418 4.805 9.446 5.827 15.475 7.924 6.017 2.093 17.934 6.401 21.526 8.263 3.592 1.861 7.912 3.107 7.236 5.81-.665 2.707-9.352 1.73-9.26 2.876.092 1.147 1.565 3.075 7.819 3.425 6.265.354 17.995 1.94 17.969 8.76-.026 6.82-7.98 9.247-14.264 8.074-6.273-1.169-12.787-3.056-7.508.931 5.29 3.992 12.538 3.054 12.269 6.486-.263 3.447 1.528 3.139 6.905-.059 5.366-3.203 5.546-2.429 14.827 1.389 9.276 3.829 23.801 10.404 34.384 4.427 10.595-5.973 17.302-12.636 17.302-8.985.001 3.651-5.194 6.329-4.308 9.227.882 2.909 7.708 1.669 10.297-2.225 2.578-3.898 12.424-9.237 16.532-9.131 4.104.117 7.014.034 11.576 5.231 4.55 5.192 9.338 5.161 15.576.232 6.233-4.918 3.437-1.9 9.449-2.753 6.024-.848 7.453-2.143 9.737 2.013 2.288 4.145 12.552.652 20.525-4.96 7.973-5.612 16.305-11.101 20.95-16.459 4.342-5 13.869-18.781 13.03-7.922z" fill="#C74924"/><path d="M294.219 197.121c-6.342-5.683-11.956-.427-15.272 2.892-3.96 3.954-6.955 11.255-15.369 10.144-8.431-1.103-11.927-19.639-12.458-23.411-.531-3.772 4.427-13.37 8.437-19.857.806-1.307 1.458-2.553 1.948-3.716a58.934 58.934 0 0 0 10.018-2.003c9.112-2.657 20.21-3.495 29.903-2.689a149.243 149.243 0 0 1-7.207 38.64z" fill="#F8A73B"/><path d="M252.2 163.49c-18.8-3.33-34.649-10.61-56.599-9.33-15.84-.12-37.694 8.897-49.404-2.52-1.915-1.868-3.876-5.16-4.356-8.88-.48-3.72 1.029-9.35-5.661-13.99-4.62-5.49-30.21-13.89-19.43-4.61 21.35 17.34 6.831 34.12-14.109 28.09-1.99-1.21-4.75-.99-6.48.44-9.74 7.33 9.79 26.38-9.5 13.39-9.192-7.016-9.326-14.235-7.7-21.28 3.36-14.563 17.42-27.982-3.17-34.52-12.49-4-4.03-15.63-9.47-18.48-5.418-2.833-28.212 21.666-35.6 24.56-3.593 1.407-4.21-1.184 3.86-16.63 1.61-4.97 16.9-8.19 17.43-11.76C44.97 77.22 57.89 71.565 61.2 68c1.75-1.884-.325-3.631-6.96-4.26-8.13-.85-10.62 4.27-12.78 9.54-4.76 8.55-21.34 28.81-13.86 6.75 2.89-9.17 9.99-20.73 11.59-30.06C26.267 64.534 16.26 81.029 9.44 99.93l-.01.01c-1.97 5.574-3.924 12.022-5.41 18.91 5.335-4.273 13.049-15.107 16.39-19.9 2.97 9.09-12.03 42.56-4.91 44.67 15.16.87 9.88-16.1 12.34-18.03 3.44-1.29 7.13 8.26 11.07 13.79 5.393 5.111 6.594 12.86 9.75 17.743 4.091 6.332 9.98 9.755 17.18 16.107 9.995 9.022 1.037 1.979-3.545 4.495-2.432 1.335-3.502 5.958-.136 15.795 2.347 13.805 37.151 20.975 35.82 8.954-1.1-3.431-10.196-14.142-10.49-18.114 1.85 1.45 7.02 6.34 15.33 3.68 15.86-4.31 17.891-5.41 25.201 4.88 6.48 7.34 16.635 19.58 22.436 14.1 15.44-33.95.174-16.13 25.824-19.14 5.78-3.25-4.63-22.99 14.03-17.49 8 4.13-2.76 6.03-6.23 11.37-8.68 33.14-5.051 34.98 10.379 30.12 2.33-3.58 13.461 6.78 15.621 5.2-1.54-4.02-10.531-13.8-10.581-17.72-3.64-8.73 6.328-23.09 14.878-24.92 9.57 2.35 6.823 40.29 5.463 40.2 4.85 4.99 3.509 15.69 10.079 16.08 9.23-5.93 12.8-10.91 18.48-10.8 1.96-3.36 1.37-9.99-.99-21.8-2.37-11.78.88-25.71 4.79-34.63z" fill="#F8A73B"/><path d="M294.225 197.124c-.007-.017-1.484-1.218-2.079-1.513-1.363-.741-2.768-1.007-3.726-1.008-1.529-.001-4.791 1.501-5.042 1.655-1.721 1.091-3.221 2.554-4.431 3.754-3.958 3.96-6.952 11.26-15.375 10.148-8.427-1.101-11.922-19.642-12.448-23.412-.539-3.775 4.422-13.371 8.435-19.861a27.366 27.366 0 0 0 1.945-3.709c1.957-4.616 1.387-7.975-2.16-8.813-1.749-.409-4.599 3.277-7.142 9.121-3.91 8.929-7.16 22.851-4.793 34.637 2.358 11.81 1.976 17.446.022 20.807-1.102.179-1.908.344-2.338.499-2.476.862-5.627.877-11.643 7.373-6.015 6.496-9.078-.945-8.897-3.443.181-2.498-.092-5.511-1.461-6.784-1.381-1.278-1.878-1.354-1.89-2.862-.012-1.508 3.461-16.243-.197-29.217-3.662-12.964-4.682-16.229-14.543-6.256-9.857 9.961-8.663 20.906-4.138 27.394 4.525 6.488 11.958 15.255 4.781 10.501-7.177-4.755-9.452-6.99-11.241-5.939-1.801 1.047-10.647 3.333-13.601 1.947-2.958-1.375-.663-7.587-.391-12.671.278-5.068 1.964-14.061 3.282-17.454 1.313-3.382 6.369-5.715 7.848-7.337 1.496-1.63-1.439-4.9-7.089-5.425-4.449-.418-9.968 3.065-8.382 10.144 1.581 7.091-3.969 7.182-8.991 6.894-5.027-.277-9.657-3.881-11.574-1.167-1.913 2.701-2.536 10.411-7.79 19.868-.548 1.014-1.268 1.869-2.843 2.351-5.806.878-14.669-15.089-18.899-20.307-1.885-2.323-3.406-6.894-6.852-6.646-2.88.213-11.502 5.605-14.748 6.536-5.464 1.545-14.93-5.409-19.574-5.018-4.31.351 1.906 8.538 7.493 14.404 6.19 6.465 1.912 10.539-2.043 11.41-3.967.867-17.14-2.612-22.615-6.354-5.487-3.746-8.325-15.709-7.77-21.183.014-.147.246-.914.246-.914 1.742-3.786 11.803 1.474 9.415-2.294-2.436-3.867-10.478-8.631-13.919-12.904-.16-.198-.52-.706-.581-.798-.764-.977-2.657-12.848.41-23.5 1.331-4.602 3.481-9.033 5.474-12.685 2.19-4.013 7.402-5.119 7.96-6.896.436-1.381.56-3.582-4.959-2.954-5.53.623-12.245 10.593-20.51 18.74-1.216 1.183-2.897 3.158-4.813 4.948-2.49 2.332-5.369 4.339-8.093 3.88-2.41-.41-8.524-.144 1.348 5.183 6.385 3.449 4.291 16.496 6.131 22.347 1.733 5.549 4.468 7.046 1.437 11.105-3.019 4.065 4.713 5.4 6.415 7.364 1.715 1.969 2.093 5.876 7.407 11.186 5.313 5.309 8.625 8.678 6.672 10.495-1.952 1.817-5.27 1.397-14.827-2.749-6.14-2.669-19.54-9.542-30.92-13.864-3.203-1.204-6.245-2.211-8.92-2.872l-.011-.005.13.422c1.072 4.208 3.81 11.253 4.688 13.39 3.53-3.665 10.883-4.513 17.01-.525 7.42 4.804 11.996 7.16 18.02 9.26 5.324 1.836 15.252 5.143 19.966 7.165.201.089 9.455 3.832 8.772 6.527-.663 2.716-9.355 1.736-9.26 2.876.09 1.151 1.57 3.086 7.823 3.439 6.258.34 17.993 1.926 17.962 8.755-.026 6.818-7.975 9.249-14.263 8.07-6.263-1.17-12.78-3.055-7.507.928 5.298 3.993 12.544 3.063 12.275 6.493-.261 3.446 1.523 3.138 6.907-.065 5.355-3.199 5.547-2.424 14.826 1.397 9.28 3.821 23.798 10.399 34.377 4.42 10.603-5.97 17.302-12.636 17.307-8.98-.008 3.652-5.192 6.323-4.309 9.221.878 2.91 7.703 1.669 10.297-2.223 2.583-3.897 12.424-9.23 16.538-9.132 4.093.119 7.005.042 11.563 5.232 4.558 5.19 9.342 5.155 15.58.233 6.238-4.923 3.435-1.908 9.448-2.75 6.03-.85 7.456-2.148 9.741 2.008 2.29 4.144 12.555.653 20.526-4.956 7.971-5.608 16.301-11.109 20.949-16.464 1.727-1.679 6.156-7.26 8.906-10.332 1.401-1.267 2.6-1.961 3.347-1.527.439.265.935 1.661.798 3.748-.006.053-.006.122-.016.187a135.93 135.93 0 0 0 3.777-6.482 151.352 151.352 0 0 0 11.36-26.212zm-157.569 62.427c-4.006.824-7.498 2.627-9.469-3.355-1.95-5.961-4.345-9.316-.414-12.872 3.584-3.258 3.89-6.164-1.938-5.776-2.191.141-11.599-1.246-8.182-7.947 3.404-6.705 12.863-.83 16.506 1.216 3.649 2.034 7.48 8.205 7.435 15.843-.057 7.634.069 12.067-3.938 12.891zm66.282-4.794c-3.429 1.966-9.597 4.101-9.435.479.155-3.638.57-7.124-.701-7.96-1.271-.837-2.255-1.965-1.276-2.77 1.139-.938 9.262-7.978 14.812-8.249 5.558-.255 10.469 3.813 8.832 7.321-1.633 3.498-8.799 9.202-12.232 11.179zm47.74-12.152c-5.638 2.044-12.44 3.665-11.875 4.912.573 1.263 6.637-.994 8.05-.352 1.426.647-6.691 4.477-10.255 5.812-5.467 2.067-18.346 1.623-5.663-6.723 3.222-2.113 7.237-4.395 11.424-5.772 4.191-1.389 12.868-3.849 14.581-4.957 1.709-1.094-.615 5.011-6.262 7.08z" fill="#FFCE9E"/><path d="M250.682 242.6c-5.64 2.053-12.448 3.666-11.872 4.917.572 1.262 6.625-.988 8.047-.349 1.421.639-6.693 4.47-10.259 5.811-5.462 2.067-18.35 1.616-5.662-6.723 3.216-2.114 7.239-4.395 11.423-5.779 4.196-1.379 12.872-3.848 14.58-4.946 1.709-1.097-.612 5.004-6.257 7.069zM215.166 243.583c-1.629 3.496-8.799 9.2-12.222 11.171-3.435 1.966-9.605 4.107-9.444.478.161-3.629.573-7.125-.698-7.956-1.271-.831-2.259-1.962-1.274-2.769 1.136-.934 9.256-7.981 14.813-8.247 5.551-.255 10.458 3.815 8.825 7.323z" fill="#C74924"/><path d="M191.089 224.382c-2.962 3.275-10.335 9.495-14.595 11.393-4.446 1.981-9.694 4.38-18.199 1.539-3.588-1.201-7.163-7.563-5.953-12.342 1.233-4.869 8.753-2.475 11.46-3.26 2.707-.785 7.242-4.087 9.629-4.855 2.385-.752 14.85-1.901 18.153.515 3.303 2.417 1.603 4.691-.495 7.01z" fill="#EF8F41"/><path d="M187.017 224.116c-2.396 2.587-8.253 7.582-11.654 9.097-3.55 1.582-9.837 3.493-16.628 1.225-2.865-.959-9.196-11.395-2.658-9.852 6.538 1.543 10.924-2.893 12.582-3.131 1.657-.238 4.112.049 6.019-.564 1.905-.601 8.193-2.982 10.831-1.052 2.636 1.931 3.905 1.691 1.508 4.277zM136.656 259.551c-4 .825-7.502 2.622-9.469-3.352-1.955-5.969-4.347-9.316-.417-12.876 3.592-3.255 3.9-6.161-1.936-5.779-2.188.146-11.595-1.247-8.186-7.946 3.41-6.699 12.872-.825 16.515 1.213 3.643 2.038 7.47 8.214 7.424 15.851-.057 7.634.069 12.065-3.931 12.889z" fill="#C74924"/><path d="M180.748 58.922c.402 6.319-5.219 9.986-10.101 11.894-4.882 1.908-13.151.826-13.535-4.642-.222-3.37 4.941-11.051 9.995-12.923 5.065-1.855 13.159-1.904 13.641 5.67z" fill="#70280F"/><path opacity=".64" d="M211.264 68.983c-7.735 17.558-31.771 34.299-89.762 38.843-49.66 3.891-81.546 29.629-111.865 62.698-.774.844-1.957 2.271-3.337 2.554-1.38.283-3.54-1.278-3.932-3.607-.154-.915-.472-3.164-.614-4.301A145.593 145.593 0 0 1 .67 153.049c0-.013-.013-.026 0-.052a50.77 50.77 0 0 1-.013-1.407C.45 125.835 7.228 99.332 19.556 77.489h.013c15.775-29.007 41.129-51.276 70.667-64.341C109.497 4.615 130.552.006 151.879.006c.065.013.116 0 .181 0 9.127.009 18.311.864 27.428 2.619 16.955 4.804 26.997 16.615 31.131 26.577 5.212 12.563 4.597 30.812.645 39.78z" fill="url(#a)"/><path opacity=".41" d="M301.492 153.605c-.635 38.476-17.577 79.096-46.991 106.34-12.172 11.495-28.175 22.724-46.628 30.143C122.216 325.376 18.565 273.69 2.318 175.63c43.426 46.381 126.417 48.949 178.154 12.281 49.894-38.751 65.577-126.75 31.871-174.858 53.115 23.621 90.871 78.645 89.149 140.552z" fill="url(#b)"/><path opacity=".45" d="M294.728 150.236c-1.708 131.395-154.58 199.69-248.569 108.685 136.101 77.534 281.763-98.815 199.952-219.392 30.62 28.019 48.718 68.604 48.617 110.707z" fill="url(#c)"/><path opacity=".39" d="M301.588 150.546c.033 84.664-69.963 153.201-155.392 150.628 73.956-1.602 135.187-55.966 146.595-126.774C307.096 85.569 241.647 7.95 158.006-.007 240.566 3.82 301.95 72.98 301.588 150.546z" fill="#BA4AFF"/><path opacity=".68" d="M126.573 82.214C110.349 82.21 78.026 71.06 66.585 71.06c-11.442 0-25.18 7.836-34.081 10.224-8.841 2.373-1.847-15.072 2.169-20.061C41.84 52.319 52.892 41.92 57.36 38.496c6.355-4.873 16.391-12.944 28.745-19.332 9.012-4.66 27.364-10.898 40.734-13 14.88-2.337 30.753-.953 39.382 8.197 11.98 12.703 8.373 34.239 4.987 43.57-4.987 13.749-21.124 24.289-44.635 24.283z" fill="url(#d)"/><path opacity=".75" d="M129.398 20.57c-2.891-5.007-12.886-4.648-22.326.802-9.44 5.45-14.749 13.927-11.858 18.934 2.891 5.007 12.887 4.648 22.326-.802 9.439-5.45 14.749-13.927 11.858-18.934z" fill="url(#e)"/><path opacity=".75" d="M115.812 59.41c-1.716-2.971-7.341-2.935-12.563.08-5.223 3.015-8.066 7.869-6.35 10.84 1.716 2.972 7.339 2.936 12.562-.08 5.222-3.013 8.066-7.867 6.351-10.84z" fill="url(#f)"/><defs><radialGradient id="a" cx="0" cy="0" r="1" gradientUnits="userSpaceOnUse" gradientTransform="translate(308.422 278.699) scale(350.17)"><stop offset=".65" stop-color="#FB9"/><stop offset=".666" stop-color="#FFBE96"/><stop offset="1" stop-color="#FFF157"/></radialGradient><radialGradient id="b" cx="0" cy="0" r="1" gradientUnits="userSpaceOnUse" gradientTransform="translate(8.562 2.772) scale(357.55)"><stop offset=".483" stop-color="#C90022"/><stop offset=".623" stop-color="#C20021"/><stop offset=".819" stop-color="#B0001E"/><stop offset="1" stop-color="#99001A"/></radialGradient><radialGradient id="c" cx="0" cy="0" r="1" gradientUnits="userSpaceOnUse" gradientTransform="translate(48.305 9.404) scale(327.161)"><stop offset=".642" stop-color="#900"/><stop offset=".701" stop-color="#990010"/><stop offset=".797" stop-color="#990023"/><stop offset=".896" stop-color="#99002E"/><stop offset="1" stop-color="#990032"/></radialGradient><radialGradient id="d" cx="0" cy="0" r="1" gradientUnits="userSpaceOnUse" gradientTransform="translate(215.057 222.783) scale(237.438)"><stop offset=".655" stop-color="#FFC4B3"/><stop offset="1" stop-color="#FFC8B3"/></radialGradient><radialGradient id="e" cx="0" cy="0" r="1" gradientUnits="userSpaceOnUse" gradientTransform="rotate(-3.311 1444.415 -2501.276) scale(83.3663 85.265)"><stop offset=".553" stop-color="#FFD0BF"/><stop offset=".826" stop-color="#FFCFBF"/></radialGradient><radialGradient id="f" cx="0" cy="0" r="1" gradientUnits="userSpaceOnUse" gradientTransform="rotate(-1.672 3282.889 -4294.157) scale(46.8178 49.8492)"><stop offset=".553" stop-color="#FFD0BF"/><stop offset=".826" stop-color="#FFCFBF"/></radialGradient></defs></svg>